<?xml version="1.0" encoding="UTF-8"?>
<svg id="Layer_2" data-name="Layer 2" xmlns="http://www.w3.org/2000/svg" xmlns:xlink="http://www.w3.org/1999/xlink" viewBox="0 0 89 29.85">
  <defs>
    <style>
      .cls-1 {
        stroke-dasharray: 2.7 1.7;
      }

      .cls-1, .cls-2, .cls-3, .cls-4, .cls-5, .cls-6, .cls-7, .cls-8, .cls-9, .cls-10, .cls-11, .cls-12, .cls-13, .cls-14, .cls-15, .cls-16, .cls-17, .cls-18, .cls-19 {
        fill: none;
      }

      .cls-1, .cls-2, .cls-3, .cls-4, .cls-5, .cls-6, .cls-8, .cls-9, .cls-10, .cls-11, .cls-12, .cls-13, .cls-14, .cls-15, .cls-16, .cls-17, .cls-18, .cls-19 {
        stroke: #231f20;
      }

      .cls-2 {
        stroke-dasharray: 2.82 1.82;
      }

      .cls-3 {
        stroke-dasharray: 2.64 1.64;
      }

      .cls-20 {
        fill: #231f20;
      }

      .cls-4 {
        stroke-dasharray: 2.99 1.99;
      }

      .cls-5 {
        stroke-dasharray: 2.84 1.84;
      }

      .cls-8 {
        stroke-dasharray: 3.15 2.15;
      }

      .cls-9 {
        stroke-dasharray: 3.61 2.61;
      }

      .cls-10 {
        stroke-dasharray: 2.97 1.97;
      }

      .cls-11 {
        stroke-dasharray: 3.17 2.17;
      }

      .cls-12 {
        stroke-dasharray: 3.17 2.17;
      }

      .cls-13 {
        stroke-dasharray: 2.83 1.83;
      }

      .cls-14 {
        stroke-dasharray: 2.48 1.48;
      }

      .cls-15 {
        stroke-dasharray: 3.11 2.11;
      }

      .cls-16 {
        stroke-dasharray: 3.01 2.01;
      }

      .cls-21 {
        clip-path: url(#clippath);
      }

      .cls-17 {
        stroke-dasharray: 3.06 2.06;
      }

      .cls-18 {
        stroke-dasharray: 2.9 1.9;
      }

      .cls-19 {
        stroke-dasharray: 2.58 1.58;
      }
    </style>
    <clipPath id="clippath">
      <rect class="cls-7" width="89" height="29.85"/>
    </clipPath>
  </defs>
  <g id="Layer_1-2" data-name="Layer 1">
    <g class="cls-21">
      <line class="cls-10" x1="2" y1="29.85" x2="2" y2="2.16"/>
      <path class="cls-20" d="M2,4.16c1.11,0,2-.89,2-2S3.11.16,2,.16,0,1.06,0,2.16s.89,2,2,2"/>
      <line class="cls-15" x1="25.89" y1="29.84" x2="25.76" y2=".65"/>
      <line class="cls-11" x1="2.53" y1=".98" x2="13.71" y2="28.65"/>
      <line class="cls-2" x1="25.86" y1=".62" x2="13.84" y2="28.77"/>
      <line class="cls-13" x1="43.88" y1="29.85" x2="43.88" y2="13.02"/>
      <path class="cls-19" d="M40.51,16.39c-.96-.64-1.92-.94-3.17-.94"/>
      <path class="cls-5" d="M32.37,17.01c-1.01.93-1.53,2.16-1.8,3.24"/>
      <path class="cls-16" d="M31.07,25.96c.51,1.13,1.34,2.26,2.67,2.88"/>
      <path class="cls-1" d="M39.17,28.82c1.28-.48,2.27-1.2,2.99-1.88"/>
      <path class="cls-6" d="M42.76,26.33c.44-.48.73-.86.88-1.02M34.68,29.18c.45.11.95.17,1.49.17.47,0,.92-.04,1.35-.1M30.39,21.14c-.1.65-.11,1.17-.11,1.41s.04.79.18,1.49M36.55,15.47c-.4.03-.82.09-1.28.16-.5.08-.95.22-1.36.39M42.65,18.29c-.32-.33-.62-.64-.91-.91"/>
      <path class="cls-20" d="M42.65,20.29c1.1,0,2-.89,2-2s-.9-2-2-2-2,.9-2,2,.89,2,2,2"/>
      <path class="cls-8" d="M62.81,16.16c-1.1.77-1.92,1.94-2.36,3.42"/>
      <path class="cls-12" d="M60.82,25.84c.63,1.37,1.64,2.39,2.91,2.97"/>
      <path class="cls-6" d="M69.91,28.29c.44-.31.82-.68,1.15-1.1M64.76,29.16c.5.12,1.02.18,1.57.18s1.09-.06,1.59-.17M60.21,20.63c-.08.5-.12,1.02-.12,1.57s.04,1.08.12,1.58M67.9,15.29c-.47-.13-.99-.2-1.57-.2-.55,0-1.07.06-1.56.18M70.86,17.49c-.32-.44-.67-.83-1.06-1.17"/>
      <path class="cls-20" d="M70.86,19.49c1.1,0,2-.89,2-2s-.9-2-2-2-2,.9-2,2,.89,2,2,2"/>
      <line class="cls-4" x1="77.69" y1="29.85" x2="77.69" y2="2"/>
      <path class="cls-20" d="M77.69,4c1.1,0,2-.89,2-2S78.8,0,77.69,0s-2,.9-2,2,.89,2,2,2"/>
      <line class="cls-14" x1="88.5" y1="27.12" x2="88.5" y2="23.9"/>
      <path class="cls-18" d="M87.95,18.62c-.5-1.36-1.32-2.39-2.33-2.98"/>
      <path class="cls-3" d="M80.56,16.04c-.89.62-1.67,1.48-2.39,2.48"/>
      <path class="cls-6" d="M77.71,19.19c-.24.36-.48.73-.71,1.11M84.75,15.26c-.45-.14-.93-.2-1.43-.18-.46.02-.89.1-1.29.23M88.5,23.16v-1.24c0-.5-.03-.99-.1-1.45M88.5,29.85v-1.24"/>
      <line class="cls-17" x1="50.69" y1="29.85" x2="50.69" y2="16.55"/>
      <path class="cls-20" d="M50.69,18.55c1.1,0,2-.89,2-2s-.9-2-2-2-2,.9-2,2,.89,2,2,2"/>
      <path class="cls-9" d="M58.13,15.4s-5.5,1.57-8.23,5.11"/>
    </g>
  </g>
</svg>