<?xml version="1.0" encoding="UTF-8"?>
<svg id="Layer_2" data-name="Layer 2" xmlns="http://www.w3.org/2000/svg" xmlns:xlink="http://www.w3.org/1999/xlink" viewBox="0 0 165.13 46.89">
  <defs>
    <style>
      .cls-1 {
        stroke-dasharray: 3.14 2.14;
      }

      .cls-1, .cls-2, .cls-3, .cls-4, .cls-5, .cls-6, .cls-7, .cls-8, .cls-9, .cls-10, .cls-11, .cls-12, .cls-13, .cls-14, .cls-15, .cls-16, .cls-17, .cls-18, .cls-19, .cls-20, .cls-21, .cls-22, .cls-23, .cls-24, .cls-25, .cls-26, .cls-27 {
        fill: none;
      }

      .cls-1, .cls-2, .cls-3, .cls-4, .cls-5, .cls-6, .cls-7, .cls-8, .cls-9, .cls-10, .cls-12, .cls-13, .cls-14, .cls-15, .cls-16, .cls-17, .cls-18, .cls-19, .cls-20, .cls-21, .cls-22, .cls-23, .cls-24, .cls-25, .cls-26, .cls-27 {
        stroke: #231f20;
      }

      .cls-28 {
        clip-path: url(#clippath-6);
      }

      .cls-2 {
        stroke-dasharray: 3.09 2.09;
      }

      .cls-3 {
        stroke-dasharray: 3.47 2.47;
      }

      .cls-29 {
        clip-path: url(#clippath-4);
      }

      .cls-30 {
        fill: #231f20;
      }

      .cls-4 {
        stroke-dasharray: 3.43 2.43;
      }

      .cls-5 {
        stroke-dasharray: 2.95 1.95;
      }

      .cls-6 {
        stroke-dasharray: 2.84 1.84;
      }

      .cls-7 {
        stroke-dasharray: 3.32 2.32;
      }

      .cls-8 {
        stroke-dasharray: 3.18 2.18;
      }

      .cls-10 {
        stroke-dasharray: 2.96 1.96;
      }

      .cls-12 {
        stroke-dasharray: 2.91 1.91;
      }

      .cls-13 {
        stroke-dasharray: 3.32 2.32;
      }

      .cls-31 {
        clip-path: url(#clippath-1);
      }

      .cls-14 {
        stroke-dasharray: 3.06 2.06;
      }

      .cls-15 {
        stroke-dasharray: 2.91 1.91;
      }

      .cls-16 {
        stroke-dasharray: 2.52 1.52;
      }

      .cls-32 {
        clip-path: url(#clippath-5);
      }

      .cls-17 {
        stroke-dasharray: 2.57 1.57;
      }

      .cls-18 {
        stroke-dasharray: 3.31 2.31;
      }

      .cls-33 {
        clip-path: url(#clippath-3);
      }

      .cls-19 {
        stroke-dasharray: 2.59 1.59;
      }

      .cls-20 {
        stroke-dasharray: 2.79 1.79;
      }

      .cls-21 {
        stroke-dasharray: 3.11 2.11;
      }

      .cls-22 {
        stroke-dasharray: 3.33 2.33;
      }

      .cls-23 {
        stroke-dasharray: 3.34 2.34;
      }

      .cls-24 {
        stroke-dasharray: 3.33 2.33;
      }

      .cls-34 {
        clip-path: url(#clippath-2);
      }

      .cls-25 {
        stroke-dasharray: 2.4 1.4;
      }

      .cls-26 {
        stroke-dasharray: 3.28 2.28;
      }

      .cls-27 {
        stroke-dasharray: 3.25 2.25;
      }

      .cls-35 {
        clip-path: url(#clippath);
      }
    </style>
    <clipPath id="clippath">
      <rect class="cls-11" width="165.13" height="46.89"/>
    </clipPath>
    <clipPath id="clippath-1">
      <rect class="cls-11" width="165.13" height="46.89"/>
    </clipPath>
    <clipPath id="clippath-2">
      <rect class="cls-11" width="165.13" height="46.89"/>
    </clipPath>
    <clipPath id="clippath-3">
      <rect class="cls-11" width="165.13" height="46.89"/>
    </clipPath>
    <clipPath id="clippath-4">
      <rect class="cls-11" width="165.13" height="46.89"/>
    </clipPath>
    <clipPath id="clippath-5">
      <rect class="cls-11" width="165.13" height="46.89"/>
    </clipPath>
    <clipPath id="clippath-6">
      <rect class="cls-11" width="165.13" height="46.89"/>
    </clipPath>
  </defs>
  <g id="Layer_1-2" data-name="Layer 1">
    <g class="cls-35">
      <path class="cls-12" d="M13.07,2.18c-.81-.61-1.95-1.17-3.54-1.45"/>
      <path class="cls-3" d="M3.12,1.57c-1.5.99-2.16,2.52-2.44,3.88"/>
      <path class="cls-19" d="M1.71,11.02c.97,1.31,2.75,2.94,6.02,4.46"/>
      <path class="cls-1" d="M12.78,18.27c1.03.84,2.06,1.93,2.66,3.22"/>
      <path class="cls-23" d="M14.93,27.89c-.78,1.41-1.94,2.43-3.23,3.03"/>
      <path class="cls-18" d="M5.19,30.4c-1.25-.73-2.4-1.77-3.28-2.99"/>
      <path class="cls-9" d="M1.29,26.44c-.27-.49-.5-.99-.67-1.51M10.6,31.31c-.54.14-1.1.22-1.65.22s-1.09-.08-1.64-.22M15.8,22.5c.13.5.19,1.01.17,1.56-.03.58-.1,1.13-.22,1.65M8.45,15.8c.38.16.78.33,1.2.48,0,0,.57.26,1.38.75M.52,6.67c-.07,1.01.04,1.73.04,1.73,0,0,.01.48.35,1.24M8.59.6c-.45-.05-.93-.07-1.45-.07-.63,0-1.21.05-1.73.15M15.02,4.85s-.13-.57-.63-1.3"/>
      <path class="cls-30" d="M15.02,6.85c1.1,0,2-.89,2-2s-.9-2-2-2-2,.9-2,2,.89,2,2,2"/>
    </g>
    <line class="cls-8" x1="121.03" y1="32" x2="121.03" y2="2"/>
    <g class="cls-31">
      <path class="cls-30" d="M121.03,4c1.1,0,2-.89,2-2S122.13,0,121.03,0s-2,.9-2,2,.89,2,2,2"/>
      <path class="cls-2" d="M122.58,28.78c.98,1.05,2.09,1.89,3.35,2.35"/>
      <path class="cls-27" d="M132.04,30.13c1.13-.85,2.04-2.05,2.54-3.48"/>
      <path class="cls-4" d="M134.15,19.94c-.76-1.53-1.94-2.6-3.24-3.2"/>
      <path class="cls-5" d="M124.76,16.97c-1.18.61-2.11,1.52-2.94,2.56"/>
      <path class="cls-9" d="M121.23,20.3c-.29.39-.57.8-.85,1.2M129.76,16.34c-.57-.14-1.14-.2-1.7-.18-.52.02-1.01.07-1.46.17M134.88,25.57c.1-.52.15-1.06.15-1.61,0-.6-.06-1.17-.15-1.71M126.93,31.4c.49.09,1,.12,1.54.08.54-.04,1.08-.15,1.59-.32M120.43,25.87c.27.44.55.87.84,1.29"/>
    </g>
    <line class="cls-10" x1="34.38" y1="23.73" x2="21.56" y2="23.73"/>
    <g class="cls-34">
      <path class="cls-30" d="M21.56,25.73c-1.11,0-2-.89-2-2s.89-2,2-2,2,.9,2,2-.9,2-2,2"/>
      <path class="cls-22" d="M33.36,20.22c-.66-1.48-1.71-2.59-3-3.23"/>
      <path class="cls-24" d="M23.87,17.5c-1.16.82-2.02,2.06-2.47,3.64"/>
      <path class="cls-13" d="M21.81,27.8c.67,1.45,1.74,2.52,3.08,3.13"/>
      <path class="cls-25" d="M30.19,31.14c1.12-.36,1.95-.94,2.6-1.63"/>
      <path class="cls-9" d="M33.25,28.98c.25-.32.48-.66.68-.99M25.98,31.31c.52.13,1.07.19,1.65.19.43,0,.82-.02,1.2-.07M21.15,22.27c-.08.52-.12,1.08-.12,1.66s.04,1.13.12,1.66M29.28,16.57c-.52-.14-1.07-.21-1.65-.21s-1.13.06-1.65.19M34.12,24.11c0-.58-.04-1.13-.12-1.66"/>
    </g>
    <line class="cls-10" x1="83.57" y1="23.73" x2="70.75" y2="23.73"/>
    <g class="cls-33">
      <path class="cls-30" d="M70.75,25.73c-1.11,0-2-.89-2-2s.89-2,2-2,2,.9,2,2-.9,2-2,2"/>
      <path class="cls-22" d="M82.55,20.22c-.66-1.48-1.71-2.59-3-3.23"/>
      <path class="cls-24" d="M73.07,17.5c-1.16.82-2.02,2.06-2.47,3.64"/>
      <path class="cls-13" d="M71,27.8c.67,1.45,1.74,2.52,3.08,3.13"/>
      <path class="cls-25" d="M79.39,31.14c1.12-.36,1.95-.94,2.6-1.63"/>
      <path class="cls-9" d="M82.45,28.98c.25-.32.48-.66.68-.99M75.18,31.31c.52.13,1.07.19,1.65.19.43,0,.82-.02,1.2-.07M70.34,22.27c-.08.52-.12,1.08-.12,1.66s.04,1.13.12,1.66M78.47,16.57c-.52-.14-1.07-.21-1.65-.21s-1.13.06-1.65.19M83.32,24.11c0-.58-.04-1.13-.12-1.66"/>
    </g>
    <line class="cls-10" x1="152.81" y1="23.73" x2="139.99" y2="23.73"/>
    <g class="cls-29">
      <path class="cls-30" d="M139.99,25.73c-1.11,0-2-.89-2-2s.89-2,2-2,2,.9,2,2-.9,2-2,2"/>
      <path class="cls-22" d="M151.79,20.22c-.66-1.48-1.71-2.59-3-3.23"/>
      <path class="cls-24" d="M142.3,17.5c-1.16.82-2.02,2.06-2.47,3.64"/>
      <path class="cls-13" d="M140.24,27.8c.67,1.45,1.74,2.52,3.08,3.13"/>
      <path class="cls-25" d="M148.62,31.14c1.12-.36,1.95-.94,2.6-1.63"/>
      <path class="cls-9" d="M151.68,28.98c.25-.32.48-.66.68-.99M144.41,31.31c.52.13,1.07.19,1.65.19.43,0,.82-.02,1.2-.07M139.58,22.27c-.08.52-.12,1.08-.12,1.66s.04,1.13.12,1.66M147.7,16.57c-.52-.14-1.07-.21-1.65-.21s-1.13.06-1.65.19M152.55,24.11c0-.58-.04-1.13-.12-1.66"/>
    </g>
    <line class="cls-7" x1="89.59" y1="32" x2="89.59" y2="17.38"/>
    <g class="cls-32">
      <path class="cls-30" d="M89.59,19.38c1.1,0,2-.89,2-2s-.9-2-2-2-2,.9-2,2,.89,2,2,2"/>
      <line class="cls-15" x1="101.35" y1="28.63" x2="101.35" y2="24.76"/>
      <path class="cls-17" d="M100.93,19.54c-.34-.99-.95-2-2.04-2.56"/>
      <path class="cls-20" d="M93.77,17.1c-1.27.5-2.28,1.25-3.07,2.01"/>
      <path class="cls-9" d="M90.07,19.75c-.35.39-.65.75-.91,1.06M98.16,16.69c-.38-.1-.8-.16-1.27-.16s-.95.04-1.39.11M101.35,23.81v-1.45s.03-.54-.07-1.28M101.35,32v-1.46"/>
      <line class="cls-15" x1="114.93" y1="28.63" x2="114.93" y2="24.76"/>
      <path class="cls-17" d="M114.51,19.54c-.34-.99-.95-2-2.04-2.56"/>
      <path class="cls-14" d="M106.97,17.22c-1.43.59-2.55,1.47-3.36,2.28"/>
      <path class="cls-9" d="M102.92,20.26c-.6.71-.9,1.24-.9,1.24M111.74,16.69c-.38-.1-.8-.16-1.27-.16-.53,0-1.04.05-1.52.13M114.93,23.81v-1.45s.03-.54-.07-1.28M114.93,32v-1.46"/>
      <line class="cls-8" x1="38.55" y1="16.9" x2="38.55" y2="46.89"/>
      <path class="cls-30" d="M38.55,14.9c1.1,0,2,.9,2,2s-.9,2-2,2-2-.89-2-2,.89-2,2-2"/>
      <path class="cls-2" d="M40.1,18.11c.98-1.05,2.09-1.89,3.35-2.35"/>
      <path class="cls-27" d="M49.57,16.77c1.13.85,2.04,2.05,2.54,3.48"/>
      <path class="cls-4" d="M51.68,26.96c-.76,1.54-1.94,2.6-3.24,3.2"/>
      <path class="cls-5" d="M42.29,29.93c-1.18-.61-2.11-1.52-2.94-2.56"/>
      <path class="cls-9" d="M38.76,26.59c-.29-.39-.57-.8-.85-1.2M47.29,30.56c-.56.14-1.14.2-1.7.18-.52-.02-1.01-.08-1.46-.17M52.41,21.33c.1.52.15,1.06.15,1.61,0,.6-.06,1.17-.15,1.71M44.46,15.49c.49-.09,1-.12,1.54-.08.54.04,1.08.15,1.59.32M37.95,21.02c.27-.44.55-.87.84-1.29"/>
    </g>
    <line class="cls-26" x1="156.87" y1="32" x2="156.87" y2="17.6"/>
    <g class="cls-28">
      <path class="cls-30" d="M156.87,19.6c1.1,0,2-.89,2-2s-.9-2-2-2-2,.9-2,2,.89,2,2,2"/>
      <path class="cls-16" d="M165,16.48s-5.92,1.7-8.86,5.53"/>
      <line class="cls-21" x1="61.26" y1="23.39" x2="61.26" y2="14"/>
      <path class="cls-9" d="M61.26,12.95v-1.56M61.6,28.97c-.36-1-.34-1.91-.34-1.91v-1.56M66.57,31.5h-1.23c-.77,0-1.39-.15-1.9-.39"/>
      <path class="cls-30" d="M61.26,13.39c1.1,0,2-.89,2-2s-.9-2-2-2-2,.9-2,2,.89,2,2,2"/>
    </g>
    <line class="cls-6" x1="67.2" y1="16.01" x2="54.99" y2="16.01"/>
  </g>
</svg>