<?xml version="1.0" encoding="UTF-8"?>
<svg id="Layer_2" data-name="Layer 2" xmlns="http://www.w3.org/2000/svg" xmlns:xlink="http://www.w3.org/1999/xlink" viewBox="0 0 107.78 45.48">
  <defs>
    <style>
      .cls-1 {
        stroke-dasharray: 2.41 1.41;
      }

      .cls-1, .cls-2, .cls-3, .cls-4, .cls-5, .cls-6, .cls-7, .cls-8, .cls-9, .cls-10, .cls-11, .cls-12, .cls-13, .cls-14, .cls-15, .cls-16, .cls-17, .cls-18, .cls-19 {
        fill: none;
      }

      .cls-1, .cls-2, .cls-3, .cls-4, .cls-5, .cls-7, .cls-8, .cls-9, .cls-10, .cls-11, .cls-12, .cls-13, .cls-14, .cls-15, .cls-16, .cls-17, .cls-18, .cls-19 {
        stroke: #231f20;
      }

      .cls-2 {
        stroke-dasharray: 2.94 1.94;
      }

      .cls-3 {
        stroke-dasharray: 3.26 2.26;
      }

      .cls-20 {
        fill: #231f20;
      }

      .cls-4 {
        stroke-dasharray: 2.92 1.92;
      }

      .cls-7 {
        stroke-dasharray: 3.04 2.04;
      }

      .cls-8 {
        stroke-dasharray: 3.09 2.09;
      }

      .cls-9 {
        stroke-dasharray: 3.19 2.19;
      }

      .cls-10 {
        stroke-dasharray: 2.87 1.87;
      }

      .cls-11 {
        stroke-dasharray: 2.77 1.77;
      }

      .cls-21 {
        clip-path: url(#clippath-1);
      }

      .cls-12 {
        stroke-dasharray: 2.65 1.65;
      }

      .cls-13 {
        stroke-dasharray: 2.94 1.94;
      }

      .cls-22 {
        clip-path: url(#clippath-3);
      }

      .cls-14 {
        stroke-dasharray: 2.62 1.62;
      }

      .cls-15 {
        stroke-dasharray: 3.2 2.2;
      }

      .cls-16 {
        stroke-dasharray: 3.39 2.39;
      }

      .cls-23 {
        clip-path: url(#clippath-2);
      }

      .cls-17 {
        stroke-dasharray: 2.84 1.84;
      }

      .cls-18 {
        stroke-dasharray: 2.65 1.65;
      }

      .cls-24 {
        clip-path: url(#clippath);
      }

      .cls-19 {
        stroke-dasharray: 2.94 1.94;
      }
    </style>
    <clipPath id="clippath">
      <rect class="cls-6" width="107.78" height="45.48"/>
    </clipPath>
    <clipPath id="clippath-1">
      <rect class="cls-6" width="107.78" height="45.48"/>
    </clipPath>
    <clipPath id="clippath-2">
      <rect class="cls-6" width="107.78" height="45.48"/>
    </clipPath>
    <clipPath id="clippath-3">
      <rect class="cls-6" width="107.78" height="45.48"/>
    </clipPath>
  </defs>
  <g id="Layer_1-2" data-name="Layer 1">
    <g class="cls-24">
      <line class="cls-4" x1=".48" y1="32.38" x2="10.26" y2="2"/>
      <path class="cls-20" d="M10.26,4c1.1,0,2-.89,2-2S11.37,0,10.26,0s-2,.9-2,2,.89,2,2,2"/>
    </g>
    <line class="cls-15" x1="20.62" y1="32.26" x2="10.78" y2="3.68"/>
    <line class="cls-12" x1="18.08" y1="24.06" x2="2.56" y2="24.06"/>
    <g class="cls-21">
      <path class="cls-8" d="M43.72,42.88c.9.76,2.11,1.48,3.66,1.84"/>
      <path class="cls-14" d="M52.82,44.43c2.92-1.17,3.98-3.94,4.37-5.89"/>
      <line class="cls-11" x1="57.4" y1="33.29" x2="57.4" y2="16.01"/>
      <path class="cls-5" d="M57.4,15.12v-1.39M57.31,37.75c.1-.78.09-1.3.09-1.3v-1.39M48.42,44.91c.49.06,1,.09,1.54.07.46-.01.9-.05,1.3-.12M41.48,40.05s.25.57.81,1.31"/>
      <path class="cls-2" d="M53.64,17.59c-1.11-.74-2.25-1.12-3.68-1.15"/>
      <path class="cls-9" d="M44.16,18.23c-1.14,1.07-1.74,2.47-2.06,3.7"/>
      <path class="cls-16" d="M42.7,28.54c.59,1.29,1.54,2.57,3.07,3.28"/>
      <path class="cls-7" d="M52.06,31.78c1.47-.55,2.59-1.38,3.42-2.15"/>
      <path class="cls-5" d="M56.2,28.91c.49-.53.82-.97,1-1.15M46.89,32.21c.51.12,1.07.19,1.68.19.53,0,1.04-.04,1.52-.11M41.89,23c-.11.74-.12,1.32-.12,1.59s.04.89.2,1.68M48.99,16.45c-.45.03-.94.09-1.46.18-.56.09-1.07.24-1.53.43M56.2,19.84c-.36-.38-.71-.72-1.04-1.04"/>
      <path class="cls-20" d="M56.2,21.84c1.1,0,2-.89,2-2s-.9-2-2-2-2,.9-2,2,.89,2,2,2"/>
      <path class="cls-1" d="M83.41,22.28c.62.49,1.5,1,2.74,1.46"/>
      <path class="cls-5" d="M82.86,30.51c-.48-.47-.88-1.03-1.14-1.68M89.42,32.02c-.61.23-1.27.36-1.91.36s-1.34-.11-2.01-.31M91.65,26.68c.34.49.55,1.05.55,1.7,0,.7-.2,1.33-.53,1.86M86.82,23.97c.36.12.74.23,1.16.34,0,0,.78.22,1.67.7M82.12,18.23c-.4,1-.22,1.97-.22,1.97,0,0,.04.45.51,1.08M87.92,16.2c-.47-.08-1.01-.12-1.62-.12-.79,0-1.44.1-1.98.26M91.18,18.07s-.25-.6-1.14-1.14"/>
      <path class="cls-20" d="M91.18,20.07c1.1,0,2-.89,2-2s-.9-2-2-2-2,.9-2,2,.89,2,2,2"/>
      <path class="cls-18" d="M103.16,31.26c-.81-.86-1.22-2.08-1.43-3.12"/>
      <line class="cls-17" x1="101.51" y1="22.74" x2="101.51" y2="4.96"/>
      <path class="cls-5" d="M101.51,4.04v-1.42M101.59,27.32c-.1-.77-.08-1.32-.08-1.32v-1.42M107.12,32.37h-1.3c-.49,0-.92-.08-1.3-.21"/>
      <path class="cls-20" d="M101.51,4.62c1.1,0,2-.89,2-2s-.9-2-2-2-2,.9-2,2,.89,2,2,2"/>
      <line class="cls-13" x1="107.78" y1="9.96" x2="95.07" y2="9.96"/>
    </g>
    <line class="cls-19" x1="37.07" y1="15.28" x2="37.07" y2="32.87"/>
    <g class="cls-23">
      <path class="cls-3" d="M25.21,28.21c.5,1.78,1.37,2.88,2.49,3.46"/>
      <path class="cls-10" d="M33.42,31.04c.95-.71,1.77-1.69,2.54-2.82"/>
      <path class="cls-5" d="M36.47,27.44c.25-.4.5-.81.74-1.23M28.75,32.05c.51.12,1.05.16,1.62.13.5-.02.97-.12,1.41-.27M24.76,22.34v2.02c0,.58.02,1.12.07,1.63M24.76,17.28v2.02"/>
      <path class="cls-20" d="M24.76,15.28c-1.11,0-2,.9-2,2s.89,2,2,2,2-.89,2-2-.9-2-2-2"/>
    </g>
    <line class="cls-19" x1="76.03" y1="15.28" x2="76.03" y2="32.87"/>
    <g class="cls-22">
      <path class="cls-3" d="M64.17,28.21c.5,1.78,1.37,2.88,2.49,3.46"/>
      <path class="cls-10" d="M72.39,31.04c.95-.71,1.77-1.69,2.54-2.82"/>
      <path class="cls-5" d="M75.43,27.44c.25-.4.5-.81.74-1.23M67.72,32.05c.51.12,1.05.16,1.62.13.5-.02.97-.12,1.41-.27M63.73,22.34v2.02c0,.58.02,1.12.07,1.63M63.73,17.28v2.02"/>
      <path class="cls-20" d="M63.73,15.28c-1.11,0-2,.9-2,2s.89,2,2,2,2-.89,2-2-.9-2-2-2"/>
    </g>
  </g>
</svg>