<?xml version="1.0" encoding="UTF-8"?>
<svg id="Layer_2" data-name="Layer 2" xmlns="http://www.w3.org/2000/svg" xmlns:xlink="http://www.w3.org/1999/xlink" viewBox="0 0 159.83 32">
  <defs>
    <style>
      .cls-1 {
        stroke-dasharray: 3.09 2.09;
      }

      .cls-1, .cls-2, .cls-3, .cls-4, .cls-5, .cls-6, .cls-7, .cls-8, .cls-9, .cls-10, .cls-11, .cls-12, .cls-13, .cls-14, .cls-15, .cls-16, .cls-17, .cls-18, .cls-19, .cls-20, .cls-21, .cls-22, .cls-23, .cls-24, .cls-25, .cls-26, .cls-27 {
        fill: none;
      }

      .cls-1, .cls-2, .cls-3, .cls-4, .cls-5, .cls-6, .cls-7, .cls-8, .cls-9, .cls-11, .cls-12, .cls-13, .cls-14, .cls-15, .cls-16, .cls-17, .cls-18, .cls-19, .cls-20, .cls-21, .cls-22, .cls-23, .cls-24, .cls-25, .cls-26, .cls-27 {
        stroke: #231f20;
      }

      .cls-2 {
        stroke-dasharray: 3.32 2.32;
      }

      .cls-3 {
        stroke-dasharray: 3.43 2.43;
      }

      .cls-28 {
        fill: #231f20;
      }

      .cls-4 {
        stroke-dasharray: 3.43 2.43;
      }

      .cls-5 {
        stroke-dasharray: 2.95 1.95;
      }

      .cls-6 {
        stroke-dasharray: 3.32 2.32;
      }

      .cls-7 {
        stroke-dasharray: 3.18 2.18;
      }

      .cls-9 {
        stroke-dasharray: 2.96 1.96;
      }

      .cls-11 {
        stroke-dasharray: 2.91 1.91;
      }

      .cls-12 {
        stroke-dasharray: 3.32 2.32;
      }

      .cls-13 {
        stroke-dasharray: 3.42 2.42;
      }

      .cls-29 {
        clip-path: url(#clippath-1);
      }

      .cls-14 {
        stroke-dasharray: 3.06 2.06;
      }

      .cls-15 {
        stroke-dasharray: 2.91 1.91;
      }

      .cls-16 {
        stroke-dasharray: 2.52 1.52;
      }

      .cls-17 {
        stroke-dasharray: 2.78 1.78;
      }

      .cls-18 {
        stroke-dasharray: 2.57 1.57;
      }

      .cls-19 {
        stroke-dasharray: 2.79 1.79;
      }

      .cls-20 {
        stroke-dasharray: 3.33 2.33;
      }

      .cls-21 {
        stroke-dasharray: 2.91 1.91;
      }

      .cls-22 {
        stroke-dasharray: 3.33 2.33;
      }

      .cls-23 {
        stroke-dasharray: 3.18 2.18;
      }

      .cls-24 {
        stroke-dasharray: 3.39 2.39;
      }

      .cls-30 {
        clip-path: url(#clippath-2);
      }

      .cls-25 {
        stroke-dasharray: 2.4 1.4;
      }

      .cls-26 {
        stroke-dasharray: 3.28 2.28;
      }

      .cls-27 {
        stroke-dasharray: 3.25 2.25;
      }

      .cls-31 {
        clip-path: url(#clippath);
      }
    </style>
    <clipPath id="clippath">
      <rect class="cls-10" width="159.83" height="32"/>
    </clipPath>
    <clipPath id="clippath-1">
      <rect class="cls-10" width="159.83" height="32"/>
    </clipPath>
    <clipPath id="clippath-2">
      <rect class="cls-10" width="159.83" height="32"/>
    </clipPath>
  </defs>
  <g id="Layer_1-2" data-name="Layer 1">
    <g class="cls-31">
      <line class="cls-23" x1="2" y1="31.99" x2="2" y2="2"/>
      <path class="cls-28" d="M2,4c1.11,0,2-.89,2-2S3.11,0,2,0,0,.89,0,2s.89,2,2,2"/>
      <line class="cls-21" x1="21.51" y1=".11" x2="21.51" y2="32"/>
      <line class="cls-11" x1="2.16" y1=".54" x2="21.47" y2="31.64"/>
      <path class="cls-3" d="M29.98,17.47c-1.28.83-2.26,2.07-2.8,3.61"/>
      <path class="cls-13" d="M27.67,27.93c.76,1.38,1.94,2.44,3.39,3.03"/>
      <path class="cls-24" d="M37.8,30.43c1.26-.8,2.22-2.01,2.79-3.54"/>
      <path class="cls-8" d="M40.31,19.89c-.28-.54-.64-1.03-1.09-1.37M40.93,25.75c.12-.53.2-1.09.23-1.68.03-.45,0-1.08-.11-1.76M32.21,31.32c.54.12,1.11.18,1.7.18s1.15-.06,1.68-.17M26.86,22.25c-.1.54-.16,1.11-.16,1.71s.05,1.16.16,1.7M35.25,16.39c-.4-.03-.84-.04-1.34-.04-.59,0-1.16.06-1.7.19M38.03,17.45c-.4-.31-.77-.54-1.14-.7"/>
      <path class="cls-28" d="M38.03,19.45c1.1,0,2-.89,2-2s-.9-2-2-2-2,.89-2,2,.89,2,2,2"/>
      <line class="cls-7" x1="114.72" y1="32" x2="114.72" y2="2"/>
      <path class="cls-28" d="M114.72,4c1.1,0,2-.89,2-2S115.83,0,114.72,0s-2,.9-2,2,.89,2,2,2"/>
      <path class="cls-1" d="M116.27,28.78c.98,1.05,2.09,1.89,3.35,2.35"/>
      <path class="cls-27" d="M125.73,30.13c1.13-.85,2.04-2.05,2.54-3.48"/>
      <path class="cls-4" d="M127.84,19.94c-.76-1.53-1.94-2.6-3.24-3.2"/>
      <path class="cls-5" d="M118.46,16.97c-1.18.61-2.11,1.52-2.94,2.56"/>
      <path class="cls-8" d="M114.93,20.3c-.29.39-.57.8-.85,1.2M123.45,16.33c-.57-.14-1.14-.2-1.7-.18-.52.02-1.01.07-1.46.17M128.57,25.57c.1-.52.15-1.06.15-1.61,0-.61-.06-1.17-.15-1.71M120.63,31.4c.49.09,1,.12,1.54.08.54-.04,1.08-.15,1.59-.32M114.12,25.87c.27.44.55.87.84,1.29"/>
    </g>
    <line class="cls-9" x1="76.07" y1="23.73" x2="63.25" y2="23.73"/>
    <g class="cls-29">
      <path class="cls-28" d="M63.25,25.73c-1.11,0-2-.89-2-2s.89-2,2-2,2,.89,2,2-.89,2-2,2"/>
      <path class="cls-20" d="M75.05,20.22c-.66-1.48-1.71-2.59-3-3.23"/>
      <path class="cls-22" d="M65.57,17.5c-1.16.82-2.02,2.06-2.47,3.64"/>
      <path class="cls-12" d="M63.5,27.8c.67,1.45,1.74,2.52,3.08,3.13"/>
      <path class="cls-25" d="M71.89,31.14c1.12-.36,1.95-.94,2.6-1.63"/>
      <path class="cls-8" d="M74.95,28.98c.25-.32.48-.66.68-.99M67.67,31.31c.52.13,1.07.19,1.65.19.43,0,.82-.02,1.2-.07M62.84,22.27c-.08.52-.12,1.08-.12,1.66s.04,1.13.12,1.65M70.97,16.57c-.52-.14-1.07-.21-1.65-.21s-1.13.06-1.65.19M75.82,24.11c0-.58-.04-1.13-.12-1.66"/>
    </g>
    <line class="cls-9" x1="146.5" y1="23.73" x2="133.68" y2="23.73"/>
    <g class="cls-30">
      <path class="cls-28" d="M133.68,25.73c-1.11,0-2-.89-2-2s.89-2,2-2,2,.89,2,2-.9,2-2,2"/>
      <path class="cls-20" d="M145.48,20.22c-.66-1.48-1.71-2.59-3-3.23"/>
      <path class="cls-22" d="M135.99,17.5c-1.16.82-2.02,2.06-2.47,3.64"/>
      <path class="cls-12" d="M133.93,27.8c.67,1.45,1.74,2.52,3.08,3.13"/>
      <path class="cls-25" d="M142.32,31.14c1.12-.36,1.95-.94,2.6-1.63"/>
      <path class="cls-8" d="M145.37,28.98c.25-.32.48-.66.68-.99M138.1,31.31c.52.13,1.07.19,1.65.19.43,0,.82-.02,1.2-.07M133.27,22.27c-.08.52-.12,1.08-.12,1.66s.04,1.13.12,1.65M141.4,16.57c-.52-.14-1.07-.21-1.65-.21s-1.13.06-1.65.19M146.25,24.11c0-.58-.04-1.13-.12-1.66"/>
      <line class="cls-6" x1="82.28" y1="32" x2="82.28" y2="17.38"/>
      <path class="cls-28" d="M82.28,19.38c1.1,0,2-.89,2-2s-.9-2-2-2-2,.9-2,2,.89,2,2,2"/>
      <line class="cls-15" x1="94.04" y1="28.63" x2="94.04" y2="24.76"/>
      <path class="cls-18" d="M93.62,19.54c-.34-.99-.95-2-2.04-2.56"/>
      <path class="cls-19" d="M86.46,17.1c-1.27.5-2.28,1.25-3.07,2.01"/>
      <path class="cls-8" d="M82.77,19.75c-.35.39-.65.75-.91,1.06M90.85,16.69c-.38-.1-.8-.16-1.27-.16s-.95.04-1.39.11M94.04,23.81v-1.45s.03-.54-.07-1.28M94.04,32v-1.46"/>
      <line class="cls-15" x1="107.62" y1="28.63" x2="107.62" y2="24.76"/>
      <path class="cls-18" d="M107.2,19.54c-.34-.99-.95-2-2.04-2.56"/>
      <path class="cls-14" d="M99.67,17.22c-1.43.59-2.55,1.47-3.36,2.28"/>
      <path class="cls-8" d="M95.62,20.26c-.6.71-.9,1.24-.9,1.24M104.43,16.69c-.38-.1-.8-.16-1.27-.16-.53,0-1.04.05-1.52.13M107.62,23.81v-1.45s.03-.54-.07-1.28M107.62,32v-1.46"/>
      <line class="cls-26" x1="151.56" y1="32" x2="151.56" y2="17.6"/>
      <path class="cls-28" d="M151.56,19.6c1.1,0,2-.89,2-2s-.9-2-2-2-2,.9-2,2,.89,2,2,2"/>
      <path class="cls-16" d="M159.69,16.48s-5.92,1.7-8.86,5.53"/>
      <line class="cls-2" x1="47.03" y1="17.93" x2="51.41" y2="31.83"/>
      <path class="cls-28" d="M47.03,19.93c1.1,0,2-.9,2-2s-.9-2-2-2-2,.9-2,2,.89,2,2,2"/>
      <line class="cls-17" x1="52.36" y1="31.83" x2="58.03" y2="16.36"/>
    </g>
  </g>
</svg>