<?xml version="1.0" encoding="UTF-8"?>
<svg id="Layer_2" data-name="Layer 2" xmlns="http://www.w3.org/2000/svg" xmlns:xlink="http://www.w3.org/1999/xlink" viewBox="0 0 154.94 32">
  <defs>
    <style>
      .cls-1 {
        stroke-dasharray: 3.09 2.09;
      }

      .cls-1, .cls-2, .cls-3, .cls-4, .cls-5, .cls-6, .cls-7, .cls-8, .cls-9, .cls-10, .cls-11, .cls-12, .cls-13, .cls-14, .cls-15, .cls-16, .cls-17, .cls-18, .cls-19, .cls-20, .cls-21, .cls-22, .cls-23, .cls-24 {
        fill: none;
      }

      .cls-1, .cls-2, .cls-3, .cls-4, .cls-5, .cls-6, .cls-7, .cls-9, .cls-10, .cls-11, .cls-12, .cls-13, .cls-14, .cls-15, .cls-16, .cls-17, .cls-18, .cls-19, .cls-20, .cls-21, .cls-22, .cls-23, .cls-24 {
        stroke: #231f20;
      }

      .cls-25 {
        fill: #231f20;
      }

      .cls-2 {
        stroke-dasharray: 3.43 2.43;
      }

      .cls-3 {
        stroke-dasharray: 2.95 1.95;
      }

      .cls-4 {
        stroke-dasharray: 3.32 2.32;
      }

      .cls-5 {
        stroke-dasharray: 3.18 2.18;
      }

      .cls-7 {
        stroke-dasharray: 2.96 1.96;
      }

      .cls-9 {
        stroke-dasharray: 3.32 2.32;
      }

      .cls-10 {
        stroke-dasharray: 3.12 2.12;
      }

      .cls-26 {
        clip-path: url(#clippath-1);
      }

      .cls-11 {
        stroke-dasharray: 3.06 2.06;
      }

      .cls-12 {
        stroke-dasharray: 2.91 1.91;
      }

      .cls-13 {
        stroke-dasharray: 2.52 1.52;
      }

      .cls-14 {
        stroke-dasharray: 3.15 2.15;
      }

      .cls-15 {
        stroke-dasharray: 2.76 1.76;
      }

      .cls-16 {
        stroke-dasharray: 2.57 1.57;
      }

      .cls-27 {
        clip-path: url(#clippath-3);
      }

      .cls-17 {
        stroke-dasharray: 3.17 2.17;
      }

      .cls-18 {
        stroke-dasharray: 2.76 1.76;
      }

      .cls-19 {
        stroke-dasharray: 2.79 1.79;
      }

      .cls-20 {
        stroke-dasharray: 3.33 2.33;
      }

      .cls-21 {
        stroke-dasharray: 3.33 2.33;
      }

      .cls-28 {
        clip-path: url(#clippath-2);
      }

      .cls-22 {
        stroke-dasharray: 2.4 1.4;
      }

      .cls-23 {
        stroke-dasharray: 3.28 2.28;
      }

      .cls-24 {
        stroke-dasharray: 3.25 2.25;
      }

      .cls-29 {
        clip-path: url(#clippath);
      }
    </style>
    <clipPath id="clippath">
      <rect class="cls-8" width="154.94" height="32"/>
    </clipPath>
    <clipPath id="clippath-1">
      <rect class="cls-8" width="154.94" height="32"/>
    </clipPath>
    <clipPath id="clippath-2">
      <rect class="cls-8" width="154.94" height="32"/>
    </clipPath>
    <clipPath id="clippath-3">
      <rect class="cls-8" width="154.94" height="32"/>
    </clipPath>
  </defs>
  <g id="Layer_1-2" data-name="Layer 1">
    <g class="cls-29">
      <path class="cls-18" d="M12.27,31.15c5.52-1.28,9.14-6.04,9.8-12.69"/>
      <path class="cls-15" d="M21.96,13.09c-.93-6.54-4.81-11.06-10.56-11.98"/>
      <path class="cls-6" d="M4.37.93h-1.93M10.53.99c-.45-.04-.91-.07-1.38-.07h-1.93M22.14,17.59c.03-.45.04-.91.04-1.38s-.01-.93-.04-1.38M7.13,31.5h2.03c.47,0,.93-.02,1.38-.06M2.04,31.5h2.03"/>
      <line class="cls-10" x1="2" y1="31.34" x2="2" y2="2"/>
      <path class="cls-25" d="M2,4c1.11,0,2-.89,2-2S3.11,0,2,0,0,.89,0,2s.89,2,2,2"/>
      <path class="cls-14" d="M46.82,18.31c-1.1.77-1.92,1.94-2.36,3.42"/>
      <path class="cls-17" d="M44.83,27.99c.63,1.37,1.64,2.39,2.91,2.97"/>
      <path class="cls-6" d="M53.92,30.44c.44-.31.82-.68,1.15-1.1M48.77,31.31c.5.12,1.02.18,1.57.18s1.09-.06,1.59-.17M44.22,22.78c-.08.5-.12,1.02-.12,1.57s.04,1.08.12,1.58M51.91,17.44c-.47-.13-.99-.2-1.57-.2-.55,0-1.07.06-1.56.18M54.87,19.64c-.32-.44-.67-.83-1.06-1.17"/>
      <path class="cls-25" d="M54.87,21.64c1.1,0,2-.89,2-2s-.9-2-2-2-2,.9-2,2,.89,2,2,2"/>
      <line class="cls-5" x1="110.83" y1="32" x2="110.83" y2="2"/>
      <path class="cls-25" d="M110.83,4c1.1,0,2-.89,2-2S111.94,0,110.83,0s-2,.9-2,2,.89,2,2,2"/>
      <path class="cls-1" d="M112.38,28.78c.98,1.05,2.09,1.89,3.35,2.35"/>
      <path class="cls-24" d="M121.84,30.13c1.13-.85,2.04-2.05,2.54-3.48"/>
      <path class="cls-2" d="M123.95,19.94c-.76-1.53-1.94-2.6-3.24-3.2"/>
      <path class="cls-3" d="M114.57,16.97c-1.18.61-2.11,1.52-2.94,2.56"/>
      <path class="cls-6" d="M111.04,20.3c-.29.39-.57.8-.85,1.2M119.56,16.33c-.57-.14-1.14-.2-1.7-.18-.52.02-1.01.07-1.46.17M124.68,25.57c.1-.52.15-1.06.15-1.61,0-.61-.06-1.17-.15-1.71M116.74,31.4c.49.09,1,.12,1.54.08.54-.04,1.08-.15,1.59-.32M110.23,25.87c.27.44.55.87.84,1.29"/>
    </g>
    <line class="cls-7" x1="40.18" y1="23.73" x2="27.36" y2="23.73"/>
    <g class="cls-26">
      <path class="cls-25" d="M27.36,25.73c-1.11,0-2-.89-2-2s.89-2,2-2,2,.89,2,2-.9,2-2,2"/>
      <path class="cls-20" d="M39.16,20.22c-.66-1.48-1.71-2.59-3-3.23"/>
      <path class="cls-21" d="M29.68,17.5c-1.16.82-2.02,2.06-2.47,3.64"/>
      <path class="cls-9" d="M27.61,27.8c.67,1.45,1.74,2.52,3.08,3.13"/>
      <path class="cls-22" d="M36,31.14c1.12-.36,1.95-.94,2.6-1.63"/>
      <path class="cls-6" d="M39.06,28.98c.25-.32.48-.66.68-.99M31.78,31.31c.52.13,1.07.19,1.65.19.43,0,.82-.02,1.2-.07M26.95,22.27c-.08.52-.12,1.08-.12,1.66s.04,1.13.12,1.65M35.08,16.57c-.52-.14-1.07-.21-1.65-.21s-1.13.06-1.65.19M39.93,24.11c0-.58-.04-1.13-.12-1.66"/>
    </g>
    <line class="cls-7" x1="73.38" y1="23.73" x2="60.56" y2="23.73"/>
    <g class="cls-28">
      <path class="cls-25" d="M60.56,25.73c-1.11,0-2-.89-2-2s.89-2,2-2,2,.89,2,2-.9,2-2,2"/>
      <path class="cls-20" d="M72.36,20.22c-.66-1.48-1.71-2.59-3-3.23"/>
      <path class="cls-21" d="M62.87,17.5c-1.16.82-2.02,2.06-2.47,3.64"/>
      <path class="cls-9" d="M60.81,27.8c.67,1.45,1.74,2.52,3.08,3.13"/>
      <path class="cls-22" d="M69.19,31.14c1.12-.36,1.95-.94,2.6-1.63"/>
      <path class="cls-6" d="M72.25,28.98c.25-.32.48-.66.68-.99M64.98,31.31c.52.13,1.07.19,1.65.19.43,0,.82-.02,1.2-.07M60.15,22.27c-.08.52-.12,1.08-.12,1.66s.04,1.13.12,1.65M68.27,16.57c-.52-.14-1.07-.21-1.65-.21s-1.13.06-1.65.19M73.12,24.11c0-.58-.04-1.13-.12-1.66"/>
    </g>
    <line class="cls-7" x1="142.61" y1="23.73" x2="129.79" y2="23.73"/>
    <g class="cls-27">
      <path class="cls-25" d="M129.79,25.73c-1.11,0-2-.89-2-2s.89-2,2-2,2,.89,2,2-.9,2-2,2"/>
      <path class="cls-20" d="M141.59,20.22c-.66-1.48-1.71-2.59-3-3.23"/>
      <path class="cls-21" d="M132.1,17.5c-1.16.82-2.02,2.06-2.47,3.64"/>
      <path class="cls-9" d="M130.04,27.8c.67,1.45,1.74,2.52,3.08,3.13"/>
      <path class="cls-22" d="M138.43,31.14c1.12-.36,1.95-.94,2.6-1.63"/>
      <path class="cls-6" d="M141.48,28.98c.25-.32.48-.66.68-.99M134.21,31.31c.52.13,1.07.19,1.65.19.43,0,.82-.02,1.2-.07M129.38,22.27c-.08.52-.12,1.08-.12,1.66s.04,1.13.12,1.65M137.51,16.57c-.52-.14-1.07-.21-1.65-.21s-1.13.06-1.65.19M142.36,24.11c0-.58-.04-1.13-.12-1.66"/>
      <line class="cls-4" x1="79.39" y1="32" x2="79.39" y2="17.38"/>
      <path class="cls-25" d="M79.39,19.38c1.1,0,2-.89,2-2s-.9-2-2-2-2,.9-2,2,.89,2,2,2"/>
      <line class="cls-12" x1="91.15" y1="28.63" x2="91.15" y2="24.76"/>
      <path class="cls-16" d="M90.73,19.54c-.34-.99-.95-2-2.04-2.56"/>
      <path class="cls-19" d="M83.57,17.1c-1.27.5-2.28,1.25-3.07,2.01"/>
      <path class="cls-6" d="M79.88,19.75c-.35.39-.65.75-.91,1.06M87.96,16.69c-.38-.1-.8-.16-1.27-.16s-.95.04-1.39.11M91.15,23.81v-1.45s.03-.54-.07-1.28M91.15,32v-1.46"/>
      <line class="cls-12" x1="104.73" y1="28.63" x2="104.73" y2="24.76"/>
      <path class="cls-16" d="M104.31,19.54c-.34-.99-.95-2-2.04-2.56"/>
      <path class="cls-11" d="M96.78,17.22c-1.43.59-2.55,1.47-3.36,2.28"/>
      <path class="cls-6" d="M92.73,20.26c-.6.71-.9,1.24-.9,1.24M101.54,16.69c-.38-.1-.8-.16-1.27-.16-.53,0-1.04.05-1.52.13M104.73,23.81v-1.45s.03-.54-.07-1.28M104.73,32v-1.46"/>
      <line class="cls-23" x1="146.67" y1="32" x2="146.67" y2="17.6"/>
      <path class="cls-25" d="M146.67,19.6c1.1,0,2-.89,2-2s-.9-2-2-2-2,.9-2,2,.89,2,2,2"/>
      <path class="cls-13" d="M154.8,16.48s-5.92,1.7-8.86,5.53"/>
    </g>
  </g>
</svg>