<svg version="1.2" xmlns="http://www.w3.org/2000/svg" viewBox="0 0 33 23" width="33" height="23"><defs><clipPath clipPathUnits="userSpaceOnUse" id="cp1"><path d="m32.75 0v22.56h-32.75v-22.56z"/></clipPath><clipPath clipPathUnits="userSpaceOnUse" id="cp2"><path d="m32.75 0v22.56h-32.75v-22.56z"/></clipPath><clipPath clipPathUnits="userSpaceOnUse" id="cp3"><path d="m32.75 0v22.56h-32.75v-22.56z"/></clipPath></defs><style>.a{fill:none;stroke:#231f20;stroke-width:.5;stroke-dasharray:1.4308813851824118,0.9270499115266331}.b{fill:#231f20}.c{fill:none;stroke:#231f20;stroke-width:.5;stroke-dasharray:1.4863028472845476,0.9824713736287687}.d{fill:none;stroke:#231f20;stroke-width:.5;stroke-dasharray:1.5114944209673364,1.0076629473115577}.e{fill:none;stroke:#231f20;stroke-width:.5;stroke-dasharray:1.5417243093866833,1.0378928357309045}.f{fill:none;stroke:#231f20;stroke-width:.5;stroke-dasharray:1.4258430704458542,0.9220115967900754}.g{fill:none;stroke:#231f20;stroke-width:.5;stroke-dasharray:1.2998852020319094,0.7960537283761306}.h{fill:none;stroke:#231f20;stroke-width:.5;stroke-dasharray:1.5165327357038942,1.0127012620481153}.i{fill:none;stroke:#231f20;stroke-width:.5;stroke-dasharray:1.360344978870603,0.8565135052148241}.j{fill:none;stroke:#231f20;stroke-width:.5}.k{fill:none;stroke:#231f20;stroke-width:.5;stroke-dasharray:1.7331802693758793,1.2293487957201004}.l{fill:none;stroke:#231f20;stroke-width:.5;stroke-dasharray:1.4208047557092962,0.9169732820535176}</style><path fill-rule="evenodd" class="a" d="m1 16.5v-15.5"/><g clip-path="url(#cp1)"><path fill-rule="evenodd" class="b" d="m1 2c-0.5 0-1-0.4-1-1 0-0.6 0.5-1 1-1 0.6 0 1 0.4 1 1 0 0.6-0.4 1-1 1z"/><path fill-rule="evenodd" class="c" d="m14 16.5l-0.1-16.2"/><path fill-rule="evenodd" class="d" d="m1.4 0.4l6 15.4"/><path fill-rule="evenodd" class="e" d="m14 0.2l-6.6 15.7"/></g><path fill-rule="evenodd" class="f" d="m23.1 16.5v-8.4"/><g clip-path="url(#cp2)"><path fill-rule="evenodd" class="g" d="m21.4 9.7c-0.5-0.3-1-0.4-1.6-0.4"/><path fill-rule="evenodd" class="a" d="m17.3 10c-0.6 0.5-0.8 1.1-1 1.7"/><path fill-rule="evenodd" class="h" d="m16.6 14.5c0.3 0.6 0.7 1.1 1.4 1.5"/><path fill-rule="evenodd" class="i" d="m20.7 15.9c0.7-0.2 1.2-0.6 1.5-0.9"/><path fill-rule="evenodd" class="j" d="m22.5 14.7q0.4-0.4 0.5-0.5m-4.6 1.9q0.4 0.1 0.8 0.1 0.3 0 0.7 0m-3.6-4.1c-0.1 0.3-0.1 0.6-0.1 0.7 0 0.1 0 0.4 0.1 0.8m3.1-4.3q-0.3 0-0.7 0.1-0.3 0-0.7 0.2m4.5 1.1q-0.3-0.3-0.5-0.5"/><path fill-rule="evenodd" class="b" d="m22.5 11.7c-0.6 0-1-0.5-1-1 0-0.6 0.4-1 1-1 0.5 0 1 0.4 1 1 0 0.5-0.5 1-1 1z"/></g><path fill-rule="evenodd" class="k" d="m26.6 8.9l2.4 7.3"/><g clip-path="url(#cp3)"><path fill-rule="evenodd" class="b" d="m26.6 9.9c-0.6 0-1-0.4-1-1 0-0.5 0.4-1 1-1 0.5 0 1 0.5 1 1 0 0.6-0.5 1-1 1z"/><path fill-rule="evenodd" class="l" d="m32.5 8.2l-5.7 14.3"/></g></svg>