<?xml version="1.0" encoding="UTF-8"?>
<svg id="Layer_2" data-name="Layer 2" xmlns="http://www.w3.org/2000/svg" xmlns:xlink="http://www.w3.org/1999/xlink" viewBox="0 0 70.19 32">
  <defs>
    <style>
      .cls-1 {
        stroke-dasharray: 2.51 1.51;
      }

      .cls-1, .cls-2, .cls-3, .cls-4, .cls-5, .cls-6, .cls-7, .cls-8, .cls-9, .cls-10, .cls-11, .cls-12, .cls-13, .cls-14, .cls-15, .cls-16, .cls-17 {
        fill: none;
      }

      .cls-1, .cls-2, .cls-3, .cls-4, .cls-5, .cls-6, .cls-8, .cls-9, .cls-10, .cls-11, .cls-12, .cls-13, .cls-14, .cls-15, .cls-16, .cls-17 {
        stroke: #231f20;
      }

      .cls-2 {
        stroke-dasharray: 3.29 2.29;
      }

      .cls-3 {
        stroke-dasharray: 3.49 2.49;
      }

      .cls-18 {
        fill: #231f20;
      }

      .cls-4 {
        stroke-dasharray: 3.5 2.5;
      }

      .cls-5 {
        stroke-dasharray: 2.76 1.76;
      }

      .cls-8 {
        stroke-dasharray: 3.08 2.08;
      }

      .cls-9 {
        stroke-dasharray: 3.36 2.36;
      }

      .cls-10 {
        stroke-dasharray: 2.97 1.97;
      }

      .cls-11 {
        stroke-dasharray: 3.49 2.49;
      }

      .cls-12 {
        stroke-dasharray: 3.49 2.49;
      }

      .cls-13 {
        stroke-dasharray: 3.34 2.34;
      }

      .cls-14 {
        stroke-dasharray: 3.12 2.12;
      }

      .cls-15 {
        stroke-dasharray: 2.64 1.64;
      }

      .cls-19 {
        clip-path: url(#clippath);
      }

      .cls-16 {
        stroke-dasharray: 2.97 1.97;
      }

      .cls-17 {
        stroke-dasharray: 2.9 1.9;
      }
    </style>
    <clipPath id="clippath">
      <rect class="cls-7" width="70.19" height="32"/>
    </clipPath>
  </defs>
  <g id="Layer_1-2" data-name="Layer 1">
    <g class="cls-19">
      <path class="cls-9" d="M1.73,27.87c.67,1.21,1.68,2.4,3.23,3.07"/>
      <path class="cls-12" d="M11.52,29.88c1.07-1.2,1.61-2.86,1.88-4.29"/>
      <line class="cls-8" x1="13.68" y1="18.99" x2="13.68" y2="4.58"/>
      <path class="cls-6" d="M13.68,3.54v-1.54M13.59,24.35c.11-1.03.09-1.74.09-1.74v-1.54M6.08,31.31c.51.12,1.06.19,1.67.19.64,0,1.21-.09,1.72-.26M.5,24.04s.06.69.34,1.64"/>
      <path class="cls-18" d="M13.68,4c1.1,0,2-.89,2-2S14.78,0,13.68,0s-2,.9-2,2,.89,2,2,2"/>
      <line class="cls-14" x1="69.93" y1="23.27" x2="56.31" y2="23.27"/>
      <path class="cls-18" d="M56.31,25.27c-1.11,0-2-.89-2-2s.89-2,2-2,2,.89,2,2-.9,2-2,2"/>
      <path class="cls-4" d="M68.87,19.55c-.7-1.56-1.8-2.73-3.17-3.4"/>
      <path class="cls-11" d="M58.83,16.69c-1.22.87-2.12,2.18-2.61,3.84"/>
      <path class="cls-3" d="M56.66,27.6c.71,1.53,1.84,2.66,3.25,3.29"/>
      <path class="cls-1" d="M65.54,31.11c1.18-.38,2.05-1,2.74-1.72"/>
      <path class="cls-6" d="M68.78,28.82c.26-.34.5-.69.71-1.03M61.09,31.3c.55.13,1.12.2,1.73.2.45,0,.86-.03,1.25-.07M55.95,21.75c-.08.55-.13,1.13-.13,1.74s.05,1.19.13,1.74M64.54,15.71c-.55-.15-1.13-.22-1.73-.22s-1.18.07-1.73.2M69.69,23.68c0-.61-.04-1.19-.13-1.74"/>
      <line class="cls-15" x1="38.71" y1="32" x2="38.71" y2="16.5"/>
      <path class="cls-18" d="M38.71,18.5c1.1,0,2-.89,2-2s-.9-2-2-2-2,.9-2,2,.89,2,2,2"/>
      <line class="cls-5" x1="51.42" y1="28.79" x2="51.42" y2="25.15"/>
      <path class="cls-13" d="M50.9,18.94c-.56-1.76-1.54-2.83-2.77-3.38"/>
      <path class="cls-16" d="M42.13,16.2c-1.03.7-1.94,1.68-2.77,2.8"/>
      <path class="cls-6" d="M38.79,19.81c-.28.4-.55.82-.81,1.24M47.02,15.22c-.53-.1-1.08-.14-1.66-.11-.51.02-1,.11-1.46.25M51.42,24.27v-1.38c0-.59-.03-1.15-.08-1.67M51.42,31.94v-1.38"/>
      <line class="cls-10" x1="32.16" y1="14.19" x2="32.16" y2="32"/>
      <path class="cls-2" d="M20.14,27.29c.5,1.8,1.39,2.91,2.52,3.5"/>
      <path class="cls-17" d="M28.47,30.15c.96-.71,1.79-1.71,2.57-2.85"/>
      <path class="cls-6" d="M31.56,26.5c.25-.4.5-.82.75-1.24M23.74,31.18c.52.12,1.07.16,1.64.13.5-.03.98-.12,1.42-.27M19.68,21.34v2.05c0,.59.02,1.13.07,1.64M19.68,16.19v2.05"/>
      <path class="cls-18" d="M19.68,14.19c-1.11,0-2,.9-2,2s.89,2,2,2,2-.89,2-2-.9-2-2-2"/>
    </g>
  </g>
</svg>