<?xml version="1.0" encoding="UTF-8"?>
<svg id="Layer_2" data-name="Layer 2" xmlns="http://www.w3.org/2000/svg" xmlns:xlink="http://www.w3.org/1999/xlink" viewBox="0 0 56.95 41.23">
  <defs>
    <style>
      .cls-1 {
        stroke-dasharray: 3.01 2.01;
      }

      .cls-1, .cls-2, .cls-3, .cls-4, .cls-5, .cls-6, .cls-7, .cls-8, .cls-9, .cls-10, .cls-11 {
        fill: none;
      }

      .cls-1, .cls-2, .cls-3, .cls-4, .cls-6, .cls-7, .cls-8, .cls-9, .cls-10, .cls-11 {
        stroke: #231f20;
      }

      .cls-2 {
        stroke-dasharray: 2.84 1.84;
      }

      .cls-3 {
        stroke-dasharray: 3.3 2.3;
      }

      .cls-12 {
        fill: #231f20;
      }

      .cls-6 {
        stroke-dasharray: 3.38 2.38;
      }

      .cls-13 {
        clip-path: url(#clippath-1);
      }

      .cls-7 {
        stroke-dasharray: 2.76 1.76;
      }

      .cls-8 {
        stroke-dasharray: 2.84 1.84;
      }

      .cls-14 {
        clip-path: url(#clippath-2);
      }

      .cls-9 {
        stroke-dasharray: 2.82 1.82;
      }

      .cls-15 {
        clip-path: url(#clippath);
      }

      .cls-10 {
        stroke-dasharray: 3.13 2.13;
      }

      .cls-11 {
        stroke-dasharray: 3.44 2.44;
      }
    </style>
    <clipPath id="clippath">
      <rect class="cls-5" width="56.95" height="41.23"/>
    </clipPath>
    <clipPath id="clippath-1">
      <rect class="cls-5" width="56.95" height="41.23"/>
    </clipPath>
    <clipPath id="clippath-2">
      <rect class="cls-5" width="56.95" height="41.23"/>
    </clipPath>
  </defs>
  <g id="Layer_1-2" data-name="Layer 1">
    <line class="cls-1" x1="37.81" y1="30.11" x2="37.81" y2="2"/>
    <g class="cls-15">
      <path class="cls-12" d="M37.81,4c1.1,0,2-.89,2-2S38.91,0,37.81,0s-2,.9-2,2,.89,2,2,2"/>
      <path class="cls-3" d="M1.87,25.73c.71,1.09,1.79,2.15,3.41,2.73"/>
      <path class="cls-6" d="M11.76,27.58c1.19-1.07,1.79-2.63,2.1-3.98"/>
      <line class="cls-8" x1="14.18" y1="17.48" x2="14.18" y2="4.34"/>
      <path class="cls-4" d="M14.18,3.42v-1.42M14.07,22.43c.13-.99.11-1.69.11-1.69v-1.42M6.38,28.75c.5.1,1.05.15,1.64.16.62,0,1.17-.07,1.67-.2M.5,22.06s.07.68.38,1.6"/>
      <path class="cls-12" d="M14.18,4c1.1,0,2-.89,2-2S15.28,0,14.18,0s-2,.9-2,2,.89,2,2,2"/>
    </g>
    <line class="cls-2" x1="31.86" y1="11.33" x2="31.86" y2="28.19"/>
    <g class="cls-13">
      <path class="cls-10" d="M20.59,23.68c.47,1.71,1.3,2.77,2.36,3.33"/>
      <path class="cls-7" d="M28.4,26.42c.9-.68,1.69-1.62,2.42-2.7"/>
      <path class="cls-4" d="M31.3,22.98c.24-.39.47-.78.71-1.19M23.95,27.38c.49.12,1.01.15,1.56.13.48-.02.93-.11,1.35-.26M20.17,18.1v1.92c0,.56.02,1.08.06,1.56M20.17,13.33v1.92"/>
      <path class="cls-12" d="M20.17,11.33c-1.11,0-2,.9-2,2s.89,2,2,2,2-.89,2-2-.9-2-2-2"/>
    </g>
    <line class="cls-11" x1="44.81" y1="13.97" x2="49.58" y2="28.41"/>
    <g class="cls-14">
      <path class="cls-12" d="M44.81,15.97c1.1,0,2-.9,2-2s-.9-2-2-2-2,.9-2,2,.89,2,2,2"/>
      <line class="cls-9" x1="56.48" y1="12.48" x2="45.27" y2="41.05"/>
    </g>
  </g>
</svg>