<?xml version="1.0" encoding="UTF-8"?>
<svg id="Layer_2" data-name="Layer 2" xmlns="http://www.w3.org/2000/svg" xmlns:xlink="http://www.w3.org/1999/xlink" viewBox="0 0 122.79 44.57">
  <defs>
    <style>
      .cls-1 {
        clip-path: url(#clippath-6);
      }

      .cls-2 {
        clip-path: url(#clippath-4);
      }

      .cls-3 {
        stroke-dasharray: 2.84 1.84;
      }

      .cls-3, .cls-4, .cls-5, .cls-6, .cls-7, .cls-8, .cls-9, .cls-10, .cls-11, .cls-12, .cls-13, .cls-14, .cls-15, .cls-16, .cls-17, .cls-18, .cls-19, .cls-20, .cls-21, .cls-22 {
        fill: none;
      }

      .cls-3, .cls-4, .cls-5, .cls-6, .cls-7, .cls-9, .cls-10, .cls-11, .cls-12, .cls-13, .cls-14, .cls-15, .cls-16, .cls-17, .cls-18, .cls-19, .cls-20, .cls-21, .cls-22 {
        stroke: #231f20;
      }

      .cls-4 {
        stroke-dasharray: 3.32 2.32;
      }

      .cls-5 {
        stroke-dasharray: 3 2;
      }

      .cls-23 {
        fill: #231f20;
      }

      .cls-7 {
        stroke-dasharray: 2.52 1.51;
      }

      .cls-24 {
        clip-path: url(#clippath-1);
      }

      .cls-9 {
        stroke-dasharray: 3.2 2.2;
      }

      .cls-10 {
        stroke-dasharray: 2.6 1.6;
      }

      .cls-25 {
        clip-path: url(#clippath-5);
      }

      .cls-11 {
        stroke-dasharray: 3.27 2.27;
      }

      .cls-26 {
        clip-path: url(#clippath-3);
      }

      .cls-12 {
        stroke-dasharray: 2.76 1.76;
      }

      .cls-13 {
        stroke-dasharray: 3.02 2.02;
      }

      .cls-14 {
        stroke-dasharray: 2.88 1.88;
      }

      .cls-15 {
        stroke-dasharray: 2.64 1.64;
      }

      .cls-16 {
        stroke-dasharray: 3.18 2.18;
      }

      .cls-17 {
        stroke-dasharray: 2.84 1.84;
      }

      .cls-27 {
        clip-path: url(#clippath-2);
      }

      .cls-18 {
        stroke-dasharray: 2.82 1.82;
      }

      .cls-19 {
        stroke-dasharray: 3.54 2.54;
      }

      .cls-28 {
        clip-path: url(#clippath);
      }

      .cls-20 {
        stroke-dasharray: 3.13 2.13;
      }

      .cls-21 {
        stroke-dasharray: 3.44 2.44;
      }

      .cls-22 {
        stroke-dasharray: 3.14 2.14;
      }
    </style>
    <clipPath id="clippath">
      <rect class="cls-8" width="122.79" height="44.57"/>
    </clipPath>
    <clipPath id="clippath-1">
      <rect class="cls-8" width="122.79" height="44.57"/>
    </clipPath>
    <clipPath id="clippath-2">
      <rect class="cls-8" width="122.79" height="44.57"/>
    </clipPath>
    <clipPath id="clippath-3">
      <rect class="cls-8" width="122.79" height="44.57"/>
    </clipPath>
    <clipPath id="clippath-4">
      <rect class="cls-8" width="122.79" height="44.57"/>
    </clipPath>
    <clipPath id="clippath-5">
      <rect class="cls-8" width="122.79" height="44.57"/>
    </clipPath>
    <clipPath id="clippath-6">
      <rect class="cls-8" width="122.79" height="44.57"/>
    </clipPath>
  </defs>
  <g id="Layer_1-2" data-name="Layer 1">
    <g class="cls-28">
      <path class="cls-19" d="M1.92,28.65c.75,1.22,1.88,2.41,3.59,3.07"/>
      <path class="cls-10" d="M11.28,31.62c2.47-1.3,3.31-4.32,3.59-6.38"/>
      <line class="cls-22" x1="15.02" y1="19.43" x2="15.02" y2="4.64"/>
      <path class="cls-6" d="M15.02,3.57v-1.57M14.96,24.45c.07-.78.05-1.3.05-1.3v-1.57M6.72,32.07c.54.11,1.12.17,1.76.18.46,0,.89-.03,1.29-.11M.5,24.61s.07.72.38,1.73"/>
      <path class="cls-23" d="M15.02,4c1.1,0,2-.89,2-2S16.12,0,15.02,0s-2,.9-2,2,.89,2,2,2"/>
    </g>
    <line class="cls-5" x1="34.69" y1="32.68" x2="34.69" y2="14.67"/>
    <g class="cls-24">
      <path class="cls-12" d="M31.13,18.28c-1.04-.69-2.09-1.03-3.43-1.05"/>
      <path class="cls-13" d="M22.31,18.91c-1.08,1-1.64,2.32-1.93,3.47"/>
      <path class="cls-9" d="M20.93,28.55c.55,1.21,1.44,2.41,2.87,3.08"/>
      <path class="cls-14" d="M29.67,31.6c1.38-.51,2.43-1.29,3.21-2.02"/>
      <path class="cls-6" d="M33.54,28.92c.47-.51.77-.92.94-1.09M24.84,32c.48.12,1.01.18,1.59.18.5,0,.98-.04,1.43-.11M20.19,23.37c-.1.7-.12,1.25-.12,1.5s.04.84.19,1.59M26.82,17.25c-.42.03-.88.09-1.37.17-.53.09-1.02.23-1.45.41M33.48,20.36c-.34-.36-.66-.68-.98-.97"/>
      <path class="cls-23" d="M33.48,22.36c1.1,0,2-.89,2-2s-.9-2-2-2-2,.9-2,2,.89,2,2,2"/>
    </g>
    <line class="cls-5" x1="90.38" y1="32.68" x2="90.38" y2="14.67"/>
    <g class="cls-27">
      <path class="cls-12" d="M86.82,18.28c-1.04-.69-2.09-1.03-3.43-1.05"/>
      <path class="cls-13" d="M78,18.91c-1.08,1-1.64,2.32-1.93,3.47"/>
      <path class="cls-9" d="M76.62,28.55c.55,1.21,1.44,2.41,2.87,3.08"/>
      <path class="cls-14" d="M85.36,31.6c1.38-.51,2.43-1.29,3.21-2.02"/>
      <path class="cls-6" d="M89.22,28.92c.46-.51.77-.92.94-1.09M80.52,32c.48.12,1.01.18,1.59.18.5,0,.98-.04,1.43-.11M75.87,23.37c-.1.7-.12,1.25-.12,1.5s.04.84.19,1.59M82.51,17.25c-.42.03-.88.09-1.37.17-.53.09-1.02.23-1.45.41M89.17,20.36c-.34-.36-.66-.68-.98-.97"/>
      <path class="cls-23" d="M89.17,22.36c1.1,0,2-.89,2-2s-.9-2-2-2-2,.9-2,2,.89,2,2,2"/>
    </g>
    <line class="cls-4" x1="41.33" y1="32.8" x2="41.33" y2="18.23"/>
    <g class="cls-26">
      <path class="cls-23" d="M41.33,20.23c1.1,0,2-.89,2-2s-.9-2-2-2-2,.9-2,2,.89,2,2,2"/>
      <line class="cls-15" x1="53.24" y1="29.79" x2="53.24" y2="26.33"/>
      <path class="cls-16" d="M52.75,20.47c-.53-1.67-1.45-2.68-2.61-3.21"/>
      <path class="cls-17" d="M44.48,17.86c-.98.66-1.83,1.59-2.62,2.66"/>
      <path class="cls-6" d="M41.32,21.27c-.26.39-.52.78-.77,1.19M49.1,16.94c-.5-.1-1.03-.13-1.58-.11-.49.02-.95.1-1.39.24M53.24,25.51v-1.32c0-.57-.03-1.1-.07-1.59M53.24,32.74v-1.32"/>
    </g>
    <line class="cls-11" x1="97.09" y1="32.23" x2="97.09" y2="17.86"/>
    <g class="cls-2">
      <path class="cls-23" d="M97.09,19.86c1.1,0,2-.89,2-2s-.9-2-2-2-2,.9-2,2,.89,2,2,2"/>
      <path class="cls-7" d="M105.21,16.74s-5.91,1.7-8.84,5.52"/>
    </g>
    <line class="cls-3" x1="70.7" y1="14.67" x2="70.7" y2="31.53"/>
    <g class="cls-25">
      <path class="cls-20" d="M59.43,27.03c.47,1.71,1.3,2.77,2.36,3.33"/>
      <path class="cls-12" d="M67.24,29.76c.9-.68,1.69-1.62,2.42-2.7"/>
      <path class="cls-6" d="M70.13,26.32c.24-.39.47-.78.71-1.19M62.79,30.72c.49.12,1.01.15,1.56.13.48-.02.93-.11,1.35-.26M59.01,21.44v1.92c0,.56.02,1.08.06,1.56M59.01,16.67v1.92"/>
      <path class="cls-23" d="M59.01,14.67c-1.11,0-2,.9-2,2s.89,2,2,2,2-.89,2-2-.9-2-2-2"/>
    </g>
    <line class="cls-21" x1="110.65" y1="17.31" x2="115.42" y2="31.75"/>
    <g class="cls-1">
      <path class="cls-23" d="M110.65,19.31c1.1,0,2-.9,2-2s-.9-2-2-2-2,.9-2,2,.89,2,2,2"/>
      <line class="cls-18" x1="122.32" y1="15.83" x2="111.11" y2="44.39"/>
    </g>
  </g>
</svg>