<?xml version="1.0" encoding="UTF-8"?>
<svg id="Layer_2" data-name="Layer 2" xmlns="http://www.w3.org/2000/svg" xmlns:xlink="http://www.w3.org/1999/xlink" viewBox="0 0 71.61 45.53">
  <defs>
    <style>
      .cls-1 {
        stroke-dasharray: 3.01 2.01;
      }

      .cls-1, .cls-2, .cls-3, .cls-4, .cls-5, .cls-6, .cls-7, .cls-8, .cls-9, .cls-10, .cls-11, .cls-12, .cls-13, .cls-14 {
        fill: none;
      }

      .cls-1, .cls-2, .cls-3, .cls-4, .cls-5, .cls-6, .cls-7, .cls-9, .cls-10, .cls-11, .cls-12, .cls-13, .cls-14 {
        stroke: #231f20;
      }

      .cls-2 {
        stroke-dasharray: 3.09 2.09;
      }

      .cls-3 {
        stroke-dasharray: 3.05 2.05;
      }

      .cls-15 {
        fill: #231f20;
      }

      .cls-4 {
        stroke-dasharray: 3.43 2.43;
      }

      .cls-5 {
        stroke-dasharray: 2.95 1.95;
      }

      .cls-6 {
        stroke-dasharray: 3.18 2.18;
      }

      .cls-16 {
        clip-path: url(#clippath-1);
      }

      .cls-9 {
        stroke-dasharray: 2.52 1.52;
      }

      .cls-10 {
        stroke-dasharray: 2.86 1.86;
      }

      .cls-17 {
        clip-path: url(#clippath-3);
      }

      .cls-11 {
        stroke-dasharray: 2.95 1.95;
      }

      .cls-12 {
        stroke-dasharray: 3.18 2.18;
      }

      .cls-18 {
        clip-path: url(#clippath-2);
      }

      .cls-13 {
        stroke-dasharray: 3.28 2.28;
      }

      .cls-14 {
        stroke-dasharray: 3.25 2.25;
      }

      .cls-19 {
        clip-path: url(#clippath);
      }
    </style>
    <clipPath id="clippath">
      <rect class="cls-8" width="71.61" height="45.53"/>
    </clipPath>
    <clipPath id="clippath-1">
      <rect class="cls-8" width="71.61" height="45.53"/>
    </clipPath>
    <clipPath id="clippath-2">
      <rect class="cls-8" width="71.61" height="45.53"/>
    </clipPath>
    <clipPath id="clippath-3">
      <rect class="cls-8" width="71.61" height="45.53"/>
    </clipPath>
  </defs>
  <g id="Layer_1-2" data-name="Layer 1">
    <g class="cls-19">
      <line class="cls-12" x1=".47" y1="29.92" x2="11.42" y2="2"/>
      <path class="cls-15" d="M11.42,4c1.1,0,2-.89,2-2s-.9-2-2-2-2,.9-2,2,.89,2,2,2"/>
    </g>
    <line class="cls-3" x1="22.63" y1="29.81" x2="11.74" y2="3.45"/>
    <line class="cls-10" x1="19.79" y1="22.25" x2="2.8" y2="22.25"/>
    <line class="cls-11" x1="61.81" y1="30.11" x2="61.81" y2="12.48"/>
    <g class="cls-16">
      <path class="cls-15" d="M61.92,7.77c.77,0,1.39-.62,1.39-1.39s-.62-1.39-1.39-1.39-1.39.62-1.39,1.39.62,1.39,1.39,1.39"/>
      <path class="cls-7" d="M61.92,7.77c.77,0,1.39-.62,1.39-1.39s-.62-1.39-1.39-1.39-1.39.62-1.39,1.39.62,1.39,1.39,1.39,1.39-.62,1.39-1.39-.62-1.39-1.39-1.39-1.39.62-1.39,1.39.62,1.39,1.39,1.39M61.92,7.77c.77,0,1.39-.62,1.39-1.39s-.62-1.39-1.39-1.39-1.39.62-1.39,1.39.62,1.39,1.39,1.39"/>
      <line class="cls-6" x1="28.51" y1="15.54" x2="28.51" y2="45.53"/>
      <path class="cls-15" d="M28.51,13.54c1.1,0,2,.9,2,2s-.9,2-2,2-2-.89-2-2,.89-2,2-2"/>
      <path class="cls-2" d="M30.06,16.75c.98-1.05,2.09-1.89,3.35-2.35"/>
      <path class="cls-14" d="M39.52,15.41c1.13.85,2.04,2.05,2.54,3.48"/>
      <path class="cls-4" d="M41.63,25.6c-.76,1.54-1.94,2.6-3.24,3.2"/>
      <path class="cls-5" d="M32.25,28.57c-1.18-.61-2.11-1.52-2.94-2.56"/>
      <path class="cls-7" d="M28.72,25.23c-.29-.39-.57-.8-.85-1.2M37.25,29.2c-.56.14-1.14.2-1.7.18-.52-.02-1.01-.08-1.46-.17M42.37,19.97c.1.52.15,1.06.15,1.61,0,.6-.06,1.17-.15,1.71M34.42,14.13c.49-.09,1-.12,1.54-.08.54.04,1.08.15,1.59.32M27.91,19.66c.27-.44.55-.87.84-1.29"/>
    </g>
    <line class="cls-13" x1="47.79" y1="30.11" x2="47.79" y2="15.71"/>
    <g class="cls-18">
      <path class="cls-15" d="M47.79,17.71c1.1,0,2-.89,2-2s-.9-2-2-2-2,.9-2,2,.89,2,2,2"/>
      <path class="cls-9" d="M55.92,14.59s-5.92,1.7-8.86,5.53"/>
    </g>
    <line class="cls-1" x1="69.61" y1="30.11" x2="69.61" y2="2"/>
    <g class="cls-17">
      <path class="cls-15" d="M69.61,4c1.1,0,2-.89,2-2s-.9-2-2-2-2,.9-2,2,.89,2,2,2"/>
    </g>
  </g>
</svg>