<?xml version="1.0" encoding="UTF-8"?>
<svg id="Layer_2" data-name="Layer 2" xmlns="http://www.w3.org/2000/svg" xmlns:xlink="http://www.w3.org/1999/xlink" viewBox="0 0 126.39 32.26">
  <defs>
    <style>
      .cls-1 {
        stroke-dasharray: 3.24 2.24;
      }

      .cls-1, .cls-2, .cls-3, .cls-4, .cls-5, .cls-6, .cls-7, .cls-8, .cls-9, .cls-10, .cls-11, .cls-12, .cls-13, .cls-14, .cls-15, .cls-16, .cls-17, .cls-18, .cls-19, .cls-20, .cls-21, .cls-22, .cls-23, .cls-24, .cls-25, .cls-26 {
        fill: none;
      }

      .cls-1, .cls-2, .cls-3, .cls-4, .cls-5, .cls-6, .cls-7, .cls-8, .cls-9, .cls-10, .cls-12, .cls-13, .cls-14, .cls-15, .cls-16, .cls-17, .cls-18, .cls-19, .cls-20, .cls-21, .cls-22, .cls-23, .cls-24, .cls-25, .cls-26 {
        stroke: #231f20;
      }

      .cls-2 {
        stroke-dasharray: 3.09 2.09;
      }

      .cls-3 {
        stroke-dasharray: 3.43 2.43;
      }

      .cls-27 {
        fill: #231f20;
      }

      .cls-4 {
        stroke-dasharray: 3.43 2.43;
      }

      .cls-5 {
        stroke-dasharray: 2.95 1.95;
      }

      .cls-6 {
        stroke-dasharray: 3.31 2.31;
      }

      .cls-7 {
        stroke-dasharray: 3.29 2.29;
      }

      .cls-8 {
        stroke-dasharray: 3.18 2.18;
      }

      .cls-10 {
        stroke-dasharray: 2.96 1.96;
      }

      .cls-12 {
        stroke-dasharray: 3.32 2.32;
      }

      .cls-13 {
        stroke-dasharray: 3.42 2.42;
      }

      .cls-28 {
        clip-path: url(#clippath-1);
      }

      .cls-14 {
        stroke-dasharray: 3.31 2.31;
      }

      .cls-15 {
        stroke-dasharray: 2.52 1.52;
      }

      .cls-16 {
        stroke-dasharray: 3.15 2.15;
      }

      .cls-17 {
        stroke-dasharray: 2.94 1.94;
      }

      .cls-18 {
        stroke-dasharray: 3.17 2.17;
      }

      .cls-19 {
        stroke-dasharray: 2.44 1.44;
      }

      .cls-20 {
        stroke-dasharray: 3.33 2.33;
      }

      .cls-21 {
        stroke-dasharray: 3.33 2.33;
      }

      .cls-22 {
        stroke-dasharray: 3.39 2.39;
      }

      .cls-29 {
        clip-path: url(#clippath-2);
      }

      .cls-23 {
        stroke-dasharray: 2.4 1.4;
      }

      .cls-24 {
        stroke-dasharray: 3.28 2.28;
      }

      .cls-25 {
        stroke-dasharray: 3.25 2.25;
      }

      .cls-26 {
        stroke-dasharray: 2.64 1.64;
      }

      .cls-30 {
        clip-path: url(#clippath);
      }
    </style>
    <clipPath id="clippath">
      <rect class="cls-11" width="126.39" height="32.26"/>
    </clipPath>
    <clipPath id="clippath-1">
      <rect class="cls-11" width="126.39" height="32.26"/>
    </clipPath>
    <clipPath id="clippath-2">
      <rect class="cls-11" width="126.39" height="32.26"/>
    </clipPath>
  </defs>
  <g id="Layer_1-2" data-name="Layer 1">
    <g class="cls-30">
      <path class="cls-19" d="M18.19,1.28c-.94-.45-1.91-.65-3.05-.73"/>
      <path class="cls-6" d="M9.32,1.17C4.8,2.8,1.47,7.28.68,13.31"/>
      <path class="cls-14" d="M.86,20.05c1.13,5.93,4.79,10.18,9.56,11.37"/>
      <path class="cls-7" d="M17.05,31.08c4.41-1.65,7.51-6.16,8.48-12.2"/>
      <path class="cls-26" d="M25.66,13.15c-.3-2.36-1.06-5.15-2.48-7.27"/>
      <path class="cls-9" d="M22.7,5.21c-.28-.35-.58-.67-.9-.97M25.68,17.75c.06-.53.1-1.08.13-1.64.02-.4.02-.84,0-1.32M11.55,31.64c.54.08,1.09.12,1.65.12s1.1-.04,1.64-.12M.56,14.46c-.04.54-.06,1.09-.06,1.65s.02,1.11.06,1.65M14.42.52c-.39-.01-.79-.02-1.22-.02-.56,0-1.11.04-1.65.12M20.34,2.83c-.32-.3-.62-.56-.93-.79"/>
      <path class="cls-27" d="M20.34,4.83c1.1,0,2-.89,2-2s-.9-2-2-2-2,.9-2,2,.89,2,2,2"/>
      <path class="cls-16" d="M33.05,18.57c-1.1.77-1.92,1.94-2.36,3.42"/>
      <path class="cls-18" d="M31.06,28.26c.63,1.37,1.64,2.39,2.91,2.97"/>
      <path class="cls-9" d="M40.15,30.7c.44-.31.82-.68,1.15-1.1M35,31.57c.5.12,1.02.18,1.57.18s1.09-.06,1.59-.17M30.45,23.04c-.08.5-.12,1.02-.12,1.57s.04,1.08.12,1.58M38.14,17.71c-.47-.13-.99-.2-1.57-.2-.55,0-1.07.06-1.56.18M41.1,19.9c-.32-.44-.67-.83-1.06-1.17"/>
      <path class="cls-27" d="M41.1,21.9c1.1,0,2-.89,2-2s-.9-2-2-2-2,.9-2,2,.89,2,2,2"/>
      <line class="cls-1" x1="51.57" y1="23.27" x2="51.57" y2="13.45"/>
      <path class="cls-9" d="M51.57,12.33v-1.62M51.93,29.12c-.38-1.04-.36-1.99-.36-1.99v-1.62M57.19,31.76h-1.3c-.8,0-1.45-.15-1.98-.39"/>
      <path class="cls-27" d="M51.57,12.71c1.1,0,2-.89,2-2s-.9-2-2-2-2,.9-2,2,.89,2,2,2"/>
    </g>
    <line class="cls-17" x1="57.84" y1="15.59" x2="45.13" y2="15.59"/>
    <g class="cls-28">
      <path class="cls-3" d="M64.49,17.73c-1.28.83-2.26,2.07-2.8,3.61"/>
      <path class="cls-13" d="M62.18,28.19c.76,1.38,1.94,2.44,3.39,3.03"/>
      <path class="cls-22" d="M72.31,30.69c1.26-.8,2.22-2.01,2.79-3.54"/>
      <path class="cls-9" d="M74.82,20.15c-.28-.54-.64-1.03-1.09-1.37M75.45,26.01c.12-.53.2-1.09.23-1.68.03-.45,0-1.08-.11-1.76M66.72,31.58c.54.12,1.11.18,1.7.18s1.15-.06,1.68-.17M61.37,22.51c-.1.54-.16,1.11-.16,1.71s.05,1.16.16,1.7M69.76,16.65c-.4-.03-.84-.04-1.34-.04-.59,0-1.16.06-1.7.19M72.54,17.71c-.4-.31-.77-.54-1.14-.7"/>
      <path class="cls-27" d="M72.54,19.71c1.1,0,2-.89,2-2s-.9-2-2-2-2,.89-2,2,.89,2,2,2"/>
      <line class="cls-8" x1="81.29" y1="32" x2="81.29" y2="2"/>
      <path class="cls-27" d="M81.29,4c1.1,0,2-.89,2-2S82.39,0,81.29,0s-2,.89-2,2,.89,2,2,2"/>
      <path class="cls-2" d="M82.84,28.78c.98,1.05,2.09,1.89,3.35,2.35"/>
      <path class="cls-25" d="M92.3,30.13c1.13-.85,2.04-2.05,2.54-3.48"/>
      <path class="cls-4" d="M94.41,19.94c-.76-1.53-1.94-2.6-3.24-3.2"/>
      <path class="cls-5" d="M85.02,16.97c-1.18.61-2.11,1.52-2.94,2.56"/>
      <path class="cls-9" d="M81.49,20.3c-.29.39-.57.8-.85,1.2M90.02,16.33c-.57-.14-1.14-.2-1.7-.18-.52.02-1.01.07-1.46.17M95.14,25.57c.1-.52.15-1.06.15-1.61,0-.61-.06-1.17-.15-1.71M87.19,31.4c.49.09,1,.12,1.54.08.54-.04,1.08-.15,1.59-.32M80.69,25.87c.27.44.55.87.84,1.29"/>
    </g>
    <line class="cls-10" x1="113.07" y1="23.73" x2="100.25" y2="23.73"/>
    <g class="cls-29">
      <path class="cls-27" d="M100.25,25.73c-1.11,0-2-.89-2-2s.89-2,2-2,2,.89,2,2-.9,2-2,2"/>
      <path class="cls-20" d="M112.05,20.22c-.66-1.48-1.71-2.59-3-3.23"/>
      <path class="cls-21" d="M102.56,17.5c-1.16.82-2.02,2.06-2.47,3.64"/>
      <path class="cls-12" d="M100.5,27.8c.67,1.45,1.74,2.52,3.08,3.13"/>
      <path class="cls-23" d="M108.88,31.14c1.12-.36,1.95-.94,2.6-1.63"/>
      <path class="cls-9" d="M111.94,28.98c.25-.32.48-.66.68-.99M104.67,31.31c.52.13,1.07.19,1.65.19.43,0,.82-.02,1.2-.07M99.84,22.27c-.08.52-.12,1.08-.12,1.66s.04,1.13.12,1.65M107.96,16.57c-.52-.14-1.07-.21-1.65-.21s-1.13.06-1.65.19M112.81,24.11c0-.58-.04-1.13-.12-1.66"/>
      <line class="cls-24" x1="118.13" y1="32" x2="118.13" y2="17.6"/>
      <path class="cls-27" d="M118.13,19.6c1.1,0,2-.89,2-2s-.9-2-2-2-2,.9-2,2,.89,2,2,2"/>
      <path class="cls-15" d="M126.26,16.48s-5.92,1.7-8.86,5.53"/>
    </g>
  </g>
</svg>