<?xml version="1.0" encoding="UTF-8"?>
<svg id="Layer_2" data-name="Layer 2" xmlns="http://www.w3.org/2000/svg" xmlns:xlink="http://www.w3.org/1999/xlink" viewBox="0 0 475.35 107.22">
  <defs>
    <style>
      .cls-1, .cls-2 {
        fill: #231f20;
      }

      .cls-3 {
        fill: #fff;
      }

      .cls-4, .cls-5 {
        fill: none;
      }

      .cls-2 {
        font-family: PoppinsBoldEdited-Bold, 'Poppins Bold Edited';
        font-size: 12.46px;
        font-weight: 700;
      }

      .cls-6 {
        clip-path: url(#clippath-1);
      }

      .cls-7 {
        clip-path: url(#clippath-3);
      }

      .cls-5 {
        stroke: #231f20;
        stroke-width: .81px;
      }

      .cls-8 {
        clip-path: url(#clippath-2);
      }

      .cls-9 {
        clip-path: url(#clippath);
      }
    </style>
    <clipPath id="clippath">
      <rect class="cls-4" width="475.35" height="107.22"/>
    </clipPath>
    <clipPath id="clippath-1">
      <rect class="cls-4" width="475.35" height="107.22"/>
    </clipPath>
    <clipPath id="clippath-2">
      <rect class="cls-4" width="475.35" height="107.22"/>
    </clipPath>
    <clipPath id="clippath-3">
      <rect class="cls-4" width="475.35" height="107.22"/>
    </clipPath>
  </defs>
  <g id="Layer_1-2" data-name="Layer 1">
    <path class="cls-1" d="M15.55,40.04h-3.27l-.52,1.61h-2.23l3.17-9.13h2.47l3.17,9.13h-2.26l-.52-1.61ZM13.92,34.98l-1.07,3.34h2.16l-1.08-3.34Z"/>
    <text class="cls-2" transform="translate(18.52 41.65) scale(1 1.04)"><tspan x="0" y="0"> </tspan></text>
    <path class="cls-1" d="M180.18,41.65h-4.08v-9.13h3.94c1.78,0,2.84.92,2.84,2.37,0,1.11-.64,1.82-1.48,2.08,1.02.22,1.68,1.16,1.68,2.2,0,1.51-1.06,2.48-2.9,2.48ZM179.63,34.3h-1.4v1.91h1.4c.7,0,1.08-.32,1.08-.95s-.39-.96-1.08-.96ZM179.78,37.84h-1.55v2.02h1.57c.71,0,1.12-.34,1.12-.99s-.44-1.03-1.15-1.03Z"/>
    <text class="cls-2" transform="translate(183.54 41.65) scale(1 1.04)"><tspan x="0" y="0"> </tspan></text>
    <path class="cls-1" d="M349.14,32.42c2.08,0,3.65,1.22,4.15,3.2h-2.34c-.36-.78-1.02-1.17-1.83-1.17-1.31,0-2.21,1.01-2.21,2.63s.9,2.63,2.21,2.63c.81,0,1.47-.39,1.83-1.17h2.34c-.5,1.98-2.07,3.19-4.15,3.19-2.58,0-4.4-1.91-4.4-4.64s1.82-4.65,4.4-4.65Z"/>
    <path class="cls-1" d="M17.64,79.18c0,2.7-1.79,4.56-4.59,4.56h-3.28v-9.13h3.28c2.79,0,4.59,1.85,4.59,4.56ZM12.91,81.82c1.61,0,2.56-.96,2.56-2.64s-.95-2.67-2.56-2.67h-1.01v5.3h1.01Z"/>
    <text class="cls-2" transform="translate(18.06 83.74) scale(1 1.04)"><tspan x="0" y="0"> </tspan></text>
    <path class="cls-1" d="M181.13,76.4h-3.23v1.85h2.85v1.72h-2.85v2h3.23v1.78h-5.36v-9.13h5.36v1.78Z"/>
    <path class="cls-1" d="M344.77,74.62h5.7v1.78h-3.57v1.92h2.67v1.73h-2.67v3.69h-2.13v-9.13Z"/>
    <g class="cls-9">
      <path class="cls-3" d="M136.94,36.7v6.16s0,5.83-5.73,5.83H49.2l-11.48,8.76,3.54-8.76h-7.14s-5.72,0-5.72-5.83v-6.16s0-5.83,5.72-5.83h97.09s5.73,0,5.73,5.83"/>
      <path class="cls-5" d="M136.94,36.7v6.16s0,5.83-5.73,5.83H49.2l-11.48,8.76,3.54-8.76h-7.14s-5.72,0-5.72-5.83v-6.16s0-5.83,5.72-5.83h97.09s5.73,0,5.73,5.83Z"/>
    </g>
    <g>
      <path class="cls-1" d="M36.58,35.57v7.83h.57v.61h-2.33v-.61h.57v-7.83h-.57v-.62h2.33v.62h-.57Z"/>
      <path class="cls-1" d="M45.03,36.82c1.77,0,2.92.91,3.29,2.41h-1.27c-.25-.86-.96-1.4-2.02-1.4-1.3,0-2.26.92-2.26,2.67s.96,2.69,2.26,2.69c1.05,0,1.75-.51,2.02-1.4h1.27c-.36,1.42-1.52,2.41-3.29,2.41-2.03,0-3.47-1.43-3.47-3.69s1.44-3.67,3.47-3.67Z"/>
      <path class="cls-1" d="M52.83,36.82c1.33,0,2.24.68,2.65,1.42v-1.3h1.2v7.12h-1.2v-1.33c-.43.77-1.35,1.44-2.67,1.44-1.9,0-3.37-1.5-3.37-3.71s1.47-3.65,3.38-3.65ZM53.06,37.84c-1.3,0-2.41.95-2.41,2.63s1.1,2.67,2.41,2.67,2.42-.98,2.42-2.65-1.12-2.64-2.42-2.64Z"/>
      <path class="cls-1" d="M63.89,40.03c0-1.46-.79-2.2-1.99-2.2s-2.04.75-2.04,2.29v3.94h-1.18v-7.12h1.18v1.01c.47-.74,1.33-1.14,2.29-1.14,1.65,0,2.91,1.01,2.91,3.05v4.2h-1.17v-4.03Z"/>
      <path class="cls-1" d="M66.41,37.95l.77-2.95h1.31l-1.25,2.95h-.83Z"/>
      <path class="cls-1" d="M70.1,37.91h-.92v-.97h.92v-1.79h1.18v1.79h1.86v.97h-1.86v4.2c0,.7.26.95.99.95h.87v1h-1.07c-1.26,0-1.98-.52-1.98-1.95v-4.2Z"/>
      <path class="cls-1" d="M80.57,44.18c-1.66,0-2.83-.91-2.91-2.21h1.22c.06.69.68,1.21,1.68,1.21.94,0,1.46-.47,1.46-1.05,0-1.59-4.21-.66-4.21-3.31,0-1.09,1.03-1.99,2.61-1.99s2.61.84,2.69,2.24h-1.18c-.05-.71-.6-1.24-1.55-1.24-.87,0-1.39.42-1.39.99,0,1.69,4.13.77,4.19,3.31,0,1.17-1.03,2.05-2.6,2.05Z"/>
      <path class="cls-1" d="M87.91,44.18c-2.03,0-3.52-1.43-3.52-3.69s1.44-3.67,3.52-3.67,3.42,1.46,3.42,3.41c0,.26-.01.47-.04.71h-5.69c.09,1.44,1.1,2.24,2.31,2.24,1.07,0,1.74-.55,2-1.31h1.27c-.36,1.3-1.51,2.31-3.28,2.31ZM85.61,39.98h4.5c.01-1.39-1.03-2.16-2.25-2.16-1.16,0-2.12.77-2.25,2.16Z"/>
      <path class="cls-1" d="M95.97,44.18c-2.03,0-3.52-1.43-3.52-3.69s1.44-3.67,3.52-3.67,3.42,1.46,3.42,3.41c0,.26-.01.47-.04.71h-5.69c.09,1.44,1.1,2.24,2.31,2.24,1.07,0,1.74-.55,2-1.31h1.27c-.36,1.3-1.51,2.31-3.28,2.31ZM93.67,39.98h4.5c.01-1.39-1.03-2.16-2.25-2.16-1.16,0-2.12.77-2.25,2.16Z"/>
      <path class="cls-1" d="M109.34,36.93h1.22l-4.29,10.48h-1.22l1.4-3.43-2.87-7.05h1.31l2.24,5.77,2.21-5.77Z"/>
      <path class="cls-1" d="M114.85,44.18c-2.01,0-3.55-1.43-3.55-3.69s1.59-3.67,3.6-3.67,3.6,1.42,3.6,3.67-1.62,3.69-3.65,3.69ZM114.85,43.14c1.24,0,2.44-.85,2.44-2.65s-1.18-2.64-2.41-2.64-2.38.84-2.38,2.64,1.1,2.65,2.34,2.65Z"/>
      <path class="cls-1" d="M126.38,44.06h-1.18v-1.05c-.46.74-1.33,1.16-2.27,1.16-1.64,0-2.93-1.01-2.93-3.06v-4.17h1.17v4.02c0,1.44.79,2.18,1.99,2.18s2.04-.75,2.04-2.29v-3.91h1.18v7.12Z"/>
      <path class="cls-1" d="M128.76,44.14c-.46,0-.81-.35-.81-.81s.35-.81.81-.81c.43,0,.78.35.78.81s-.35.81-.78.81Z"/>
    </g>
    <g class="cls-6">
      <path class="cls-3" d="M320.45,36.7v6.16s0,5.83-5.73,5.83h-103.02l-11.48,8.76,3.54-8.76h-7.14s-5.72,0-5.72-5.83v-6.16s0-5.83,5.72-5.83h118.09s5.73,0,5.73,5.83"/>
      <path class="cls-5" d="M320.45,36.7v6.16s0,5.83-5.73,5.83h-103.02l-11.48,8.76,3.54-8.76h-7.14s-5.72,0-5.72-5.83v-6.16s0-5.83,5.72-5.83h118.09s5.73,0,5.73,5.83Z"/>
    </g>
    <g>
      <path class="cls-1" d="M200.42,34.88c1.96,0,3.52.99,4.2,2.74h-1.42c-.49-1.09-1.46-1.7-2.78-1.7-1.9,0-3.31,1.38-3.31,3.6s1.42,3.59,3.31,3.59c1.33,0,2.29-.61,2.78-1.69h1.42c-.68,1.74-2.24,2.72-4.2,2.72-2.53,0-4.52-1.9-4.52-4.62s1.99-4.64,4.52-4.64Z"/>
      <path class="cls-1" d="M209.31,36.82c1.33,0,2.24.68,2.65,1.42v-1.3h1.2v7.12h-1.2v-1.33c-.43.77-1.35,1.44-2.67,1.44-1.9,0-3.37-1.5-3.37-3.71s1.47-3.65,3.38-3.65ZM209.54,37.84c-1.3,0-2.41.95-2.41,2.63s1.1,2.67,2.41,2.67,2.42-.98,2.42-2.65-1.12-2.64-2.42-2.64Z"/>
      <path class="cls-1" d="M220.37,40.03c0-1.46-.79-2.2-1.99-2.2s-2.04.75-2.04,2.29v3.94h-1.18v-7.12h1.18v1.01c.47-.74,1.33-1.14,2.29-1.14,1.65,0,2.91,1.01,2.91,3.05v4.2h-1.17v-4.03Z"/>
      <path class="cls-1" d="M231.87,36.93h1.22l-4.29,10.48h-1.22l1.4-3.43-2.87-7.05h1.31l2.24,5.77,2.21-5.77Z"/>
      <path class="cls-1" d="M237.38,44.18c-2.01,0-3.55-1.43-3.55-3.69s1.59-3.67,3.6-3.67,3.6,1.42,3.6,3.67-1.62,3.69-3.65,3.69ZM237.38,43.14c1.24,0,2.44-.85,2.44-2.65s-1.18-2.64-2.41-2.64-2.38.84-2.38,2.64,1.1,2.65,2.34,2.65Z"/>
      <path class="cls-1" d="M248.91,44.06h-1.18v-1.05c-.46.74-1.33,1.16-2.27,1.16-1.64,0-2.93-1.01-2.93-3.06v-4.17h1.17v4.02c0,1.44.79,2.18,1.99,2.18s2.04-.75,2.04-2.29v-3.91h1.18v7.12Z"/>
      <path class="cls-1" d="M254.38,34.44h1.18v3.52c.47-.75,1.35-1.16,2.35-1.16,1.59,0,2.85,1.01,2.85,3.05v4.2h-1.17v-4.03c0-1.46-.79-2.2-1.99-2.2s-2.04.75-2.04,2.29v3.94h-1.18v-9.62Z"/>
      <path class="cls-1" d="M265.78,44.18c-2.03,0-3.52-1.43-3.52-3.69s1.44-3.67,3.52-3.67,3.42,1.46,3.42,3.41c0,.26-.01.47-.04.71h-5.69c.09,1.44,1.1,2.24,2.31,2.24,1.07,0,1.74-.55,2-1.31h1.27c-.36,1.3-1.51,2.31-3.28,2.31ZM263.48,39.98h4.5c.01-1.39-1.03-2.16-2.25-2.16-1.16,0-2.12.77-2.25,2.16Z"/>
      <path class="cls-1" d="M273.7,36.82c1.33,0,2.24.68,2.65,1.42v-1.3h1.2v7.12h-1.2v-1.33c-.43.77-1.35,1.44-2.67,1.44-1.9,0-3.37-1.5-3.37-3.71s1.47-3.65,3.38-3.65ZM273.93,37.84c-1.3,0-2.41.95-2.41,2.63s1.1,2.67,2.41,2.67,2.42-.98,2.42-2.65-1.12-2.64-2.42-2.64Z"/>
      <path class="cls-1" d="M280.73,44.06h-1.18v-7.12h1.18v1.16c.4-.79,1.17-1.29,2.3-1.29v1.22h-.31c-1.13,0-1.99.51-1.99,2.16v3.87Z"/>
      <path class="cls-1" d="M298.15,40.03c0-1.46-.78-2.2-1.95-2.2s-2.02.77-2.02,2.3v3.93h-1.17v-4.03c0-1.46-.78-2.2-1.95-2.2s-2.02.77-2.02,2.3v3.93h-1.18v-7.12h1.18v1.03c.47-.75,1.31-1.16,2.25-1.16,1.17,0,2.15.52,2.61,1.59.42-1.03,1.43-1.59,2.52-1.59,1.62,0,2.89,1.01,2.89,3.05v4.2h-1.17v-4.03Z"/>
      <path class="cls-1" d="M304.34,44.18c-2.03,0-3.52-1.43-3.52-3.69s1.44-3.67,3.52-3.67,3.42,1.46,3.42,3.41c0,.26-.01.47-.04.71h-5.69c.09,1.44,1.1,2.24,2.31,2.24,1.07,0,1.74-.55,2-1.31h1.27c-.36,1.3-1.51,2.31-3.28,2.31ZM302.04,39.98h4.5c.01-1.39-1.03-2.16-2.25-2.16-1.16,0-2.12.77-2.25,2.16Z"/>
      <path class="cls-1" d="M311.63,34.88c1.7,0,2.87,1.03,2.87,2.68,0,1.9-1.31,2.68-3.13,2.68l-.04,1.24h-1.03l-.05-2.05h.38c1.48,0,2.74-.29,2.74-1.86,0-1.04-.68-1.69-1.73-1.69s-1.73.61-1.73,1.62h-1.12c-.01-1.57,1.13-2.61,2.83-2.61ZM310.81,44.14c-.46,0-.81-.35-.81-.81s.35-.81.81-.81c.43,0,.78.35.78.81s-.35.81-.78.81Z"/>
    </g>
    <g class="cls-8">
      <path class="cls-3" d="M190.9,83.66v6.38s0,6.04,4.05,6.04h42.91l10,10.87-4.39-10.87h39.91s4.05,0,4.05-6.04v-6.38s0-6.04-4.05-6.04h-88.43s-4.05,0-4.05,6.04"/>
      <path class="cls-5" d="M190.9,83.66v6.38s0,6.04,4.05,6.04h42.91l10,10.87-4.39-10.87h39.91s4.05,0,4.05-6.04v-6.38s0-6.04-4.05-6.04h-88.43s-4.05,0-4.05,6.04Z"/>
      <g>
        <path class="cls-1" d="M194.6,82.74h1.26l1.98,7.68,2.18-7.68h1.33l2.08,7.66,1.99-7.66h1.27l-2.63,9.06h-1.33l-2.11-7.29-2.18,7.29h-1.31s-2.54-9.06-2.54-9.06Z"/>
        <path class="cls-1" d="M211.07,91.92c-2.03,0-3.52-1.43-3.52-3.69s1.44-3.67,3.52-3.67,3.42,1.46,3.42,3.41c0,.26-.01.47-.04.71h-5.69c.09,1.44,1.1,2.24,2.31,2.24,1.07,0,1.74-.55,2-1.31h1.27c-.36,1.3-1.51,2.31-3.28,2.31ZM208.77,87.72h4.5c.01-1.39-1.03-2.16-2.25-2.16-1.16,0-2.12.77-2.25,2.16Z"/>
        <path class="cls-1" d="M222.55,84.56c1.77,0,2.92.91,3.29,2.41h-1.27c-.25-.86-.96-1.4-2.02-1.4-1.3,0-2.26.92-2.26,2.67s.96,2.69,2.26,2.69c1.05,0,1.75-.51,2.02-1.4h1.27c-.36,1.42-1.52,2.41-3.29,2.41-2.03,0-3.47-1.43-3.47-3.69s1.44-3.67,3.47-3.67Z"/>
        <path class="cls-1" d="M230.35,84.56c1.33,0,2.24.68,2.65,1.42v-1.3h1.2v7.12h-1.2v-1.33c-.43.77-1.35,1.44-2.67,1.44-1.9,0-3.37-1.5-3.37-3.71s1.47-3.65,3.38-3.65ZM230.59,85.59c-1.3,0-2.41.95-2.41,2.63s1.1,2.67,2.41,2.67,2.42-.98,2.42-2.65-1.12-2.64-2.42-2.64Z"/>
        <path class="cls-1" d="M241.42,87.78c0-1.46-.79-2.2-1.99-2.2s-2.04.75-2.04,2.29v3.94h-1.18v-7.12h1.18v1.01c.47-.74,1.33-1.14,2.29-1.14,1.65,0,2.91,1.01,2.91,3.05v4.2h-1.17v-4.03Z"/>
        <path class="cls-1" d="M250.51,91.92c-1.66,0-2.83-.91-2.91-2.21h1.22c.06.69.68,1.21,1.68,1.21.94,0,1.46-.47,1.46-1.05,0-1.59-4.21-.66-4.21-3.31,0-1.09,1.03-1.99,2.61-1.99s2.61.84,2.69,2.24h-1.18c-.05-.71-.6-1.24-1.55-1.24-.87,0-1.39.42-1.39.99,0,1.69,4.13.77,4.19,3.31,0,1.17-1.03,2.05-2.6,2.05Z"/>
        <path class="cls-1" d="M257.86,91.92c-2.03,0-3.52-1.43-3.52-3.69s1.44-3.67,3.52-3.67,3.42,1.46,3.42,3.41c0,.26-.01.47-.04.71h-5.69c.09,1.44,1.1,2.24,2.31,2.24,1.07,0,1.74-.55,2-1.31h1.27c-.36,1.3-1.51,2.31-3.28,2.31ZM255.56,87.72h4.5c.01-1.39-1.03-2.16-2.25-2.16-1.16,0-2.12.77-2.25,2.16Z"/>
        <path class="cls-1" d="M265.92,91.92c-2.03,0-3.52-1.43-3.52-3.69s1.44-3.67,3.52-3.67,3.42,1.46,3.42,3.41c0,.26-.01.47-.04.71h-5.69c.09,1.44,1.1,2.24,2.31,2.24,1.07,0,1.74-.55,2-1.31h1.27c-.36,1.3-1.51,2.31-3.28,2.31ZM263.62,87.72h4.5c.01-1.39-1.03-2.16-2.25-2.16-1.16,0-2.12.77-2.25,2.16Z"/>
        <path class="cls-1" d="M274.17,82.72c0-.46.35-.81.81-.81.43,0,.78.35.78.81s-.35.81-.78.81c-.46,0-.81-.35-.81-.81ZM274.37,84.68h1.18v7.12h-1.18v-7.12Z"/>
        <path class="cls-1" d="M277.83,85.66h-.92v-.97h.92v-1.79h1.18v1.79h1.86v.97h-1.86v4.2c0,.7.26.95.99.95h.87v1h-1.07c-1.26,0-1.98-.52-1.98-1.95v-4.2Z"/>
        <path class="cls-1" d="M282.68,91.88c-.46,0-.81-.35-.81-.81s.35-.81.81-.81c.43,0,.78.35.78.81s-.35.81-.78.81Z"/>
      </g>
      <path class="cls-3" d="M440.95,36.7v6.16s0,5.83-5.73,5.83h-52.02l-11.47,8.76,3.54-8.76h-7.14s-5.73,0-5.73-5.83v-6.16s0-5.83,5.73-5.83h67.09s5.73,0,5.73,5.83"/>
      <path class="cls-5" d="M440.95,36.7v6.16s0,5.83-5.73,5.83h-52.02l-11.47,8.76,3.54-8.76h-7.14s-5.73,0-5.73-5.83v-6.16s0-5.83,5.73-5.83h67.09s5.73,0,5.73,5.83Z"/>
    </g>
    <g>
      <path class="cls-1" d="M366.51,35v8.1h3.17v.96h-4.36v-9.06h1.18Z"/>
      <path class="cls-1" d="M374.05,44.18c-2.01,0-3.55-1.43-3.55-3.69s1.59-3.67,3.6-3.67,3.6,1.42,3.6,3.67-1.62,3.69-3.65,3.69ZM374.05,43.14c1.24,0,2.44-.85,2.44-2.65s-1.18-2.64-2.41-2.64-2.38.84-2.38,2.64,1.1,2.65,2.34,2.65Z"/>
      <path class="cls-1" d="M382.37,44.18c-2.01,0-3.55-1.43-3.55-3.69s1.59-3.67,3.6-3.67,3.6,1.42,3.6,3.67-1.62,3.69-3.65,3.69ZM382.37,43.14c1.24,0,2.44-.85,2.44-2.65s-1.18-2.64-2.41-2.64-2.38.84-2.38,2.64,1.1,2.65,2.34,2.65Z"/>
      <path class="cls-1" d="M387.58,34.44h1.18v5.66l2.74-3.16h1.65l-3.35,3.55,3.37,3.58h-1.61l-2.79-3.15v3.15h-1.18v-9.62Z"/>
      <path class="cls-1" d="M400.69,36.82c1.33,0,2.24.68,2.65,1.42v-1.3h1.2v7.12h-1.2v-1.33c-.43.77-1.35,1.44-2.67,1.44-1.9,0-3.37-1.5-3.37-3.71s1.47-3.65,3.38-3.65ZM400.92,37.84c-1.3,0-2.41.95-2.41,2.63s1.1,2.67,2.41,2.67,2.42-.98,2.42-2.65-1.12-2.64-2.42-2.64Z"/>
      <path class="cls-1" d="M406.8,37.91h-.92v-.97h.92v-1.79h1.18v1.79h1.86v.97h-1.86v4.2c0,.7.26.95.99.95h.87v1h-1.07c-1.26,0-1.98-.52-1.98-1.95v-4.2Z"/>
      <path class="cls-1" d="M425.02,40.03c0-1.46-.78-2.2-1.95-2.2s-2.02.77-2.02,2.3v3.93h-1.17v-4.03c0-1.46-.78-2.2-1.95-2.2s-2.02.77-2.02,2.3v3.93h-1.18v-7.12h1.18v1.03c.47-.75,1.31-1.16,2.25-1.16,1.17,0,2.15.52,2.61,1.59.42-1.03,1.43-1.59,2.52-1.59,1.62,0,2.89,1.01,2.89,3.05v4.2h-1.17v-4.03Z"/>
      <path class="cls-1" d="M431.21,44.18c-2.03,0-3.52-1.43-3.52-3.69s1.44-3.67,3.52-3.67,3.42,1.46,3.42,3.41c0,.26-.01.47-.04.71h-5.69c.09,1.44,1.1,2.24,2.31,2.24,1.07,0,1.74-.55,2-1.31h1.27c-.36,1.3-1.51,2.31-3.28,2.31ZM428.91,39.98h4.5c.01-1.39-1.03-2.16-2.25-2.16-1.16,0-2.12.77-2.25,2.16Z"/>
      <path class="cls-1" d="M437.14,44.14c-.46,0-.81-.35-.81-.81s.35-.81.81-.81c.43,0,.78.35.78.81s-.35.81-.78.81ZM436.45,35h1.27l-.14,6.5h-.99l-.14-6.5Z"/>
    </g>
    <g class="cls-7">
      <path class="cls-3" d="M362.4,83.45v6.16s0,5.83,5.72,5.83h53.02l11.48,8.76-3.54-8.76h40.14s5.72,0,5.72-5.83v-6.16s0-5.83-5.72-5.83h-101.09s-5.72,0-5.72,5.83"/>
      <path class="cls-5" d="M362.4,83.45v6.16s0,5.83,5.72,5.83h53.02l11.48,8.76-3.54-8.76h40.14s5.72,0,5.72-5.83v-6.16s0-5.83-5.72-5.83h-101.09s-5.72,0-5.72,5.83Z"/>
      <g>
        <path class="cls-1" d="M368.58,81.32v7.83h.57v.61h-2.33v-.61h.57v-7.83h-.57v-.62h2.33v.62h-.57Z"/>
        <path class="cls-1" d="M369.95,83.7l.77-2.95h1.31l-1.25,2.95h-.83Z"/>
        <path class="cls-1" d="M383.67,85.78c0-1.46-.78-2.2-1.95-2.2s-2.02.77-2.02,2.3v3.93h-1.17v-4.03c0-1.46-.78-2.2-1.95-2.2s-2.02.77-2.02,2.3v3.93h-1.18v-7.12h1.18v1.03c.47-.75,1.31-1.16,2.25-1.16,1.17,0,2.15.52,2.61,1.59.42-1.03,1.43-1.59,2.52-1.59,1.62,0,2.89,1.01,2.89,3.05v4.2h-1.17v-4.03Z"/>
        <path class="cls-1" d="M393.19,82.56c1.12,0,2.15.57,2.64,1.39v-3.77h1.2v9.62h-1.2v-1.34c-.43.79-1.35,1.46-2.65,1.46-1.91,0-3.38-1.5-3.38-3.71s1.47-3.65,3.39-3.65ZM393.41,83.59c-1.3,0-2.41.95-2.41,2.63s1.1,2.67,2.41,2.67,2.42-.98,2.42-2.65-1.12-2.64-2.42-2.64Z"/>
        <path class="cls-1" d="M400.21,89.81h-1.18v-7.12h1.18v1.16c.4-.79,1.17-1.29,2.3-1.29v1.22h-.31c-1.13,0-1.99.51-1.99,2.16v3.87Z"/>
        <path class="cls-1" d="M406.82,82.56c1.33,0,2.24.68,2.65,1.42v-1.3h1.2v7.12h-1.2v-1.33c-.43.77-1.35,1.44-2.67,1.44-1.9,0-3.37-1.5-3.37-3.71s1.47-3.65,3.38-3.65ZM407.05,83.59c-1.3,0-2.41.95-2.41,2.63s1.1,2.67,2.41,2.67,2.42-.98,2.42-2.65-1.12-2.64-2.42-2.64Z"/>
        <path class="cls-1" d="M411.82,82.68h1.21l1.64,5.98,1.77-5.98h1.21l1.73,5.99,1.61-5.99h1.17l-2.22,7.12h-1.22l-1.72-5.66-1.72,5.66h-1.22l-2.24-7.12Z"/>
        <path class="cls-1" d="M423.13,80.72c0-.46.35-.81.81-.81.43,0,.78.35.78.81s-.35.81-.78.81c-.45,0-.81-.35-.81-.81ZM423.33,82.68h1.18v7.12h-1.18v-7.12Z"/>
        <path class="cls-1" d="M431.74,85.78c0-1.46-.79-2.2-1.99-2.2s-2.04.75-2.04,2.29v3.94h-1.18v-7.12h1.18v1.01c.47-.74,1.33-1.14,2.29-1.14,1.65,0,2.91,1.01,2.91,3.05v4.2h-1.17v-4.03Z"/>
        <path class="cls-1" d="M437.78,82.56c1.3,0,2.24.65,2.65,1.42v-1.3h1.2v7.28c0,1.96-1.31,3.35-3.41,3.35-1.87,0-3.21-.95-3.45-2.47h1.17c.26.86,1.1,1.44,2.28,1.44,1.26,0,2.21-.81,2.21-2.33v-1.5c-.43.77-1.35,1.46-2.65,1.46-1.91,0-3.38-1.5-3.38-3.71s1.47-3.65,3.38-3.65ZM438.02,83.59c-1.3,0-2.41.95-2.41,2.63s1.1,2.67,2.41,2.67,2.42-.98,2.42-2.65-1.12-2.64-2.42-2.64Z"/>
        <path class="cls-1" d="M447.1,80.19h1.18v3.52c.47-.75,1.35-1.16,2.35-1.16,1.59,0,2.85,1.01,2.85,3.05v4.2h-1.17v-4.03c0-1.46-.79-2.2-1.99-2.2s-2.04.75-2.04,2.29v3.94h-1.18v-9.62Z"/>
        <path class="cls-1" d="M458.5,89.92c-2.03,0-3.52-1.43-3.52-3.69s1.44-3.67,3.52-3.67,3.42,1.46,3.42,3.41c0,.26-.01.47-.04.71h-5.69c.09,1.44,1.1,2.24,2.31,2.24,1.07,0,1.74-.55,2-1.31h1.27c-.36,1.3-1.51,2.31-3.28,2.31ZM456.2,85.72h4.5c.01-1.39-1.03-2.16-2.25-2.16-1.16,0-2.12.77-2.25,2.16Z"/>
        <path class="cls-1" d="M464.67,89.81h-1.18v-7.12h1.18v1.16c.4-.79,1.17-1.29,2.3-1.29v1.22h-.31c-1.13,0-1.99.51-1.99,2.16v3.87Z"/>
        <path class="cls-1" d="M468.71,89.88c-.46,0-.81-.35-.81-.81s.35-.81.81-.81c.43,0,.78.35.78.81s-.35.81-.78.81Z"/>
      </g>
      <path class="cls-3" d="M28.4,83.45v6.16s0,5.83,5.72,5.83h63.02l11.48,8.76-3.54-8.76h37.14s5.73,0,5.73-5.83v-6.16s0-5.83-5.73-5.83H34.12s-5.72,0-5.72,5.83"/>
      <path class="cls-5" d="M28.4,83.45v6.16s0,5.83,5.72,5.83h63.02l11.48,8.76-3.54-8.76h37.14s5.73,0,5.73-5.83v-6.16s0-5.83-5.73-5.83H34.12s-5.72,0-5.72,5.83Z"/>
      <g>
        <path class="cls-1" d="M39.25,86.02h-1.74v3.78h-1.18v-9.06h2.93c2.13,0,3.13,1.17,3.13,2.65,0,1.38-.88,2.63-3.13,2.63ZM39.25,85.05c1.35,0,1.92-.64,1.92-1.65s-.57-1.68-1.92-1.68h-1.74v3.33h1.74Z"/>
        <path class="cls-1" d="M43.86,80.19h1.18v9.62h-1.18v-9.62Z"/>
        <path class="cls-1" d="M50.13,89.92c-2.03,0-3.52-1.43-3.52-3.69s1.44-3.67,3.52-3.67,3.42,1.46,3.42,3.41c0,.26-.01.47-.04.71h-5.69c.09,1.44,1.1,2.24,2.31,2.24,1.07,0,1.74-.55,2-1.31h1.27c-.36,1.3-1.51,2.31-3.28,2.31ZM47.83,85.72h4.5c.01-1.39-1.03-2.16-2.25-2.16-1.16,0-2.12.77-2.25,2.16Z"/>
        <path class="cls-1" d="M58.05,82.56c1.33,0,2.24.68,2.65,1.42v-1.3h1.2v7.12h-1.2v-1.33c-.43.77-1.35,1.44-2.67,1.44-1.9,0-3.37-1.5-3.37-3.71s1.47-3.65,3.38-3.65ZM58.29,83.59c-1.3,0-2.41.95-2.41,2.63s1.1,2.67,2.41,2.67,2.42-.98,2.42-2.65-1.12-2.64-2.42-2.64Z"/>
        <path class="cls-1" d="M66.42,89.92c-1.66,0-2.83-.91-2.91-2.21h1.22c.06.69.68,1.21,1.68,1.21.94,0,1.46-.47,1.46-1.05,0-1.59-4.21-.66-4.21-3.31,0-1.09,1.03-1.99,2.61-1.99s2.61.84,2.69,2.24h-1.18c-.05-.71-.6-1.24-1.55-1.24-.87,0-1.39.42-1.39.99,0,1.69,4.13.77,4.19,3.31,0,1.17-1.03,2.05-2.6,2.05Z"/>
        <path class="cls-1" d="M73.77,89.92c-2.03,0-3.52-1.43-3.52-3.69s1.44-3.67,3.52-3.67,3.42,1.46,3.42,3.41c0,.26-.01.47-.04.71h-5.69c.09,1.44,1.1,2.24,2.31,2.24,1.07,0,1.74-.55,2-1.31h1.27c-.36,1.3-1.51,2.31-3.28,2.31ZM71.47,85.72h4.5c.01-1.39-1.03-2.16-2.25-2.16-1.16,0-2.12.77-2.25,2.16Z"/>
        <path class="cls-1" d="M78.67,88.17h1.3l-1.46,3.5h-.79l.95-3.5Z"/>
        <path class="cls-1" d="M84.79,80.19h1.18v3.52c.47-.75,1.35-1.16,2.35-1.16,1.59,0,2.85,1.01,2.85,3.05v4.2h-1.17v-4.03c0-1.46-.79-2.2-1.99-2.2s-2.04.75-2.04,2.29v3.94h-1.18v-9.62Z"/>
        <path class="cls-1" d="M96.19,89.92c-2.03,0-3.52-1.43-3.52-3.69s1.44-3.67,3.52-3.67,3.42,1.46,3.42,3.41c0,.26-.01.47-.04.71h-5.69c.09,1.44,1.1,2.24,2.31,2.24,1.07,0,1.74-.55,2-1.31h1.27c-.36,1.3-1.51,2.31-3.28,2.31ZM93.89,85.72h4.5c.01-1.39-1.03-2.16-2.25-2.16-1.16,0-2.12.77-2.25,2.16Z"/>
        <path class="cls-1" d="M101.17,80.19h1.18v9.62h-1.18v-9.62Z"/>
        <path class="cls-1" d="M108.22,82.56c1.91,0,3.38,1.43,3.38,3.65s-1.47,3.71-3.38,3.71c-1.3,0-2.22-.7-2.67-1.43v4.69h-1.18v-10.5h1.18v1.31c.43-.75,1.37-1.43,2.67-1.43ZM107.97,83.59c-1.29,0-2.42.99-2.42,2.64s1.13,2.65,2.42,2.65,2.42-.99,2.42-2.67-1.1-2.63-2.42-2.63Z"/>
        <path class="cls-1" d="M126.91,85.78c0-1.46-.78-2.2-1.95-2.2s-2.02.77-2.02,2.3v3.93h-1.17v-4.03c0-1.46-.78-2.2-1.95-2.2s-2.02.77-2.02,2.3v3.93h-1.18v-7.12h1.18v1.03c.47-.75,1.31-1.16,2.25-1.16,1.17,0,2.15.52,2.61,1.59.42-1.03,1.43-1.59,2.52-1.59,1.62,0,2.89,1.01,2.89,3.05v4.2h-1.17v-4.03Z"/>
        <path class="cls-1" d="M133.1,89.92c-2.03,0-3.52-1.43-3.52-3.69s1.44-3.67,3.52-3.67,3.42,1.46,3.42,3.41c0,.26-.01.47-.04.71h-5.69c.09,1.44,1.1,2.24,2.31,2.24,1.07,0,1.74-.55,2-1.31h1.27c-.36,1.3-1.51,2.31-3.28,2.31ZM130.8,85.72h4.5c.01-1.39-1.03-2.16-2.25-2.16-1.16,0-2.12.77-2.25,2.16Z"/>
        <path class="cls-1" d="M139.03,89.88c-.46,0-.81-.35-.81-.81s.35-.81.81-.81c.43,0,.78.35.78.81s-.35.81-.78.81ZM138.34,80.74h1.27l-.14,6.5h-.99l-.14-6.5Z"/>
      </g>
    </g>
  </g>
</svg>