<?xml version="1.0" encoding="UTF-8"?>
<svg id="Layer_2" data-name="Layer 2" xmlns="http://www.w3.org/2000/svg" xmlns:xlink="http://www.w3.org/1999/xlink" viewBox="0 0 227.69 234">
  <defs>
    <style>
      .cls-1 {
        clip-path: url(#clippath-4);
      }

      .cls-2 {
        fill: #fff;
      }

      .cls-3, .cls-4 {
        fill: none;
      }

      .cls-4 {
        stroke: #231f20;
        stroke-width: .43px;
      }

      .cls-5 {
        clip-path: url(#clippath-1);
      }

      .cls-6 {
        clip-path: url(#clippath-3);
      }

      .cls-7 {
        clip-path: url(#clippath-2);
      }

      .cls-8 {
        clip-path: url(#clippath);
      }
    </style>
    <clipPath id="clippath">
      <rect class="cls-3" width="227.69" height="234"/>
    </clipPath>
    <clipPath id="clippath-1">
      <rect class="cls-3" width="227.69" height="234"/>
    </clipPath>
    <clipPath id="clippath-2">
      <rect class="cls-3" width="227.69" height="234"/>
    </clipPath>
    <clipPath id="clippath-3">
      <rect class="cls-3" width="227.69" height="234"/>
    </clipPath>
    <clipPath id="clippath-4">
      <rect class="cls-3" width="227.69" height="234"/>
    </clipPath>
  </defs>
  <g id="Layer_1-2" data-name="Layer 1">
    <rect class="cls-2" x="131.71" y="1.28" width="54.78" height="77.93"/>
    <rect class="cls-4" x="131.71" y="1.28" width="54.78" height="77.93"/>
    <rect class="cls-4" x="133.97" y="4.72" width="49.87" height="72.42"/>
    <line class="cls-4" x1="133.93" y1="42.73" x2="183.9" y2="42.73"/>
    <line class="cls-4" x1="133.82" y1="37.61" x2="183.79" y2="37.61"/>
    <g class="cls-8">
      <path class="cls-4" d="M220.92,131.15s-17.67-5.16-23.59,6.78c-5.39,10.89-1.34,43.73-1.34,43.73"/>
      <path class="cls-4" d="M192.81,131.3s-9.56,4.93-7.14,24.46"/>
      <path class="cls-4" d="M186.08,158.79c-.1-.21-101.85-19.47-101.85-19.47,0,0-1.64-8.33-1.59-8.53.05-.21,2.57-6.78,5.45-7.55s23.74-2.47,23.74-2.47c0,0-1.39-13.05,2.31-19.22"/>
    </g>
    <line class="cls-4" x1="111.67" y1="99.7" x2="109.36" y2="106.07"/>
    <g class="cls-5">
      <path class="cls-4" d="M112.29,106.99s-6.53-3.08-14.85-1.03c-8.32,2.06-14.18,7.04-15.88,10.02"/>
      <path class="cls-4" d="M87.73,123.39s-2.06-8.38-7.35-7.24c0,0-4.06-.36-2.67,10.95,1.39,11.3,2.57,25.59,2.67,25.85.1.26,3.65,2.16,3.65,2.16l103.59,22.56"/>
    </g>
    <line class="cls-4" x1="84.28" y1="130.94" x2="185.62" y2="145.95"/>
    <g class="cls-7">
      <path class="cls-4" d="M213.77,106.58s-1.85.41-2.77.51c-.93.1-8.74,1.7-19.48.72-10.74-.98-16.24-2.47-17.01-3.03-.77-.57-3.85-.62-4.11-.57-.26.05-30.42-1.59-30.42-1.59,0,0-20.71,1.75-25.44-.92-4.73-2.67-5.65-5.65-4.06-11.05,1.59-5.39,2.26-6.52,12.95-6.63,10.69-.1,15.67.21,17.88.77,2.21.57,3.19,1.28,3.19,1.28,0,0,6.78-.57,13.77-.36,6.99.21,11.15,1.95,12.38,2.31,1.23.36,3.13,1.34,3.13,1.34,0,0,1.13-1.44,3.8-1.39,2.67.05,30.68.62,34.38,1.44,3.7.82,4.83,5.19,4.83,5.19,0,0-1.4,5.62-3.03,12.17-2.27,9.13-4.99,20.05-4.99,20.05,0,0-5.14-1.44-16.19,4.52l-46.81-4.98-33.61-5.5-24.05,3.6s-3.96,2.52-3.91,6.53c.05,4.01.98,6.63.98,6.63l100.51,18.24,2.16,22.61,8.12,2.83,30.01-14.18-.31-28.01c-.77-10.58-16.5-12.54-16.86-12.43"/>
      <path class="cls-4" d="M212.34,89.52s-4.16,10.33,1.03,17.11"/>
      <path class="cls-4" d="M212.9,106.79s-6.58,5.91-5.4,19.89"/>
      <path class="cls-4" d="M173.75,89.27s-4.52,8.63-.1,15.11c0,0-.46,6.06-1.49,12.02-1.03,5.96-1.59,10.89-1.59,12.54"/>
      <path class="cls-4" d="M166.09,128.58s4.26-23.74,4.06-24.31c-.21-.56-4.47-8.79.41-16.19"/>
      <path class="cls-4" d="M144.61,86.03s-2.77-.51-4.62,3.29c-1.85,3.8-2.57,9.81.05,13.26"/>
      <path class="cls-4" d="M138.75,102.68s-1.39,17.27-4.37,21.99c0,0-15.16,3.8-17.37,5.55-2.21,1.75-2.52,5.24-2.52,5.24"/>
      <path class="cls-4" d="M84.13,116.96s6.32-12.85,27.95-9.51"/>
    </g>
    <line class="cls-4" x1="84.26" y1="139.17" x2="86.43" y2="155.69"/>
    <g class="cls-6">
      <path class="cls-4" d="M123.3,174.62c.41,3.43-5.52,7.06-13.12,9.49-7.61,2.43-22.95,4.45-28.64,4.86-5.69.41-23.81,1.16-37.37-.31-13.57-1.47-24.2-3.49-32.22-7.29-8.02-3.8-6.49-7-6.49-7"/>
      <path class="cls-4" d="M108.78,184.48l.1,26.82s-.24,2.91,1.78,3.22c2.02.31,2.33-2.16,2.26-3.56-.07-1.4.03-27.75.03-27.75"/>
      <path class="cls-4" d="M68.56,189.52l.03,39.29s.14,3.84-2.57,3.87c-2.71.03-2.81-2.84-2.71-4.49.1-1.64,0-38.68,0-38.68"/>
      <path class="cls-4" d="M59.73,189.17l.03,13.42s.14,1.31-2.57,1.32c-2.71.01-2.81-.97-2.71-1.53.1-.56,0-13.21,0-13.21"/>
      <path class="cls-4" d="M18.13,183.87l.03,27.27s0,3.29-1.85,3.39c-1.85.1-2.26-1.85-2.23-3.05.03-1.2.07-29.12.07-29.12"/>
      <path class="cls-4" d="M216.6,94.53s5.33-1.33,7.57,1.61c2.24,2.94,1.96,2.31.98,15.77-.98,13.46-1.12,20.12-1.12,20.12,0,0-.28.91-1.05.91"/>
      <path class="cls-4" d="M166.6,128.47s-15.21,4.42-17.11,12.02"/>
    </g>
    <line class="cls-4" x1="156.3" y1="37.64" x2="156.3" y2="4.67"/>
    <line class="cls-4" x1="161.55" y1="38.07" x2="161.55" y2="5.1"/>
    <line class="cls-4" x1="156.3" y1="77.03" x2="156.3" y2="42.89"/>
    <line class="cls-4" x1="161.55" y1="77.33" x2="161.55" y2="42.68"/>
    <g class="cls-1">
      <path class="cls-4" d="M123.01,174.99s-7.34,11.61-58.59,13.19c-32.68,0-59.17-6.66-59.17-14.88"/>
      <path class="cls-4" d="M5.48,174.9s-4.2-6.98,17.88-12.27c0,0,12.59-3.16,27.69-3.82"/>
      <path class="cls-4" d="M69.97,158.55s26.6.11,43.56,6.43c0,0,12.54,3.49,9.59,10.3"/>
      <path class="cls-4" d="M60.21,145.65c5.07-.14,9.24,1.88,9.32,4.51.07,2.63-3.99,4.87-9.06,5.01-5.07.14-9.24-1.88-9.32-4.52-.07-2.63,3.99-4.87,9.06-5.01Z"/>
      <path class="cls-4" d="M60.41,146.84c2.74-.07,5,.79,5.03,1.92.03,1.14-2.17,2.12-4.91,2.19-2.74.07-4.99-.79-5.03-1.92-.03-1.14,2.17-2.12,4.92-2.19Z"/>
      <path class="cls-4" d="M53.35,153.39s-8.23,12.85,1.45,20.74c9.68,7.9,21.97-4.72,12.81-21.04"/>
      <path class="cls-4" d="M50.09,164.81s7.1,6.34,20.92-.13"/>
      <path class="cls-4" d="M49.94,162.61s7.1,6.33,20.92-.13"/>
    </g>
  </g>
</svg>