<?xml version="1.0" encoding="UTF-8"?>
<svg id="Layer_2" data-name="Layer 2" xmlns="http://www.w3.org/2000/svg" viewBox="0 0 37.59 15.72">
  <defs>
    <style>
      .cls-1 {
        fill: #0016e0;
        opacity: .6;
      }
    </style>
  </defs>
  <g id="Layer_1-2" data-name="Layer 1">
    <path class="cls-1" d="M30.65,7.13c-.09.54-.61,2.25-1.43,1.99-.6-.24-1.38-.1-1.93-.73.15-.22.39-.17.52-.24-.05.24.25.2.4.21.22.02.41-.12.51-.31l.53.06c.19.02.44,0,.57-.07.17-.08.23-.4.16-.54-.16-.32-.51-.17-.73-.07l-.03-.32c.54-.07,1.06-.14,1.42,0Z"/>
    <path class="cls-1" d="M29.21,9.13c.83.26,1.35-1.45,1.43-1.99.47.39.31,1.36.11,1.8-.36.79-1.08.38-1.54.19Z"/>
    <path class="cls-1" d="M29.22,7.13l.03.32v.67l-.53-.06c-.21-.15-.43-.27-.66-.38-.02-.58.12-.93.51-.93.2,0,.44.32.65.38Z"/>
    <path class="cls-1" d="M28.72,8.06c-.11.19-.29.33-.51.31-.14-.01-.45.03-.4-.21.1-.27.17-.39.25-.49.23.11.45.23.66.38Z"/>
    <path class="cls-1" d="M29.25,8.11v-.67c.21-.11.57-.25.73.07.07.14,0,.46-.16.54-.13.06-.38.09-.57.07Z"/>
    <path class="cls-1" d="M35.68,3.34c0,.21-.16.36-.23.83.25.16.29-.33.6-.45.25-.1-.22-.56-.34-.67.03-.09.13-.15.17-.23l.54.04c.02.07,2.15,10,.61,8.44-.36-.6-.58-6.6-1.24-6.16-.12-.08-.23-.53-.53-.35,0,.64-.15,1.21-.51,1.65-.69.24.84-3.1.49-3.66.26.05.39.34.44.57Z"/>
    <path class="cls-1" d="M24.9,1.16c.44.9.32,1.93.49,2.86l-.59.03c-.19-.87-.18-1.75-.64-2.73l-1.39,3.89c-.16-.1-.34-.17-.52-.22.51-1.47.63-3.17,1.46-4.51.17.43.81.5,1.2.67Z"/>
    <path class="cls-1" d="M35.95,2.08l-.07.74c-.04.08-.14.14-.17.23s-.03.2-.03.3c-.05-.23-.18-.52-.44-.57-1.44-.3-2.87-.57-4.29-.94.14-.17.21-.38.24-.6,1.59.24,3.19.48,4.76.86Z"/>
    <path class="cls-1" d="M35.23,7.38c-.07.17-.08.33-.17.49-.88,1.67-.93,3.67-1.71,5.41-.09,0-.36-.02-.4-.15l1.06-4.64c.1-.43.33-.79.49-1.08.04.09.23.36.37.32s.23-.32.35-.37Z"/>
    <path class="cls-1" d="M31.19,1.23c-.02.22-.1.43-.24.6-1.08-.29-2.34-.04-3.47-.65.03-1.19,2.81-.09,3.71.05Z"/>
    <path class="cls-1" d="M33.35,13.29c.78-1.74.83-3.74,1.71-5.41.04.86-.26,1.64-.48,2.54l-.67,2.67c-.06.24-.4.2-.55.2Z"/>
    <path class="cls-1" d="M24.9,1.16c-.39-.17-1.03-.25-1.2-.67.56-.91,2.62-.37,3.62.23-.91.36-1.75,0-2.43.45Z"/>
    <path class="cls-1" d="M21.58,6.93c.28.02.53-.1.75-.26-.08.26-.35,3.03-1.14,2.85-.66-.15.26-2.22.39-2.59Z"/>
    <path class="cls-1" d="M35.79,5.13c-.18.75-.28,1.52-.56,2.25-.12.05-.21.33-.35.37s-.33-.23-.37-.32c-.16-.37,0-.68.25-.99.36-.44.51-1.01.51-1.65.29-.18.41.27.53.35Z"/>
    <path class="cls-1" d="M25.39,4.02c.11.62.47,1.23.47,1.93-.17.22-.33.46-.6.54-.27-.79-.28-1.63-.46-2.43l.59-.03Z"/>
    <path class="cls-1" d="M25.26,6.49c.27-.08.43-.33.6-.54,0,.43.76,2.48.13,2.53-.69.05-.6-1.6-.73-1.99Z"/>
    <path class="cls-1" d="M22.77,5.21l-.45,1.46c-.22.17-.47.28-.75.26l.67-1.94c.18.05.36.12.52.22Z"/>
    <path class="cls-1" d="M36.42,2.85l-.54-.04.07-.74c.18.04.37.01.45.19.1.21-.02.41.02.58Z"/>
    <path class="cls-1" d="M35.68,3.34c0-.09,0-.21.03-.3.13.11.59.57.34.67-.31.12-.36.61-.6.45.06-.47.23-.62.23-.83Z"/>
    <path class="cls-1" d="M7.45,11.23l-2.96,2.38c-.66.53-1.04,1.44-1.92,1.47l.43-.97c.5-1.12-3.01-.34-2.29-.75,2.27-1.72,4.71-3.26,7.16-4.7.14.23.22.51.16.72-.09.31-.43.41-.65.65-.35.38-.05.86.08,1.2Z"/>
    <path class="cls-1" d="M9.27,10.27c.17.13.27.31.32.51.02.07.02.15.04.22-.15.04-.27.13-.36.26v.19c-.18.02-.28.27-.44.32-.6.18-1.18.6-1.44,1.12-1.07-.14-5.09,4.51-5.29,2.17.14.02.31.02.45.02.87-.02,1.25-.94,1.92-1.47l2.96-2.38,1.82-.96Z"/>
    <path class="cls-1" d="M14.57,6.36c-.61.47-1.27.84-1.72,1.46-.52.35-1.35.58-1.85,1.01-.44.05-.73-.32-.77-.73l.24-.23c.76-.06,1.57-.97,1.21-1.67.02,0,.31-1.49,2.89.17Z"/>
    <path class="cls-1" d="M10.52,6.88l-.05.99-.24.23c-.36.14-.82.31-.91.66-.1.39-.01.76.2,1.03-.12.14-.2.31-.25.49l-1.82.96c-.13-.35-.43-.83-.08-1.2.22-.24.56-.34.65-.65.06-.22-.02-.5-.16-.72.9-.53,1.61-1.44,2.66-1.78Z"/>
    <path class="cls-1" d="M13.37,8.3c-.27.23-3.49,2.77-3.77,2.48-.05-.2-.16-.39-.32-.51.04-.18.12-.35.25-.49.64-.08,1.03-.58,1.48-.96.51-.42,1.33-.65,1.85-1.01.15.19.31.37.52.49Z"/>
    <path class="cls-1" d="M.7,13.36c-.71.4,2.79-.37,2.29.75l-.43.97c-.14,0-.31,0-.45-.02-.32-.05-2.57-.55-2.03-1.43.12-.19.44-.13.62-.27Z"/>
    <path class="cls-1" d="M9.12,13.53c-.41-.49-.11-1.17-.28-1.76.16-.05.26-.3.44-.32.31,0,.32-.29,0-.19.08-.13.21-.22.36-.26l.71,1.94c-.41.3-.85.43-1.23.59Z"/>
    <path class="cls-1" d="M13.37,8.3c-.21-.12-.37-.3-.52-.49.45-.62,1.11-.99,1.72-1.46.17.14.98-.02.69.5-.4.72-1.35.98-1.89,1.44Z"/>
    <path class="cls-1" d="M8.85,11.77c.16.59-.13,1.27.28,1.76-.65.29-1.28-.14-1.72-.64.26-.52.84-.93,1.44-1.12Z"/>
    <path class="cls-1" d="M11.68,6.19c.36.71-.45,1.61-1.21,1.67l.05-.99c.37-.12.68-.69,1.16-.69Z"/>
    <path class="cls-1" d="M9.29,11.45v-.19c.32-.1.31.2,0,.19Z"/>
    <path class="cls-1" d="M10.23,8.09c.04.42.33.78.77.73-.45.38-.85.88-1.48.96-.21-.27-.3-.64-.2-1.03.09-.36.54-.52.91-.66Z"/>
  </g>
</svg>