<?xml version="1.0" encoding="UTF-8"?>
<svg id="Layer_2" data-name="Layer 2" xmlns="http://www.w3.org/2000/svg" viewBox="0 0 57.5 63.07">
  <defs>
    <style>
      .cls-1 {
        fill: #6cbe45;
      }

      .cls-2 {
        opacity: .8;
      }
    </style>
  </defs>
  <g id="Layer_1-2" data-name="Layer 1">
    <g class="cls-2">
      <path class="cls-1" d="M16.43,36.42c0,1.04.56,2.06.26,3.1-.51-.02-.79-.51-1.24-.71l.11-2.15c.02-.36.2-.62.43-.73.12.18.24.38.43.49Z"/>
      <g>
        <path class="cls-1" d="M48.13,42.89c.9.5,1.86.82,2.88.97-.27,1.2-1,2.24-1.56,3.43-1.35,2.83-2.66,5.57-4.16,8.35-2.58.76-5.1.27-7.49-1.03-.71-.39-1.4-.86-2.14-.55-.09,0-.17-.08-.26-.08l-.21-.77c.64-1.01.92-2.24,1.19-3.39.13-.56.14-1.03-.33-1.66.11-.46.22-.55.5-.01.08-.64.24-1.76-.16-2.32-.83-.08-.86,1.02-.89,1.62-.1,2.03-.82,3.89-1.53,5.79-.6,1.62-1.91,2.81-2.98,4.15,0,.3.32.49.36.81-1.08,1.25-2.99,2.37-3.58,3.43-.25,0-.5.09-.76.06-.1-.01-.35.02-.26.17-2.75.35-5.44,1.07-8.39,1.24l-2.89-6.67c-.23-.53-.39-1.1-.4-1.57,1.19.42,2.01-.28,2.82-1.15l.72.06c0,1.04.3,2.05.5,3.06.11.53.43,2.25,1.33,2.3,1.5.09,1.63-3.22,1.18-5-.03-.13-.02-.26.06-.37.47-.11.92-.44.95-1.05.03-.65-.19-1.25-.59-1.65.18-.47.59-1.01.16-1.43l.03-.48c0-.12-.11-.23-.13-.34.07-.58.28-1.3-.33-1.58l-.05-.47c-.05-.46-.13-.89-.48-1.2-.27-.24-.65-.29-.93-.49-.37-.26-.73-.59-1.25-.53,0-1.11-.41-2.19-.22-3.3.79.33,1.32,1.21,2.14,1.45.57.49,1.96,1.79,2.66,1.67,1.42,1.59,5.94,2,7.2.72.58-.59,1.53-.79,2.13-1.47,1.21-1.37.98-3.27,1.47-3.36.12.23-.1.81.18,1.08,2.35,2.3,4.74,4.48,7.32,6.53.46.05.79-.16,1.24,0l-.53,1.78c-.06.19.23.2.32.21.15.01.42-.09.53-.33,1.5-3.25,2.64-4.05,4.62-6.61Z"/>
        <path class="cls-1" d="M17.16,45.32c.92.38-1.43,2.4-.91,3.52.93,1.98,4.06,2.09,5.8,2.19.39.4.61,1,.59,1.65-.02.61-.48.94-.95,1.05-.82-1.03-2.89-1.03-3.79-.05-.8.87-1.62,1.58-2.82,1.15-.58-.53-2.39-4.92-2.4-5.75.68-.22,1-.99,1.19-1.64.87-.2,1.17-1.07,1.78-1.65.37-.35,1.13-.25,1.51-.47Z"/>
        <path class="cls-1" d="M15.46,38.81c.45.2.73.69,1.24.71.26,1.06.75,3.98.52,5-.4.54-1.1.63-1.58,1.08-.93.48-.61-3.9-2.94-4.08.92,1.78.93,3.87,1.17,5.92-.19.65-.51,1.42-1.19,1.64-.15-.09-.37-.2-.47-.45l-1.83-4.38c-.16-.39,0-.84-.1-1.16,1.16-2.69,2.18-3.63,5.18-4.28Z"/>
        <path class="cls-1" d="M36.37,49.81c-.21-.16-.35.1-.43.2-.12.17-.03.46-.1.69l-.72,2.25c-.27.85-1.2,1.47-1.39,2.38-1.2,1.49-1.74,3.59-1.69,5.5-1.39.19-2.8.83-4.26.77.58-1.05,2.5-2.18,3.58-3.43-.04-.33-.35-.52-.36-.81,1.06-1.33,2.38-2.52,2.98-4.15.71-1.9,1.43-3.75,1.53-5.79.03-.6.06-1.7.89-1.62.4.55.24,1.68.16,2.32-.28-.54-.39-.45-.5.01.47.63.46,1.11.33,1.66ZM31.82,57.4c0-.07-.05-.12-.12-.12s-.12.05-.12.12.05.12.12.12.12-.05.12-.12Z"/>
        <path class="cls-1" d="M26.76,61.84c-.09-.15.16-.18.26-.17-.04.12-.15.15-.26.17Z"/>
        <path class="cls-1" d="M20.32,45.03c.28.2.66.26.93.49-.09.72-2.7-.41-2.78,1-.02.28.62.45.86.44.62-.02,1.81-.03,2.45.24.61.28.4,1.01.33,1.58-.75-.3-1.62-.22-2.34.27.94.17,1.69.03,2.46.07l-.03.48c-.18-.03-.33.1,0,0,.43.42.02.96-.16,1.43-1.74-.1-4.87-.21-5.8-2.19-.53-1.12,1.82-3.14.91-3.52,1.49-.85,3.18.32,3.16-.28Z"/>
        <path class="cls-1" d="M49.55,49.36c-.14.4-.21.91-.45,1.24l-.72,1.02c-.91,1.28-1.33,3.04-2.4,4.26-1.79,2.05-9.32-.15-10.34-1.83.74-.31,1.43.17,2.14.55,2.39,1.31,4.91,1.8,7.49,1.03,1.5-2.77,2.82-5.51,4.16-8.35.57-1.19,1.3-2.23,1.56-3.43,1.47.21-.6,3.09-1.45,5.5Z"/>
        <path class="cls-1" d="M36.16,40.97c.22.19.5.47.7.68,1,1.08,1.93,2.27,3.12,3.15.83.92,1.78,1.96,2.94,2.59.61.33.91-.6,1.17-.9,1.16-1.38,2.5-2.5,3.16-4.07.3.02.6.09.88.21v.25c-1.98,2.56-3.11,3.36-4.61,6.61-.11.24-.38.34-.53.33-.09,0-.38-.02-.32-.21l.53-1.78c-.45-.16-.78.05-1.24,0-2.58-2.05-4.97-4.23-7.32-6.53-.28-.27-.05-.85-.18-1.08.63-.11,1.22.33,1.7.75Z"/>
        <path class="cls-1" d="M48.15,35.92c-1.35-.24.68,3.4,2.12,4.06l2.34,1.07c-.28.58-.39,1.42-.41,2.06-.2.56-.92.29-1.19.76-1.02-.15-1.98-.47-2.88-.97v-.25c.33-.42.27-.98.37-1.49l.08-.41c.02-.11.03-.3-.13-.26.23-1.63-2.32-2.3-1.49-4.83.09-.28.52-.23.75-.16.17.05.34.2.44.42Z"/>
        <path class="cls-1" d="M21.63,54.1c.45,1.78.32,5.09-1.18,5-.9-.05-1.22-1.77-1.33-2.3l.4.16c.6.25-.34-2.83,2.11-2.86Z"/>
        <path class="cls-1" d="M21.69,53.73c-.07.11-.09.24-.06.37-2.45.03-1.51,3.11-2.11,2.86l-.4-.16c-.21-1.01-.5-2.02-.5-3.06.44-.84,2.63.22,3.08,0Z"/>
        <path class="cls-1" d="M21.74,46.73c-.78-.04-1.74-.67-2.4.23-.24,0-.88-.16-.86-.44.08-1.4,2.69-.28,2.78-1,.35.31.43.74.48,1.2Z"/>
        <path class="cls-1" d="M19.08,44.5c.51-.06.88.27,1.25.53.02.6-1.67-.57-3.16.28-.38.22-1.14.12-1.51.47v-.19c.46-.45,1.17-.54,1.57-1.08.62.05,1.24.04,1.86-.03Z"/>
        <path class="cls-1" d="M21.69,53.73c-.44.23-2.64-.83-3.08,0l-.72-.06c.91-.98,2.97-.97,3.79.05Z"/>
        <path class="cls-1" d="M36.37,49.81c-.28,1.15-.55,2.39-1.19,3.39l-.06-.24.72-2.25c.07-.23-.02-.52.1-.69.08-.11.21-.36.43-.2Z"/>
        <path class="cls-1" d="M22.12,48.78c.02.12.13.23.13.34-.78-.05-1.53.1-2.46-.07.72-.49,1.58-.57,2.34-.27Z"/>
        <path class="cls-1" d="M21.74,46.73l.05.47c-.65-.26-1.84-.26-2.45-.24.66-.91,1.62-.27,2.4-.23Z"/>
        <path class="cls-1" d="M35.18,53.2l.21.77c-.44,0-.97.2-1.05.76-.07.43-.47.43-.61.61.19-.91,1.12-1.53,1.39-2.38l.06.24Z"/>
        <path class="cls-1" d="M23.66,44.32c-.7.12-2.09-1.18-2.66-1.67.92.27,2.19,1.15,2.66,1.67Z"/>
        <path class="cls-1" d="M15.5,30.13c.33,2.07.1,2.27.56,4.77-1.5-.46-2.63-.98-4.01-1.28-1.71-.37-1.35-2.5-1.39-3.97,0-.31.02-.65.09-.94.19-.73.41-1.39.88-1.95,1.07-.08.76,2.22,3.87,3.36Z"/>
        <path class="cls-1" d="M15.5,30.13c.11.05.29-.05.41-.02.26,2.1.53,4.21.52,6.31-.19-.11-.31-.31-.43-.49.3-1.22-2.49-1.21-4.11-2.02s-2.18-2.89-1.23-4.25c.04,1.47-.32,3.59,1.39,3.97,1.38.3,2.51.81,4.01,1.28-.46-2.51-.23-2.7-.56-4.77Z"/>
        <path class="cls-1" d="M15.64,45.6v.19c-.6.58-.9,1.45-1.77,1.65-.24-2.06-.25-4.14-1.17-5.92,2.33.19,2.01,4.56,2.94,4.08Z"/>
        <circle class="cls-1" cx="31.7" cy="57.4" r=".12"/>
        <path class="cls-1" d="M51.54,33.5c0,.61-.32,1.17-.21,1.91,1-.07,1.09-2.7,3.11-3.59.72.76-1.39,2.84-.62,4.02.38.58,1.46-.01,1.56-.6.66-.09,1.03-.88,1.8-.34,1.25.88-1.69,2.95-2.06,3.41-.14.14-.56.16-.55.47-.9.37-1.53,1.36-1.96,2.26l-2.34-1.07c-1.44-.65-3.47-4.3-2.12-4.06.16.07.31.15.46.24.13.27.09,1.16.49.73.16-.17.7.09.87-.24.72-1.39-.07-3.38.87-4.84.47.5.09,1.29.7,1.7Z"/>
        <path class="cls-1" d="M52.68,32.06c-.18.6-.58,1.14-1.14,1.43-.61-.41-.22-1.2-.7-1.7-.18-.19.16-.82-.09-1.04-.22-.2-1.02-.29-1.18.1-.73,1.74-.41,4.27-.48,6.02-.4.43-.36-.46-.49-.73.7-.38-.46-5.29,1.5-6.04,2.08.16.31,3.93,2.57,1.95Z"/>
        <path class="cls-1" d="M48.5,41.15c-.1.5-.03,1.07-.37,1.49-.28-.13-.58-.19-.88-.21.33-.78.58-.27.8-.68.11-.2.07-.41.06-.59.12.03.27-.03.39-.01Z"/>
        <path class="cls-1" d="M48.58,40.74c-.2.08-.15-.16-.13-.26.17-.04.15.15.13.26Z"/>
        <path class="cls-1" d="M28.96,34.97c.04,1.14-.42,1.98-1.46,2.23-1.24-.78-2.7.22-3.36-.84,1.34-1.02,3.15-1.34,4.83-1.39Z"/>
        <path class="cls-1" d="M24.13,36.36c.66,1.06,2.12.06,3.36.84-1.38.33-2.84.23-4.08-.56v-.24c.24-.02.48-.04.72-.04Z"/>
        <path class="cls-1" d="M23.42,36.64c-.1-.06-.17-.16-.24-.24.08.01.16,0,.24,0v.24Z"/>
        <path class="cls-1" d="M54.44,31.82c-2.02.88-2.11,3.52-3.11,3.59-.11-.74.21-1.3.21-1.91.56-.3.96-.84,1.14-1.43.14-.46.61-.76.96-.93.17,0,.33.08.52.12.29.05.15.43.28.57Z"/>
        <path class="cls-1" d="M22.22,49.6c-.16.05-.21.04-.19.03s.1-.04.19-.03Z"/>
        <path class="cls-1" d="M39.98,44.8c-1.19-.88-2.12-2.07-3.12-3.15.62.04.88.66,1.3,1.13l1.82,2.02Z"/>
        <path class="cls-1" d="M50.84,31.8c-.94,1.47-.15,3.46-.87,4.84-.17.33-.72.07-.87.24.07-1.75-.25-4.28.48-6.02.16-.38.96-.29,1.18-.1.24.21-.09.85.09,1.04Z"/>
        <path class="cls-1" d="M17.62,29.68c-.36-1.49-.46-3.06-.6-4.6,1.59-1.62.68-2.59,3.61-4.01,1.54-.75,4.67-.85,6.35-.46,1.54.35,3.03.71,4.65.12,1.67,3.12,1.06,5.26.14,8.33-1.62,5.36-10.18,4.49-12.74,1.91-.47-.48-.84-1.03-1.39-1.28ZM28.2,24.37c.14.56.46,1.52,1.23,1.52,1.06,0,1.52-1.21,1.18-2.23.3-.29.19-.7-.02-1.1-.35-.65-.82-1.08-1.53-1.08s-1.33.38-1.49,1.14c-.13.62-.01,1.42.63,1.74ZM19.81,25.16c-.08.78.32,1.85,1.17,1.91,1.06.08.93-1,1.29-1.71.26-.51.76-.84.41-1.79-.18-.5-.62-1.14-1.47-1.24-.72-.08-1.3.36-1.57.81-.39.67-.56,1.5.16,2.02ZM26.98,27.98c.08-.02.17-.06.28-.22,0-.03-.05-.12,0-.24.11,0,.28.05.35-.02.28-.25.23-2.28-.54-2.19.09-.71.18-1.83-1.08-1.84s2.05,2.87-1.07,4.74c.78.64,1.41.19,2.06-.24ZM27.21,30.9c-1.15.13-2.11.27-3.36.26,1.03.75,2.29.56,3.36-.26Z"/>
        <path class="cls-1" d="M22.27,25.35c-.11-.61-.5-1.23-1.15-1.32s-1.05.56-1.31,1.13c-.72-.53-.55-1.36-.16-2.02.26-.45.85-.89,1.57-.81.85.1,1.29.74,1.47,1.24.34.96-.15,1.28-.41,1.79Z"/>
        <path class="cls-1" d="M22.27,25.35c-.36.71-.23,1.79-1.29,1.71-.85-.06-1.24-1.13-1.17-1.91.26-.57.63-1.22,1.31-1.13s1.05.72,1.15,1.32Z"/>
        <path class="cls-1" d="M30.61,23.67c.33,1.02-.12,2.24-1.18,2.23-.77,0-1.08-.96-1.23-1.52.12-.6.44-1.19,1.06-1.53.63-.05,1.08.36,1.35.82Z"/>
        <path class="cls-1" d="M27.07,25.32c-.1.82.44,1.54.19,2.2-.05.12,0,.21,0,.24-.1.04-.37.04-.28.22-.65.44-1.28.89-2.06.24,3.11-1.87-.18-4.74,1.07-4.74s1.17,1.12,1.08,1.84Z"/>
        <path class="cls-1" d="M30.61,23.67c-.27-.46-.72-.87-1.35-.82-.62.34-.94.93-1.06,1.53-.64-.32-.76-1.12-.63-1.74.16-.76.81-1.14,1.49-1.14s1.18.43,1.53,1.08c.21.4.33.81.02,1.1Z"/>
        <path class="cls-1" d="M27.21,30.9c-1.08.82-2.34,1.01-3.36.26,1.25,0,2.21-.13,3.36-.26Z"/>
        <path class="cls-1" d="M27.26,27.52c.25-.66-.29-1.38-.19-2.2.77-.1.82,1.94.54,2.19-.07.06-.24.02-.35.02Z"/>
        <path class="cls-1" d="M26.98,27.98c-.09-.17.17-.18.28-.22-.1.16-.2.2-.28.22Z"/>
      </g>
      <g>
        <path class="cls-1" d="M13.55,12.41c.04,1.04.15,2.09.3,3.12-1.71,2.12-2.04,4.99-2.22,7.68-3.45,1.32-4.93,2.54-9.03,2.21-.39-.25-2.43-4.97-2.18-5.35,1.35-1.97,3.1-3.43,5.47-4.02.76-.19,1.72.02,2.48-.28.83-.32,1.18-1.49,1.86-1.92.02-.01,3.18-1.85,3.31-1.43Z"/>
        <path class="cls-1" d="M5.9,16.05c-2.38.59-4.12,2.05-5.47,4.02-.49-.46-.44-1.27-.4-1.93.15-2.34.39-4.7,1.09-6.94,1.08-3.48,3.16-6.64,6.22-8.63.08-.05,3.63-1.88,4.12-1.09.1.16.2.58.02.86-2.57,3.89-3.62,8.47-3.38,13.12-.71.47-2.29.05-2.2.59Z"/>
        <path class="cls-1" d="M36.3,22.79c1.09.93,1.46,2.42,1.99,3.76.66,6.88-3.46,4.52-5.41,8.91-.36.8-1.36,1.49-1.13,2.62.7-.89.64-1.8,1.35-2.24.93.26.75,3.21,1.36,4.38-.49.09-.26,1.99-1.47,3.36-.6.68-1.55.88-2.13,1.47-1.83.24-3.75.54-5.6-.17-.57-.22-1.03-.65-1.6-.55-.46-.52-1.74-1.41-2.66-1.67-.83-.24-1.36-1.12-2.14-1.45-.58-2.45.03-1.92-.74-4.95-.22-.85.21-1.96-.28-3.12,1.37.07,2.29.99,3.39,1.4-.09,1.03,1,1.73,1.95,1.87.07.08.14.18.24.24,1.24.79,2.7.89,4.08.56,1.05-.25,1.5-1.09,1.46-2.23.32-.34.23-.82.18-1.25.68-.68,1.71-.73,2.21-1.59,1.55-.8,1.77-2.51,2.58-3.86.92-1.55,2.05-2.97,1.98-5.09,0-.14.28-.45.39-.39ZM31.27,38.98c.06-.44.29-.41.3-.64-.27.05-.4.25-.46.36-.09.14.07.44.17.29Z"/>
        <path class="cls-1" d="M33.22,16.45c0,.38.16.72.45,1.06,2.27,2.62,1.96,4.72,2.62,5.28-.11-.05-.39.25-.39.39.07,2.12-1.06,3.54-1.98,5.09-.21.09-.27-.25-.25-.49.22-2.82-.02-5.47-1.35-8.05-1.63.49-3.07-.57-4.57-.6-.78-.01-1.59.55-2.5.13-.56-.26-1.89-.23-2.45,0-1.52.61-2.22-.13-4.87,1.57-.71.46-.76,1.61-1.26,2.17-.39-.35-.38-.94-.45-1.54l-.86-7.87c.76-.06,1.39-.53,2.21-.82,4.87-1.7,10.19-.47,14.19,2.78.5.4.85.85,1.44.89Z"/>
        <path class="cls-1" d="M27.98,4c.08.02.16-.01.24,0,.55.79,1.51,1.34,2.4,1.68,2.14,1.64,4.11,3.51,5.79,5.75.26.35.18.68.27.97,0,.04-.09.18-.17.2-2.37-1.09-4.76-2.23-7.33-2.59-3.74-1.77-5.72,1.98-6.62.31-1.55-2.88-3.52-5.48-6.09-7.5-.76-.59-1.47-1.06-2.04-2.13,3.6-.24,7.15.38,10.42,1.84,1.12.5,2.04,1.2,3.13,1.46Z"/>
        <path class="cls-1" d="M29.18,10.01c2.56.36,4.96,1.5,7.33,2.59.09-.02.17-.17.17-.2.08.26.32.45.07.74-.81.94-2.91,1.17-3.52,3.3-.59-.04-.94-.49-1.44-.89-4-3.25-9.32-4.48-14.19-2.78-.82.29-1.45.76-2.21.82-.07-.69-.2-1.38-.18-2.07,1.84-.83,3.86-.76,5.86-.77.57.15,1.2.52,1.92.62,1.83-1.19,4.07-1.66,6.21-1.36Z"/>
        <path class="cls-1" d="M23.91,1.6l3.69,1.84c.28.14.42.32.38.57-1.09-.26-2.01-.96-3.13-1.46-3.27-1.46-6.83-2.08-10.42-1.84.57,1.07,1.28,1.54,2.04,2.13,2.57,2.01,4.54,4.61,6.09,7.5.9,1.67,2.88-2.08,6.62-.31-2.14-.3-4.38.17-6.21,1.36-.72-.1-1.34-.47-1.92-.62.2-.16.54-.24.77-.49-.34-1.7-1.66-2.65-2.72-3.86-.59-.66-.88-1.32-2-1.19-1.76.2-2.95-1.98-4.26-2.92-1.44,1.01-1.42,2.73-1.76,4.28-.54,2.48-1.15,4.83-.84,7.28-.67.44-1.03,1.6-1.86,1.92-.77.3-1.72.1-2.48.28-.09-.54,1.48-.12,2.2-.59-.23-4.66.82-9.23,3.38-13.12.19-.28.08-.71-.02-.86-.49-.79-4.04,1.04-4.12,1.09v-.25C10.97.33,15.19-.61,19.32.43l4.59,1.16Z"/>
        <path class="cls-1" d="M30.62,5.68c-.89-.34-1.85-.89-2.4-1.68.88.42,1.65,1.1,2.4,1.68Z"/>
        <path class="cls-1" d="M18.12,36.25c.77,3.04.16,2.51.74,4.95-.19,1.11.22,2.19.22,3.3-.62.07-1.24.08-1.86.03.23-1.02-.26-3.95-.52-5,.3-1.04-.26-2.06-.26-3.1,0-2.11-.26-4.21-.52-6.31l-.56-4.57-1.5-10.01c-.15-1.03-.26-2.08-.3-3.12l.24-.45c.21,0,.44.14.48.46l1.24,8.87c.31,2.21.75,4.3.86,6.55.06,1.34.11,8.51,1.74,8.41Z"/>
        <path class="cls-1" d="M30.86,45.04c-1.26,1.28-5.78.87-7.2-.72.57-.1,1.03.34,1.6.55,1.85.7,3.77.41,5.6.17Z"/>
        <path class="cls-1" d="M21.05,10.75c-2,.01-4.02-.06-5.86.77-.46.21-1.08-.16-1.4.43l-.24.45c-.13-.42-3.29,1.42-3.31,1.43-.31-2.45.3-4.8.84-7.28.34-1.54.32-3.27,1.76-4.28,1.32.94,2.51,3.12,4.26,2.92,1.11-.12,1.41.53,2,1.19,1.07,1.21,2.38,2.16,2.72,3.86-.23.25-.57.33-.77.49Z"/>
        <path class="cls-1" d="M15.91,30.11c-.12-.02-.3.07-.41.02-3.1-1.14-2.8-3.45-3.87-3.36.47-.56-.01-3.34,0-3.56.17-2.7.5-5.57,2.22-7.68l1.5,10.01.56,4.57Z"/>
        <path class="cls-1" d="M33.09,35.83c-.71.44-.65,1.35-1.35,2.24-.23-1.12.77-1.82,1.13-2.62.11.1.18.23.22.38Z"/>
        <path class="cls-1" d="M28.96,34.97c-1.67.05-3.49.37-4.83,1.39-.24,0-.48.02-.72.04-.08,0-.16.01-.24,0-.95-.14-2.04-.84-1.95-1.87,2.42.3,4.71-.09,7.06-.62l.85-.19c.05.43.14.91-.18,1.25Z"/>
        <path class="cls-1" d="M33.93,28.27c-.8,1.35-1.02,3.06-2.58,3.86l-3.07,1.58c-1.65.85-8.21,1-10.36-1.45-.55-.69-.14-1.87-.31-2.59.55.25.92.8,1.39,1.28,2.57,2.59,11.12,3.45,12.74-1.91.93-3.07,1.53-5.21-.14-8.33-1.61.6-3.11.24-4.65-.12-1.67-.39-4.8-.28-6.35.46-2.93,1.42-2.02,2.39-3.61,4.01-.06-.7-.35-1.36-.34-2.07.5-.56.55-1.71,1.26-2.17,2.64-1.7,3.35-.96,4.87-1.57.56-.23,1.89-.26,2.45,0,.91.42,1.73-.15,2.5-.13,1.5.03,2.94,1.09,4.57.6,1.34,2.58,1.57,5.23,1.35,8.05-.02.24.04.58.25.49Z"/>
        <path class="cls-1" d="M15.2,11.52c-.02.69.11,1.38.18,2.07l.86,7.87c.06.59.05,1.19.45,1.54,0,.71.28,1.37.34,2.07.14,1.54.24,3.11.6,4.6.17.72-.24,1.89.31,2.59,2.15,2.45,8.71,2.3,10.36,1.45v.19c-2.36.53-4.65.92-7.06.62-1.09-.41-2.01-1.33-3.39-1.4.49,1.16.06,2.27.28,3.12-1.62.1-1.67-7.07-1.74-8.41-.11-2.25-.55-4.34-.86-6.55l-1.24-8.87c-.05-.32-.27-.46-.48-.46.32-.59.95-.23,1.4-.43Z"/>
        <path class="cls-1" d="M29.14,33.72l-.85.19v-.19s3.07-1.58,3.07-1.58c-.5.86-1.53.9-2.21,1.59Z"/>
        <path class="cls-1" d="M31.27,38.98c-.1.16-.26-.14-.17-.29.07-.11.19-.31.46-.36,0,.23-.24.21-.3.64Z"/>
      </g>
    </g>
  </g>
</svg>