<?xml version="1.0" encoding="UTF-8"?>
<svg id="Layer_2" data-name="Layer 2" xmlns="http://www.w3.org/2000/svg" xmlns:xlink="http://www.w3.org/1999/xlink" viewBox="0 0 176.14 147.65">
  <defs>
    <style>
      .cls-1, .cls-2 {
        fill: none;
      }

      .cls-3 {
        clip-path: url(#clippath-1);
      }

      .cls-2 {
        stroke: #231f20;
        stroke-width: .29px;
      }

      .cls-4 {
        clip-path: url(#clippath);
      }
    </style>
    <clipPath id="clippath">
      <rect class="cls-1" width="176.14" height="147.65"/>
    </clipPath>
    <clipPath id="clippath-1">
      <rect class="cls-1" width="176.14" height="147.65"/>
    </clipPath>
  </defs>
  <g id="Layer_1-2" data-name="Layer 1">
    <g class="cls-4">
      <path class="cls-2" d="M139.17,76.41s-4.33,3.73-12.99,1.7c-8.66-2.03-14.84-9.5-20.81-12.18-5.97-2.69-9.55-3.64-17.79-1.28-8.24,2.36-16.45,10.39-19.83,14.81-3.37,4.42-7.5,12.48-10.34,25.95-2.83,13.47-4.42,34.05-3.8,38.54,0,0-1.66-1.73-1.93-1.66-.28.07-2.42,1.66-2.42,1.66,0,0,.97-3.38.42-3.59-.55-.21-2.9,3.25-2.9,3.25,0,0-.14-4.01-.76-3.8-.62.21-.62,3.8-.69,3.32-.07-.48-3.66-4.97-3.94-4.56-.28.42,1.66,4.56,1.31,4.14-.35-.41-3.39-4.01-3.94-3.31-.55.69,3.18,6.08,2.69,5.66-.48-.42-6.49-4.7-10.57-4.01.21.28,1.86,1.66,1.86,1.66,0,0-17.61-2.49-34.68.9"/>
      <path class="cls-2" d="M62.32,54.92s3.32,6.22-2,13.47c-5.32,7.25-16.51,17.2-22.66,36.47-6.15,19.27-7.6,32.95-7.88,37.44"/>
      <path class="cls-2" d="M53.34,143.89s27.56-5.59,69.08-3.11c41.52,2.49,53.53,6.01,53.53,6.01"/>
      <path class="cls-2" d="M70.41,51.95s3.87,6.87,1.86,9.84"/>
      <path class="cls-2" d="M92.1,49.01s.59,6.04-7.67,9.95c-.28.1-6.08,3.21-7.77,3.11-1.69-.1-3.14-.24-5.53,2.8"/>
      <path class="cls-2" d="M74.55,62.13c-.41.07-3.28-1.97-5.73,2.66"/>
      <path class="cls-2" d="M105.53,50.01s-4.66,3.97-10.71,7.29"/>
      <path class="cls-2" d="M100.8,49.42c-.35.17-3.01,3.21-3.83,2.97-.83-.24-2.21-.93-3.18.93"/>
      <path class="cls-2" d="M97.35,52.43c-.31-.07-1.14-2.66-4.35-.14"/>
    </g>
    <line class="cls-2" x1="95.03" y1="47.7" x2="95.72" y2="51.25"/>
    <g class="cls-3">
      <path class="cls-2" d="M95.55,57.96c-.21,0-.62-2-5.8.52"/>
      <path class="cls-2" d="M134.34,75.57c-.28,0-2.25,1.73-12.4-3.18-10.15-4.9-17.13-11.36-22.17-13.57-5.04-2.21-6.53-.03-11.4,2.28"/>
      <path class="cls-2" d="M133.89,73.12c-.17.28-.28,2.94,1.21,3.25,1.48.31,2.35.35,1.11-3.38"/>
      <path class="cls-2" d="M136.75,75.33s-.07.04.97.21c1.04.17,1.31-.28,1.31-.28,0,0-.69,1.9,2,2.28,2.69.38,2.52-1.52,2.52-1.52,0,0,1.14,2.83,3.59,2.31,2.45-.52.24-3.9.24-3.9,0,0,2.83,1.07,4.7-.21,1.86-1.28-1.87-3-1.87-3,0,0,4.73,1.04,4.7-1.35-.04-2.38-2.35-2.66-2.35-2.66,0,0,3.87,0,3.18-2.8-.69-2.8-3.14-1.55-3.14-1.55,0,0,2.45-2.69.93-3.83-1.52-1.14-2.55,1.14-2.59.69-.03-.45.97-3.8-.48-3.21-1.45.59-1.28,2.56-1.28,2.56"/>
      <path class="cls-2" d="M151.29,56.99s3.25-.83,1.38-2.18c-1.87-1.35-3.66-.83-3.66-.83,0,0,2.69-1.38,1.18-2.42-1.52-1.04-2.28-.21-2.28-.21,0,0,2.76-4.49-.93-5.21-3.7-.73-3.42,2.28-3.42,2.28,0,0-1.04-4.25-3.94-2.83-2.9,1.42-1.73,3.04-1.73,3.04,0,0-1.62-2.04-2.59-1.24-.97.79-1.1,1.28-1.1,1.14s.9-4.28-2.52-2.45c-3.42,1.83-1.86,3.94-1.86,3.94,0,0-2.83-3.38-4.01-.97-1.17,2.42.52,3.32.28,3.18-.24-.14-2.38-2.8-3.94-.31-1.55,2.49-.04,3.35-.04,3.35,0,0-2.62-.66-2.66,1.14s.69,2.59.52,2.52-2.14-1.24-2.31.14c-.17,1.38,1.35,2,1.35,2,0,0-1.87.73-1.04,1.76s1.52.55,1.38.66c-.14.1-2.8.97-1.45,1.9,1.35.93,1.62.03,1.66.21.03.17-.86.59.59,1.1,1.45.52,1.8.1,1.8.1,0,0-2.07.52-.31,1.31,1.76.79,2.49.45,2.49.45,0,0-1.97.83-.62,1.38,1.35.55,1.83.24,1.83.24,0,0-.41.9.9,1.24,1.31.35,1.14-.04,1.14-.04,0,0-.17.62.73.48.9-.14,1.14-.59,1.14-.59,0,0-.66,1.14.14,1.45.79.31,1.24-.69,1.17-.52-.07.17-1.24.93.48,1.93,1.73,1,2.73-.03,2.73-.03"/>
      <path class="cls-2" d="M80.11,45.76c-.21.07.1,1.31-2.83,1.97,0,0,2.9.66,2.56,2.52-.35,1.87-4.01,2.24-5.32-.55,0,0,1.66,3.52-.86,4.25-2.52.73-3.39-2.56-3.39-2.56,0,0,1.17,4.49-2.76,4.42-3.94-.07-2.18-4.04-2.38-3.97-.21.07-1.93,4.11-3.87,3.25-1.93-.86-.86-2.66-.86-2.66,0,0-1.49,1.69-2.42,1.11-.93-.59-.52-1.17-.52-1.17,0,0-1.04.93-2.49.28-1.45-.66-1.31-1.45-1.31-1.45,0,0-.66,1.38-2.07.93-1.42-.45-1.07-1.62-1.07-1.62,0,0-.86.97-1.17-.59-.31-1.55.97-2.42.97-2.42,0,0-1.31-.21-1.31-1.38,0,0-2.11-.73-1.17-2.29.95-1.55,1.62-1.22,1.62-1.22,0,0-3.44-1.62-2.43-3.99s2.36-2.16,2.36-2.16c0,0-2.63-2.5-.27-3.58,2.36-1.08,3.78.07,3.78.07,0,0-1.76-1.62.74-2.7,2.5-1.08,5.07-.14,5.07-.14"/>
      <path class="cls-2" d="M68.89,16.37c-.21-1.35-1.66.38-1.66.38,0,0,.55-1.35-1.04-1.38-1.59-.03,0,1.76.03,1.97.03.21-1.21-.41-2.49,1-1.28,1.42,1.87,1.59,1.87,1.59,0,0-1.38-.45-1.87.93-.48,1.38,1.97,1.59,2.14,1.69.17.1-.62.1-1.42.76-.79.66-.24,1.45-.24,1.45,0,0-1.62-1.31-3.73-.55-2.11.76.21,2.42.21,2.42,0,0-1,.07-1.87,1.8-.86,1.73,1.21,2.8,1.21,2.8,0,0-1.59.69-.76,3,.83,2.31,3.21,1.35,3.21,1.35,0,0-1.55,1.31.35,3.01,1.9,1.69,3.18.21,3.18.21,0,0-.55,1.17,1.11,1.93,1.66.76,3-1.04,3-1.04,0,0-.76,1.55.93,2.59,1.69,1.04,2-.24,2-.24,0,0,.04,1.59,1.59,2.14,1.55.55,3.8-1.07,3.8-1.07,0,0-.35,1.83,1,2.56,1.35.73,1.62-.83,1.62-.83,0,0,0,1.14,1.8,1.8,1.8.66,1.9-1.42,1.9-1.42,0,0-.03,1.66,1.42,2.42,1.45.76,1.8-.41,1.8-.41,0,0-.07.69.35,1.07.41.38,1.35-.66,1.35-.66,0,0-.14,1,1.59,1.52,1.73.52,2.38-1.86,2.38-1.86,1.87,1.14,2.83.03,3.01-.03.17-.07-.55.55.55.76,1.11.21,2.42-1,2.42-1,0,0-.48,2.42,1.62,2.42s2.31-1.76,2.31-1.76c.69,1.35,1.28,2.94,2.9,2.21,1.62-.73,1.17-2.66,1.17-2.66,0,0,.83,1.24,2.76,1.49,1.93.24,1.97-1.11,1.97-1.11,0,0,.21.86,2.38.45,2.18-.41.21-2.62.21-2.62,0,0,.31.21,1.55.31,1.24.1,1.28-.59,1.28-.59,0,0,.28.76,1.93.93,1.66.17,1.07-1.59,1.07-1.59,0,0,.35.76,1.93,1.14,1.59.38.76-1.73.83-1.94.07-.21.31.93,2.59.9,2.28-.03-.14-2.07-.21-2.24-.07-.17.86,1.28,3.11,1.17,2.24-.1-.21-3.25-.21-3.25,0,0,1.07.93,3.18.69,2.11-.24-.14-1.9-.14-1.9,0,0,1.04,1.17,2.52.48,1.49-.69-.93-3.07-.93-3.07,0,0,1.1,1.24,4.18,1.8,3.07.55,3.28-2.21,3.28-2.21,0,0-.17.72,1.76.79s2.18-1.17,2.18-1.17c0,0,2.11,1.66,3.94-.28,1.83-1.93-1.83-.83-1.83-.83,0,0,1.66-.35.35-1.24-1.31-.9-2.49.52-2.49.52,0,0,.35-.31.04-1.31-.31-1-2.8-1.59-2.8-1.59,0,0,2,.38,2.97-.41.97-.79-2.35-1.66-2.52-1.69-.17-.03,1.87.73,2.8-.17.93-.9-5.67-2.59-5.67-2.59,0,0,.31-.45-1.04-1.31-1.35-.86-2.62-.55-2.62-.55,0,0,.24-.76-1.17-1.69-1.42-.93-4.14-1.97-4.14-1.97,0,0,3.8.21,4.59-1.24.79-1.45-4.08-.69-4.08-.69,0,0,4.56-.07,4.77-1.42s-5.18-.62-5.18-.62c0,0,1.97-1.73.72-3.31-1.24-1.59-3.59,1.45-3.59,1.45,0,0-.55-2.28-2.8-3.28s-1.11.97-1.11.97l-2.31-.55s.79-1.83-.21-3.52c-1-1.69-3.32-1.83-3.32-1.83,0,0,2.31.04,1.21-1.49-1.11-1.52-4.35.28-4.35.28,0,0,.86-2-.9-3.21-1.76-1.21-3.32.62-3.14.66.17.03-4.11-1.87-6.22-1.52-2.11.35.03,2.11.03,2.11,0,0-.79-.21-2.14-.14-1.35.07-2.45.76-2.45.76,0,0,.79-.62-.38-1.17-1.17-.55-3.18,1.31-3.18,1.31,0,0-.97-1.97-3.83-1.66-2.87.31-2.8,1.55-2.8,1.55,0,0-2.97-.83-4.35.21-1.38,1.04.07,1.35.07,1.35-3.11.14-4.84,2.56-4.84,2.56,0,0-1.04-.76-2.55-.48-1.52.28-.69,1.17-.69,1.17,0,0-.83-1.73-4.49-.76-3.66.97-2.21,4.56-2.21,4.56"/>
    </g>
  </g>
</svg>