<?xml version="1.0" encoding="UTF-8"?>
<svg id="Layer_2" data-name="Layer 2" xmlns="http://www.w3.org/2000/svg" xmlns:xlink="http://www.w3.org/1999/xlink" viewBox="0 0 188.5 85.52">
  <defs>
    <style>
      .cls-1 {
        clip-path: url(#clippath-4);
      }

      .cls-2 {
        stroke: #231f20;
        stroke-width: .39px;
      }

      .cls-2, .cls-3 {
        fill: none;
      }

      .cls-4 {
        clip-path: url(#clippath-1);
      }

      .cls-5 {
        clip-path: url(#clippath-5);
      }

      .cls-6 {
        clip-path: url(#clippath-3);
      }

      .cls-7 {
        clip-path: url(#clippath-2);
      }

      .cls-8 {
        clip-path: url(#clippath);
      }
    </style>
    <clipPath id="clippath">
      <rect class="cls-3" width="188.5" height="85.52"/>
    </clipPath>
    <clipPath id="clippath-1">
      <rect class="cls-3" width="188.5" height="85.52"/>
    </clipPath>
    <clipPath id="clippath-2">
      <rect class="cls-3" width="188.5" height="85.52"/>
    </clipPath>
    <clipPath id="clippath-3">
      <rect class="cls-3" width="188.5" height="85.52"/>
    </clipPath>
    <clipPath id="clippath-4">
      <rect class="cls-3" width="188.5" height="85.52"/>
    </clipPath>
    <clipPath id="clippath-5">
      <rect class="cls-3" width="188.5" height="85.52"/>
    </clipPath>
  </defs>
  <g id="Layer_1-2" data-name="Layer 1">
    <g class="cls-8">
      <path class="cls-2" d="M31.51,33.49c.24.05,45.81,0,45.81,0v27.22"/>
      <path class="cls-2" d="M23.11,30.24c.24,0,4.06-.28,7.36,1.51,3.3,1.79-.33,5.24-7.31,5.19"/>
      <ellipse class="cls-2" cx="22.53" cy="33.68" rx="1.16" ry="3.59"/>
      <path class="cls-2" d="M21.56,36.13S2.12,40,1.18,56.56c.24.05,4.81.14,4.81.14,0,0,2.03-10.24,16.18-12.5"/>
      <ellipse class="cls-2" cx="28" cy="63.92" rx="20.73" ry="20.43"/>
      <path class="cls-2" d="M27.97,60.33c1.8,0,3.25,1.44,3.25,3.21s-1.46,3.21-3.25,3.21-3.26-1.44-3.26-3.21,1.46-3.21,3.26-3.21Z"/>
      <ellipse class="cls-2" cx="155.58" cy="63.78" rx="20.66" ry="20.14"/>
      <path class="cls-2" d="M155.29,60.05c1.82,0,3.3,1.5,3.3,3.35s-1.48,3.35-3.3,3.35-3.3-1.5-3.3-3.35,1.48-3.35,3.3-3.35Z"/>
      <path class="cls-2" d="M46.73,55.07s4.49,9.74,5.5,11.46c1.01,1.72,3.18,3.13,5.6,3.03,2.42-.1,73.78-.17,73.78-.17,0,0,1.23-10.28,6.04-15.85"/>
    </g>
    <rect class="cls-2" x="69.63" y="60.48" width="55.48" height="4.1"/>
    <g class="cls-4">
      <path class="cls-2" d="M94.39,44.34s-.52,1.32.38,1.27c.9-.05,2.45-.14,2.78.14.33.28,1.79.42,3.02.05,1.23-.38,1.37-1.18.09-1.6-1.27-.42-2.26-.33-2.88-.05-.61.28-2.97-.24-3.4.19Z"/>
      <path class="cls-2" d="M77.32,39.15s.52,3.21,6.6,2.97c6.09-.24,29.25-.19,29.25-.19,0,0,5.57.19,9.01-8.4,0,0,25-.66,28.87,1.32"/>
    </g>
    <line class="cls-2" x1="126.66" y1="33.4" x2="126.66" y2="52.74"/>
    <g class="cls-7">
      <path class="cls-2" d="M124.68,60.52s-.19-10,11.89-20.14c12.08-10.14,32.41-5.61,41.42,4.67,9.01,10.28,9.34,17.12,9.34,17.12h-9.1s-2.74-14.39-16.27-17.69"/>
      <path class="cls-2" d="M29.67,35.57s26.09.61,40.05,24.95"/>
      <path class="cls-2" d="M67.65,10.42l62.46.09s1.51.1,1.42-1.6c-.1-1.7,0-2.36-1.98-2.64-1.98-.28-25.57-5.1-47.74-2.08,0,0-11.65,1.37-13.68,2.26-2.03.9-1.7,3.54-.47,3.96Z"/>
    </g>
    <line class="cls-2" x1="68.31" y1="10.61" x2="68.16" y2="33.73"/>
    <line class="cls-2" x1="71.09" y1="10.42" x2="71.18" y2="33.63"/>
    <line class="cls-2" x1="73.21" y1="10.47" x2="73.21" y2="33.44"/>
    <line class="cls-2" x1="75.38" y1="10.33" x2="75.48" y2="33.59"/>
    <line class="cls-2" x1="73.21" y1="11.37" x2="71.09" y2="13.11"/>
    <line class="cls-2" x1="68.31" y1="16.46" x2="51.18" y2="33.54"/>
    <line class="cls-2" x1="43.73" y1="33.49" x2="67.32" y2="10.38"/>
    <line class="cls-2" x1="45.52" y1="33.59" x2="68.4" y2="10.85"/>
    <line class="cls-2" x1="97.65" y1="42.12" x2="97.65" y2="10.42"/>
    <line class="cls-2" x1="100.15" y1="10.52" x2="100.15" y2="42.03"/>
    <g class="cls-6">
      <path class="cls-2" d="M100.2,38.63s16.09-.19,16.98-.05c.9.14,1.13.9,1.13.9"/>
      <path class="cls-2" d="M111.05,38.63s.57-3.49,5.14-5.71c4.58-2.22,10.8-2.36,10.8-2.36"/>
    </g>
    <line class="cls-2" x1="124.96" y1="30.61" x2="124.87" y2="10.47"/>
    <line class="cls-2" x1="122.18" y1="10.42" x2="122.41" y2="31.28"/>
    <line class="cls-2" x1="126.9" y1="33.49" x2="126.8" y2="10.47"/>
    <line class="cls-2" x1="129.4" y1="10.47" x2="129.54" y2="33.73"/>
    <polyline class="cls-2" points="78.68 40.99 87.4 33.6 93.72 35.8"/>
    <g class="cls-1">
      <path class="cls-2" d="M95.54,38.07l-9.4-14.4s-1.7-2.23-.66-2.55c1.04-.31,4.34,5.19,5.72,7.05,1.38,1.85,5.5,8.99,5.69,9.47.19.47.25,2.11-1.35.44Z"/>
    </g>
    <polyline class="cls-2" points="93.4 34.89 87.71 32.88 90.67 30.58"/>
    <polyline class="cls-2" points="90.23 29.89 87.27 32.06 87.71 25.99"/>
    <polyline class="cls-2" points="87.05 25.11 86.55 31.87 77.3 39.33"/>
    <g class="cls-5">
      <path class="cls-2" d="M151.38,34.62s-2.93-1.46-2.12-4.06c.8-2.59,2.17-2.97,8.16-1.04,5.99,1.93,21.79,7.5,23.68,9.01,1.89,1.51,2.22,6.42-4.01,5.71"/>
    </g>
    <line class="cls-2" x1="98.89" y1="41.99" x2="98.99" y2="43.79"/>
    <line class="cls-2" x1="98.99" y1="45.99" x2="98.99" y2="60.49"/>
  </g>
</svg>