<?xml version="1.0" encoding="UTF-8"?>
<svg id="Layer_2" data-name="Layer 2" xmlns="http://www.w3.org/2000/svg" viewBox="0 0 26.08 40.81">
  <defs>
    <style>
      .cls-1 {
        fill: #0019ff;
      }

      .cls-2 {
        opacity: .6;
      }
    </style>
  </defs>
  <g id="Layer_1-2" data-name="Layer 1">
    <g class="cls-2">
      <g>
        <path class="cls-1" d="M11.49,31.51c.23,0,.51.11.74.05-.63.48-.25,1.29-.16,2.01.42,3.65,3.56,2.74,4.66,3.26-.82.65-1.09-.04-1.32.72-.29.93,1.09.77,1.86,1.68-.19,1.54-2.48-.97-3.38-.73-.13-.16-.39-.33-.49-.49-.88-1.43-2.12.57-3.05-.68.35-.47.84-.76,1.23-1.2.12-.13.46-.07.51-.26.32-1.36-1.73-3.45-.33-3.98-.39-.1-.55-.19-.71-.38h.44Z"/>
        <path class="cls-1" d="M22.71,36.1c-1.25.97-2.5-1.56-4.24-1.55-.77,0-1.6.37-2.18-.11.56-.29,1.35-.27,1.45-.98.36.23.52-.17.68-.45,1.61,1.57,4.13.44,4.31,1.42-.1.24-.98.28-.77.73.19.42.56.65.76.94ZM21.9,34.96c-.41-.49-.73-.28-1.09-.22.21.41.65.67,1.09.22Z"/>
        <path class="cls-1" d="M16.29,34.44c.58.48,1.41.12,2.18.11,1.73-.02,2.98,2.51,4.24,1.55.12.18.49.22.53.5.02.18.06.61-.3.68-2.11.4-2.85-2.3-4.5-2.31-.78,0-1.98,1.02-2.72.41-.19-.16-.23-.44-.05-.68.13-.17.42-.15.62-.26Z"/>
        <path class="cls-1" d="M17.26,39.23c.21.25.7.21.69.62s-.21.71-.49.89c-.66.43-2.88-1.41-3.58-2.25.9-.24,3.19,2.27,3.38.73Z"/>
        <path class="cls-1" d="M11.05,31.5c.15.19.31.28.71.38-1.4.52.65,2.62.33,3.98-.05.2-.39.13-.51.26.03-1.56-1.26-3.28-1.17-5.2.2.2.46.35.64.57Z"/>
        <path class="cls-1" d="M13.39,38c-1.06-.42-3.45,1.32-3.56-.08-.03-.35.34-.37.51-.6.93,1.25,2.18-.75,3.05.68Z"/>
        <path class="cls-1" d="M17.97,31.31c-.14.18-.22.41-.26.62-.06.31.2.51.49.37l.22.71c-.16.29-.33.69-.68.45-.39-.79-.97-1.49-1.17-2.36.27,0,.58-.15.85-.1.32.06.52-.05.8-.14-.07.15-.14.31-.24.45Z"/>
        <path class="cls-1" d="M15.4,37.55c.23-.76.5-.07,1.32-.72.33.16,1.32.31.85.88-.65.42-1.51-.33-2.17-.15Z"/>
        <path class="cls-1" d="M18.2,32.3c-.29.13-.55-.06-.49-.37.04-.21.13-.44.26-.62.37.15.13.68.23.99Z"/>
        <path class="cls-1" d="M21.9,34.96c-.44.45-.88.19-1.09-.22.37-.06.68-.26,1.09.22Z"/>
        <g>
          <path class="cls-1" d="M21.04,3.41c.16.36.25.84.52,1.15-.22-.05-.47-.06-.64.16-.11.14-.2.37-.3.57-.31.02-.88-.04-1.09.36-.3.57-.09,1.21-.09,1.75-1.41,1.92-.69,3.86-.33,6.03.36.09.82.04.92.2.16.28.03.57.08.81l-1.48.84c-.25-.38-.22-.78-.39-.53-.04.06-.21.31-.34.32-.46-.26,0-.82-.26-1.43l-.62,1.38c-.39-.31-.62-.63-1-.64.34-.75,1.08-1.54,1.18-2.37,1.79-.13-.77-4.68,1.55-8.07l.19-.02c.43-.05.86-.04,1.43-.05.28,0,.35-.32.27-.46l.42.02Z"/>
          <path class="cls-1" d="M19.14.96c-.09.15.16.23.27.24.22.02.45-.06.67-.02.44.09.98-.21,1.47,0,.46.2.68.77,1.16.76-.1.44-.19.92-.71.97-.07-.47-.27-.91-.65-1.12-.58-.33-1.02.48-1.46.53l-1.98-.77c-.28-.11-.58,0-.77.17-.75.66.21,1.17-.47,2.24-.13.2-.09.45-.02.62.08.2.34.3.57.29.05.33-.23.71-.3,1.01-.38-.45-.99-.92-1.19-1.56-.09-.27.38-.67.33-.87-.2-.85-1.74-.63-1.37-2.29.16-.74.79-1.09,1.58-1.15,1.2-.09,2.05.26,2.88.95Z"/>
          <path class="cls-1" d="M21.3,7.66c-.26.57.13.97.27,1.41.36,1.11.66,2.2,1.41,3.11.1.39.18.79.34,1.16-.36.18-.59.59-1.04.58-.02-.44-.3-.78-.76-.77-.56.01-.46-.97-1.2-.98-.1-.38-.29-.76-.27-1.16.04-1.12,0-2.23.27-3.32.24-.12.59-.43.49-.74.17-.04.41-.03.44.14.03.2.1.42.04.56Z"/>
          <path class="cls-1" d="M21.56,4.55c.22.25.66.32.94.44.59,1.37,3.84,1.22,3.35,2.93-.38.4-1.48.16-1.94.04-.25-.48-.95-.49-1.02-1.43l-1.6,1.13c.06-.14,0-.37-.04-.56-.03-.17-.27-.18-.44-.14-.18-.55.06-1.14-.2-1.67.1-.2.19-.43.3-.57.17-.22.42-.21.64-.16Z"/>
          <path class="cls-1" d="M22,2.91c-.21.1-.41.39-.69.45l-.27.05-.42-.02c-.71-.51-1.64-.35-2.19.26-.37.42-.78.88-1.22,1.23-.23,0-.49-.09-.57-.29-.07-.17-.1-.42.02-.62.68-1.07-.28-1.58.47-2.24.19-.17.49-.28.77-.17l1.98.77c.44-.05.88-.86,1.46-.53.38.22.59.65.65,1.12Z"/>
          <path class="cls-1" d="M20.11,14.42c.11.52.1,1.05.02,1.58-.01.09-.02.23-.03.38,0,.08.17.16.34.14.08-.01.08-.11.15-.22l.24.02c.34.03.51.35.43.67-.32.22-.65.43-.91.72-.09.01-.18,0-.27,0-.33-.71-.91-1.16-1.83-.96l-1.01-1.45c-.64.01-1.13-.1-1.69-.42.07-.19.3-.41.45-.53.38.01.61.33,1,.64l.62-1.38c.26.61-.2,1.17.26,1.43.13,0,.3-.26.34-.32.17-.25.14.15.39.53l1.48-.84Z"/>
          <path class="cls-1" d="M18.74,3.92c-2.32,3.39.24,7.94-1.55,8.07-.26-2.03-.22-4.07-.28-6.11.08-.3.36-.68.3-1.01.44-.35.85-.81,1.22-1.23.2-.09.28.12.31.27Z"/>
          <path class="cls-1" d="M23.68,14.15c.35.58,1.29,1.24.98,1.54-.05.05-.12.09-.19.13-.51-.12-.65.42-.96.8-.42.51-1.08.03-1.47-.22.1-.17.08-.55.26-.66.59-.37.79-1.07.91-1.91l.48.32Z"/>
          <path class="cls-1" d="M22.82,9.6c.44,1.23,2.09,3.01.63,2.81-.14-.1-.29-.17-.45-.23-.75-.91-1.06-2-1.41-3.11.17-.24.45-.35.72-.42.18.31.4.61.52.95Z"/>
          <path class="cls-1" d="M23.92,7.96c-.13.07-.27.13-.42.16-.31-.12-.71-.06-.97-.56-.37.2-.31.4-.27.59.03.15-.02.37.05.5-.28.07-.55.18-.72.42-.14-.44-.53-.84-.27-1.41l1.6-1.13c.07.94.77.95,1.02,1.43Z"/>
          <path class="cls-1" d="M24.22,9c.32-.08,1.04.39.8.72-.36.49-1.16.07-1.61.1-.16.01-.36-.34-.58-.23-.12-.34-.34-.64-.52-.95-.07-.14-.02-.35-.05-.5.93-.08,1,1.1,1.96.85Z"/>
          <path class="cls-1" d="M22.72,1.94c-.48.02-.7-.56-1.16-.76-.49-.21-1.03.08-1.47,0,.2-.65.97-.79,1.69-.7.46.06.74.24.96.56s.05.56-.02.9Z"/>
          <path class="cls-1" d="M23.33,13.34c.11.26.2.57.35.81l-.48-.32c-.12.84-.32,1.54-.91,1.91-.02-.46-.06-.92-.04-1.38,0-.15.04-.29.04-.44.45.01.68-.4,1.04-.58Z"/>
          <path class="cls-1" d="M23.4,9.83c-.73-.11,1.69,1.92.59,2.76-.24.18-.47.13-.55-.18,1.47.2-.19-1.57-.63-2.81.22-.11.42.24.58.23Z"/>
          <path class="cls-1" d="M23.5,8.12c.34.13.51.61.72.88-.96.24-1.03-.93-1.96-.85-.04-.19-.1-.39.27-.59.26.51.66.45.97.56Z"/>
          <path class="cls-1" d="M22.5,4.99c-.28-.12-.72-.19-.94-.44-.27-.31-.36-.78-.52-1.15l.27-.05c.22.68,1.06.9,1.19,1.64Z"/>
          <path class="cls-1" d="M19.41,1.2c-.11-.01-.35-.09-.27-.24.09.08.21.13.27.24Z"/>
          <path class="cls-1" d="M17.24,15.3c-.1.24.07.5-.11.72-.55-.6-1.51-.32-1.58-1.14.55.31,1.05.43,1.69.42Z"/>
          <path class="cls-1" d="M20.09,7.68c-.85.33-1.17,3.9-.03,3.33-.02.4.17.78.27,1.16-.64.79.27,1.7.75,2.7-.08.31-.21.61-.28.93-.03.16.03.35,0,.51l-.24-.02c-.05-.21-.25-.31-.45-.3.08-.53.09-1.06-.02-1.58-.05-.23.08-.53-.08-.81-.1-.17-.56-.11-.92-.2-.35-2.16-1.08-4.11.33-6.03.24.05.46.15.66.29Z"/>
          <path class="cls-1" d="M20.62,5.28c.25.54.01,1.12.2,1.67.1.31-.25.62-.49.74l-.24-.02c-.2-.14-.42-.24-.66-.29,0-.54-.21-1.18.09-1.75.21-.4.78-.34,1.09-.36Z"/>
          <path class="cls-1" d="M20.63,3.38c.08.15,0,.46-.27.46-.57,0-1,0-1.43.05.11-.78,1.07-.5,1.7-.51Z"/>
          <path class="cls-1" d="M20.63,3.38c-.62.01-1.59-.26-1.7.51l-.19.02c-.03-.15-.1-.36-.31-.27.55-.62,1.49-.78,2.19-.26Z"/>
          <path class="cls-1" d="M22.29,15.74c-.18.11-.16.49-.26.66-.33.05-.4.33-.49.59h-.28c.07-.32-.09-.64-.43-.67.02-.17-.04-.35,0-.51,1.06-.24.81-1,1.44-1.44-.02.46.02.92.04,1.38Z"/>
          <path class="cls-1" d="M21.54,16.99c-.17.49-.73.64-1.2.72.26-.29.59-.5.91-.72h.28Z"/>
          <path class="cls-1" d="M21.54,13.15c.26.64.24,1.42-.44,1.72-.48-1-1.39-1.91-.75-2.7.74.01.63,1,1.2.98Z"/>
          <path class="cls-1" d="M20.07,11.01c-1.14.57-.82-3,.03-3.33l.24.02c-.26,1.09-.22,2.2-.27,3.32Z"/>
          <path class="cls-1" d="M22.29,13.92c0,.15-.03.29-.04.44-.62.44-.37,1.2-1.44,1.44.06-.32.2-.62.28-.93.68-.3.7-1.08.44-1.72.45-.01.74.33.76.77Z"/>
          <path class="cls-1" d="M20.58,16.3c-.06.11-.06.21-.15.22-.16.02-.34-.06-.34-.14,0-.15.02-.29.03-.38.21-.02.4.09.45.3Z"/>
        </g>
        <g>
          <path class="cls-1" d="M17.24,15.3l1.01,1.45c.92-.2,1.5.25,1.83.96l-1.19.97c-.33-.35-.76-.57-1.16-.26-.19.14-.44.3-.57.5-.45-.04-.81.48-1.31.4-.34-.05-.63-.96-1.31-.61-.14.07-.28.39-.2.56.09.18.45.14.69.24-.04.32-.35.34-.53.32-.89-.09-.49-.9-1.37-1.24-.09-.36-.24-.4-.55-.4s-.64.41-.91.37c-1.54-.17-1.87-1.66-4.62.14-.32.4.1,1.34-.56,1.43-.86-.12-1.56-.65-2.38-.9.24-.53.05-1.03-.29-1.47-.03-.23-.22-.79.01-.9.54-.06.67.56,1.22.57-.34-.67-.64-1.22-.49-1.87.88.2,1.62.89,2.62,1.04,2.15.32,4.75.64,6.51-.5l1.86-1.21c.07.81,1.03.53,1.58,1.14.17-.22,0-.48.11-.72Z"/>
          <path class="cls-1" d="M22.97,21.53c.05.23-.17.75.16.84.18.05.55-.12.55,0v.35c-.57-.02.1.57.07.83-.16,1.19-1.39,2.17-2.5,2.27-.05-.13.13-.5-.08-.58-.16-.06-.44.14-.72-.15-.22-.22-.22.29-.26.45-.06.27.21.54.4.57.05,2.16-1.03.34-.92,2.61-.22.26-.56.4-.75.69-.41.07-2.83.85-2.61,1.47h-.24c-.09-.45.17-1.09-.15-1.57-.26-.39-.91-.17-1.24-.29-.75-.27-1.13-1.06-1.27-1.82l1.53-.23c1.07-.16,3.41-.65,3.49-2.06l.03-.52.21-.24c.35.08.59.36.72.75,1.09-.4.46-1.49,1.61-1.5.07.26.2.86.64.88.61.02,1.18-.89.71-1.34-.35.19-.37.57-.74.72-.13-.48-.11-.83-.29-1.17-.07-.23.21-.62.07-.88.09.01.18-.03.27-.03.38-.03,1.06-.84,1.25-.38.04.1.06.21.07.32Z"/>
          <path class="cls-1" d="M5.12,23.11c1.15,1.03,2.91,3.18,4.42,4.07.26-.7-.13-1.31.31-1.61.17.08.45.2.48.42.1.68.6,1.06,1.21,1.48,1.26.87.27,2.7.22,3.13-.45.3-1.44-1.41-1.5-.35,0,.09-.03.19,0,.31-1.45-.47-2.64-1.45-3.56-2.77-.55-.79-1.34-1.41-1.68-2.24-.31-.75-.64-1.72-.17-2.39l.28-.05Z"/>
          <path class="cls-1" d="M20.08,28.91c-.11-.12-.27-.17-.43-.2-.11-2.27.97-.45.92-2.61.23-.04.44-.27.67-.29,1.11-.1,2.34-1.08,2.5-2.27.03-.26-.64-.85-.08-.83.3.25.39-.05.46-.23.13-.33-.13-.73-.21-.91-.04-.45.22-1.07.36-1.49.31.38.5.56.76.59,1.19.14.14-3.32-.37-3.68l.02-.2c.43-.11.46.34.62.68,2.23,4.96-.53,9.63-5.22,11.44Z"/>
          <path class="cls-1" d="M24.47,15.82c-.03.34.09.66.21.97l-.02.2c-.33-.3-1.47,1.86-1.43,2.35-1.5-.41.07.7-2.32,1.34-.44.12-.47,1.08-.22,1.32.27-.29.46-.4.68-.38.14.26-.14.65-.07.88-.18.06-.33.23-.34.43-.42.04-.78-.2-.86-.62l-.08-1.19c-.58-.14-1.1.04-1.6.18-.02-.41-.13-.81-.13-1.22-.02-.51.22-1.07.62-1.39l1.19-.97c.09,0,.18.01.27,0,.47-.08,1.02-.23,1.2-.72.09-.26.17-.54.49-.59.4.25,1.05.73,1.47.22.31-.38.45-.91.96-.8Z"/>
          <path class="cls-1" d="M1.72,10.54c-.54.94-.08,2.01.48,2.88.05.28-.08.57-.07.85l-1.49-1.35c-.19.81.16,1.71.81,2.16l.03.95c-.07,0-.18.01-.34.04-.24.04,0,.24.11.32s.29.06.49.12c.07.03.18.15.19.22.07.57.66.83,1.04,1.42-.62.1-.9-.29-1.21.02-.18.18-.57.18-.69.47C.1,16.75-.06,16.5.15,14.61c.08-.76-.33-1.55-.04-2.36,1.38-.17.19-2.77,1.61-1.7Z"/>
          <path class="cls-1" d="M4.36,15.51c.06,0,.14.03.2.04-.15.65.15,1.2.49,1.87-.55-.02-.68-.64-1.22-.57-.23.11-.05.67-.01.9-.48.24-.06.8-.1,1.25-.1,1.02-.06,1.86.15,2.76-.6-.28-1.26-.54-1.68-1.1.46-.33,1.34-.68,1.19-1.28-.2-.79-1.3-.63-1.65-1.2.31-.31.6.08,1.21-.02-.37-.59-.97-.85-1.04-1.42l.5.05c.13.25.31.49.75.47.24-.01.26-.26.22-.37-.03-.08-.19-.11-.25-.19.02-.21.08-.44.07-.65.42-.11.69-.52,1.15-.53Z"/>
          <path class="cls-1" d="M1.73,18.18c.35.57,1.45.41,1.65,1.2.15.6-.73.95-1.19,1.28.41.56,1.08.82,1.68,1.1.13.53.16,1.14.25,1.68-.4,0-.81-.16-1.2-.03-.49-.97-.62-2.12-1-3.24-.2-.59-.83-.94-.86-1.52.12-.29.5-.28.69-.47Z"/>
          <path class="cls-1" d="M16.04,30.88c-1.31.03-2.55.38-3.81.68-.23.06-.51-.05-.74-.05.04-.16.11-.31.23-.42.97.15,1.57-.63,2.28-1.34.1-.1.66-.05.75-.19.07-.12-.14-.34-.09-.53.34.12.98-.1,1.24.29.32.48.06,1.11.15,1.57Z"/>
          <path class="cls-1" d="M3.34,13.19c.49.42.66,1.11.76,1.72-.1.16-.19.56-.37.57-.33.01-.72-.24-.97-.56-.46-.01-.23.41-.15.65.1.29.31.46.6.47,0,.21-.06.44-.07.65l-.72.09-.5-.05c0-.07-.12-.19-.19-.22-.07-.16-.16-.32-.25-.48l-.03-.95c.46-.03.68-.38.68-.82,0-.28.12-.57.07-.85.38-.09.75-.2,1.14-.23Z"/>
          <path class="cls-1" d="M4.1,19.22c-.04.1.02.26,0,.37-.03.22.06.4.25.5.08.04.18.16.2.24-.29,1-.31,1.95.27,2.84-.47.67-.14,1.64.17,2.39-.15-.06-.26-.19-.39-.26-.27-.61-.4-1.21-.5-1.85-.09-.55-.12-1.15-.25-1.68-.22-.89-.25-1.74-.15-2.76.04-.44-.38-1,.1-1.25.34.45.54.94.29,1.47Z"/>
          <path class="cls-1" d="M3.34,13.19c-.39.03-.76.14-1.14.23-.56-.87-1.02-1.94-.48-2.88.84.63,1.31,1.65,1.62,2.65Z"/>
          <path class="cls-1" d="M18.9,29.4c1.05,1.03-1.03.57-1.48,1.61-.27-.06-.58.09-.85.1-.1-.06-.2-.14-.28-.23-.22-.62,2.2-1.4,2.61-1.47Z"/>
          <path class="cls-1" d="M4.11,23.44c.1.64.24,1.24.5,1.85-.71-.39-1.32-1.13-1.7-1.88.39-.13.8.03,1.2.03Z"/>
          <path class="cls-1" d="M4.09,14.91c.09.16.35.36.27.6-.46,0-.73.42-1.15.53-.29-.02-.49-.18-.6-.47-.08-.24-.31-.66.15-.65.25.31.64.57.97.56.18,0,.27-.4.37-.57Z"/>
          <path class="cls-1" d="M11.77,30.6l-.05.48c-.12.12-.19.26-.23.42h-.44c-.18-.23-.44-.38-.64-.58,0-.12-.14-.24-.15-.36-.03-.12,0-.22,0-.31.07-1.06,1.05.65,1.5.35Z"/>
          <path class="cls-1" d="M20.08,28.91c-.34.82-1.02,1.67-1.87,1.95-.28.09-.48.21-.8.14.45-1.04,2.53-.58,1.48-1.61.2-.29.53-.43.75-.69.16.03.31.08.43.2Z"/>
          <path class="cls-1" d="M13.12,18.57c.88.34.48,1.15,1.37,1.24.19.02.49,0,.53-.32-.25-.1-.6-.06-.69-.24-.08-.17.06-.49.2-.56.68-.34.98.56,1.31.61.5.08.86-.45,1.31-.4.08.7.15,1.41.15,2.12-.27.69-1.11.43-1.74.5-.22-.05-.62.12-.82-.02-.32-.22-.03-.76-.18-1.21-.73,0-.37.79-.45,1.24-.08,0-.17.06-.25.06-.23-.03-.5-.09-.71.04-.2.13-.25.41-.26.63-.3-.04-.72-.07-1.02-.03-.08-.37-.23-.74-.57-.93.02-1.58.37.2,2.06-1.47-.01-.38-.66-.43-.89-.15-.11.13-.18.28-.44.5-.41-.14-.91-.24-1.16,0-.3.29-.07.82.16,1.07.42.45-1.21,2.59-1.02,1.7-.26-.4-.19-.92-.45-1.4-1-.39-1.81-1.05-1.99-2.36,1.04.35,1.93.57,2.87,1.05.09-.72-2.49-1.18-1.74-1.66.99-.63,2.04.26,3.04.41.45.07.92-.66,1.37-.43ZM13.18,20.93c0-.07-.05-.12-.12-.12s-.12.05-.12.12.05.12.12.12.12-.05.12-.12Z"/>
          <path class="cls-1" d="M13.12,18.57c-.45-.23-.93.5-1.37.43-1-.15-2.05-1.04-3.04-.41-.75.48,1.84.94,1.74,1.66-.94-.48-1.83-.7-2.87-1.05.18,1.31.99,1.97,1.99,2.36.26.48.19,1,.45,1.4.03.05,0,.14.02.2-.48-.1-.88-.41-1.31-.63-.25-.74-.57-1.46-1.39-1.94-.18.19-.16.47-.35.75-.46-.38-.47-.82-.52-1.23.66-.09.24-1.04.56-1.43,2.75-1.8,3.08-.31,4.62-.14.27.03.59-.38.91-.37s.45.04.55.4ZM9.51,22.13c0-.08-.07-.15-.15-.15s-.15.07-.15.15.07.15.15.15.15-.07.15-.15Z"/>
          <path class="cls-1" d="M6.48,20.12c.05.41.06.85.52,1.23.18-.28.16-.56.35-.75.81.48,1.14,1.2,1.39,1.94-.06.24-.17.46-.33.65-.32-.12-.62-.28-.95-.35-1.3-.29-1.46-.69-2.43-.58l-.46-1.93c-.02-.08-.13-.2-.2-.24-.06-.16,0-.53-.25-.5.02-.11-.05-.27,0-.37.82.25,1.52.78,2.38.9ZM7.92,22.13c0-.07-.05-.12-.12-.12s-.12.05-.12.12.05.12.12.12.12-.05.12-.12Z"/>
          <path class="cls-1" d="M18.89,18.68c-.39.32-.63.88-.62,1.39-.14.12-.25.31-.29.5-.59-.04-.22-1.73-.26-2.15.41-.31.84-.09,1.16.26Z"/>
          <path class="cls-1" d="M17.99,20.57c-.03.16-.28.32-.27.48l-.42-.02c0-.71-.07-1.41-.15-2.12.13-.19.39-.35.57-.5.04.43-.33,2.12.26,2.15Z"/>
          <path class="cls-1" d="M13.38,27.2c.14.75.52,1.55,1.27,1.82-.05.19.16.41.09.53-.09.14-.65.09-.75.19-.71.7-1.31,1.49-2.28,1.34l.05-.48c.05-.43,1.04-2.26-.22-3.13-.61-.42-1.11-.8-1.21-1.48.98.48,2.03.82,3.05,1.21Z"/>
          <path class="cls-1" d="M24.66,16.99c.51.36,1.56,3.83.37,3.68-.26-.03-.45-.21-.76-.59-.14.42-.4,1.04-.36,1.49-.31-.04-.62-.06-.94-.04-.01-.12-.03-.23-.07-.32-.19-.46-.87.35-1.25.38-.03-.37.09-.82.43-.81l.93.03c.43.02.25-1.07.22-1.47-.04-.48,1.1-2.65,1.43-2.35Z"/>
          <path class="cls-1" d="M8.41,23.18c.38.73,1.14,1.04,1.93,1.22l.41.09c-.88,1.49,3.56,1.97,4.34,2.02-.04.16-.11.31-.18.45l-1.53.23c-1.02-.39-2.07-.73-3.05-1.21-.03-.22-.31-.34-.48-.42-.49-.93-1.83-1.56-2.4-2.75.33.07.64.23.95.35Z"/>
          <path class="cls-1" d="M17.72,21.05c.09.67-.01,1.63.63,1.97.25.32.29.73.3,1.13l-.21.24h-.5c.05-.25-.07-.48-.03-.82.03-.23-.17-.51-.54-.43-.06-.16-.09-.61-.41-.64-1.67-.14-1.12.88-2.34.69.19-.76-1.12-.18-1.23-.93.27-.28.42-.45.49-.67.08,0,.17-.07.25-.06.49.03.7.73,1.25.44.12-.06.18-.26.19-.44.63-.07,1.47.19,1.74-.5l.42.02Z"/>
          <path class="cls-1" d="M20.09,22.3c.08.42.45.66.86.62,0,.14-.01.35.02.48-1.15.02-.52,1.1-1.61,1.5-.13-.39-.37-.67-.72-.75,0-.4-.05-.81-.3-1.13l.09-.59,1.65-.14Z"/>
          <path class="cls-1" d="M23.22,19.34c.03.4.21,1.49-.22,1.47l-.93-.03c-.34-.01-.46.44-.43.81-.09,0-.18.04-.27.03-.23-.03-.41.08-.68.38-.25-.23-.22-1.2.22-1.32,2.39-.63.82-1.74,2.32-1.34Z"/>
          <path class="cls-1" d="M20.98,23.4c-.04-.13-.03-.33-.02-.48.01-.2.16-.36.34-.43.17.34.16.69.29,1.17.37-.15.39-.54.74-.72.47.45-.1,1.36-.71,1.34-.44-.02-.57-.62-.64-.88Z"/>
          <path class="cls-1" d="M18.41,24.91c-.08,1.42-2.42,1.9-3.49,2.06.08-.14.14-.3.18-.45.49-.38,1.19-.55,1.92-.57.33-.14.6-.73.76-1.02l.63-.02Z"/>
          <path class="cls-1" d="M23.91,21.57c.07.19.34.58.21.91-.07.18-.16.48-.46.23v-.35c.02-.12-.35.06-.53,0-.32-.09-.11-.61-.16-.84.31-.02.63,0,.94.04Z"/>
          <path class="cls-1" d="M21.24,25.81c-.23.02-.44.25-.67.29-.19-.03-.46-.3-.4-.57.04-.16.04-.67.26-.45.28.29.56.08.72.15.21.08.03.46.08.58Z"/>
          <path class="cls-1" d="M18.44,24.39l-.03.52-.63.02c.07-.13.13-.38.16-.53h.5Z"/>
          <path class="cls-1" d="M7.45,22.83c.57,1.18,1.91,1.81,2.4,2.75-.44.3-.05.91-.31,1.61-1.51-.89-3.27-3.04-4.42-4.07-.12-.22-.05-.64-.1-.86.97-.11,1.14.29,2.43.58Z"/>
          <path class="cls-1" d="M5.02,22.25c.05.22-.02.64.1.86l-.28.05c-.58-.89-.56-1.84-.27-2.84l.46,1.93Z"/>
          <path class="cls-1" d="M20.09,22.3l-1.65.14c.06-.37-.01-.77-.04-1.16.51-.13,1.02-.32,1.6-.18l.08,1.19Z"/>
          <path class="cls-1" d="M18.27,20.07c0,.41.11.81.13,1.22.02.38.09.79.04,1.16l-.09.59c-.64-.34-.54-1.31-.63-1.97-.02-.16.24-.32.27-.48.04-.19.15-.38.29-.5Z"/>
          <path class="cls-1" d="M2.13,14.27c0,.43-.22.79-.68.82-.65-.45-1-1.35-.81-2.16l1.49,1.35Z"/>
          <path class="cls-1" d="M1.48,16.03c.09.15.18.31.25.48-.2-.05-.37-.04-.49-.12s-.35-.27-.11-.32c.16-.03.27-.05.34-.04Z"/>
          <path class="cls-1" d="M3.13,16.69c.06.08.23.11.25.19.03.11.02.35-.22.37-.44.02-.62-.22-.75-.47l.72-.09Z"/>
          <path class="cls-1" d="M4.36,20.09c-.19-.1-.28-.28-.25-.5.25-.03.19.34.25.5Z"/>
          <path class="cls-1" d="M11.88,22.25c-.11.18-.54.44-.62.73.25.73,1.08.68,1.66.72.06.02.26.31.17.35-1.49.67-2.07-1.24-2.8-.64-.09-.07-.17-.15-.24-.24-.02-.06.02-.15-.02-.2-.2.89,1.43-1.25,1.02-1.7.08.03.2,0,.27.05.34.19.49.56.57.93Z"/>
          <path class="cls-1" d="M12.9,22.28c.1.16.35.49.32.7-.04.24-.28.46-.3.72-.58-.04-1.41.01-1.66-.72.08-.29.51-.55.62-.73.3-.04.71-.02,1.02.03Z"/>
          <path class="cls-1" d="M11.31,21.32c-.08-.04-.19-.01-.27-.05-.23-.25-.45-.78-.16-1.07.25-.24.75-.14,1.16,0,.27-.22.33-.37.44-.5.23-.28.87-.23.89.15-1.69,1.67-2.04-.11-2.06,1.47Z"/>
          <path class="cls-1" d="M13.88,21.6c-.07.22-.22.39-.49.67.11.75,1.42.17,1.23.93l-1.4-.22c.03-.21-.21-.54-.32-.7.01-.23.06-.5.26-.63.21-.14.49-.07.71-.04Z"/>
          <path class="cls-1" d="M15.57,21.53c-.01.18-.07.38-.19.44-.55.29-.76-.41-1.25-.44.08-.45-.29-1.23.45-1.24.15.45-.14.98.18,1.21.2.14.6-.03.82.02Z"/>
          <circle class="cls-1" cx="13.06" cy="20.93" r=".12"/>
          <path class="cls-1" d="M10.04,23.17c.07.09.16.17.24.24-.02.33,0,.67.06.99-.79-.18-1.56-.49-1.93-1.22.16-.19.27-.41.33-.65.43.23.83.53,1.31.63Z"/>
          <circle class="cls-1" cx="9.36" cy="22.13" r=".15"/>
          <circle class="cls-1" cx="7.8" cy="22.13" r=".12"/>
          <path class="cls-1" d="M17.37,23.14c-.02,1.04-.72,1.93-1.87,2.05-1.22.12-2.41.08-3.62-.2-.32-.39-.71-.68-1.12-.49l-.41-.09c-.05-.33-.07-.66-.06-.99.73-.6,1.31,1.31,2.8.64.09-.04-.1-.33-.17-.35.02-.26.26-.48.3-.72l1.4.22c1.21.19.67-.83,2.34-.69.32.03.36.47.41.64Z"/>
          <path class="cls-1" d="M17.94,24.4c-.03.15-.09.4-.16.53-.16.29-.44.88-.76,1.02-.73.02-1.43.19-1.92.57-.78-.05-5.22-.53-4.34-2.02.42-.18.8.1,1.12.49,1.21.27,2.4.32,3.62.2,1.15-.12,1.85-1.01,1.87-2.05.37-.08.57.19.54.43-.04.34.08.58.03.83Z"/>
        </g>
      </g>
    </g>
  </g>
</svg>