<?xml version="1.0" encoding="UTF-8"?>
<svg id="Layer_2" data-name="Layer 2" xmlns="http://www.w3.org/2000/svg" xmlns:xlink="http://www.w3.org/1999/xlink" viewBox="0 0 130.07 44.39">
  <defs>
    <style>
      .cls-1, .cls-2 {
        fill: none;
      }

      .cls-2 {
        stroke: #231f20;
        stroke-width: .21px;
      }

      .cls-3 {
        clip-path: url(#clippath);
      }
    </style>
    <clipPath id="clippath">
      <rect class="cls-1" width="130.07" height="44.39"/>
    </clipPath>
  </defs>
  <g id="Layer_1-2" data-name="Layer 1">
    <g class="cls-3">
      <path class="cls-2" d="M37.18,18.79c6.89,0,12.48,5.59,12.48,12.48s-5.59,12.49-12.48,12.49-12.48-5.59-12.48-12.49,5.59-12.48,12.48-12.48Z"/>
      <path class="cls-2" d="M55.38,24.96c.4-.18,1.5,1.42,2.46,3.56s1.42,4.03,1.02,4.21c-.4.18-1.09-1.67-2.06-3.82-.96-2.15-1.83-3.78-1.43-3.96Z"/>
      <path class="cls-2" d="M55.36,24.97s15.15-.15,37.08,4.8"/>
      <path class="cls-2" d="M58.83,32.67s.36,1.29,6.17,1.79c6.63.56,24.54,1.02,27.44,2.19"/>
      <path class="cls-2" d="M24.88,33.71s-4.43-12.88,1.48-20.79c.28-.38,22.08-5.87,30.66,4.05.1.12,3.57,1.17,8.88,2.11,7.41,1.32,17.65,2.55,20.54,1.94.28-.06,9.86-5.48,19.98-3,13.26,3.24,18.4,16.64,18.5,18.65.1,2-.05,3.34-.05,3.34"/>
      <path class="cls-2" d="M124.87,39.2s3.67.76,3.19.81c-.48.05-17.74-.14-17.74-.14"/>
      <path class="cls-2" d="M119.05,25.94s-.57,3.72,1.24,7.06c1.81,3.34,4.39,2.48,4.39,2.48"/>
      <path class="cls-2" d="M87.14,20.68s.98-5.61,1.92-5.81c1.67-.36,7.21.49,13.6,2.55"/>
      <path class="cls-2" d="M70.21,19.73s-2.76-3.73-2.35-14.75c.01-.37-11.07-4.33-31.52,6.22"/>
      <path class="cls-2" d="M19.21,2.08c.05-.21,2.52.62,5.67,1.5,3.15.88,5.8,1.48,5.75,1.68-.05.21-3.38,1.24-6.54.36-3.15-.88-4.93-3.34-4.88-3.54Z"/>
      <path class="cls-2" d="M21.29,4.29s3.16,7.29,5.07,8.62"/>
      <path class="cls-2" d="M29.04,5.74s2.29,4.67,4.08,5.79"/>
      <path class="cls-2" d="M61.14,8.99c1.2.53,1.69,2.07,1.09,3.45-.6,1.38-2.06,2.07-3.27,1.54-1.21-.53-1.7-2.07-1.1-3.45s2.07-2.07,3.27-1.54Z"/>
      <path class="cls-2" d="M60.59,10.25c.6.26.84,1.03.54,1.71-.3.68-1.02,1.02-1.62.76s-.84-1.02-.54-1.71c.3-.68,1.02-1.03,1.62-.77Z"/>
      <path class="cls-2" d="M47.13,38.57s41.57.48,47.06.96"/>
    </g>
  </g>
</svg>