<?xml version="1.0" encoding="UTF-8"?>
<svg id="Layer_2" data-name="Layer 2" xmlns="http://www.w3.org/2000/svg" viewBox="0 0 270.8 255.02">
  <defs>
    <style>
      .cls-1 {
        fill: #6cbe45;
      }

      .cls-2 {
        opacity: .8;
      }
    </style>
  </defs>
  <g id="Layer_1-2" data-name="Layer 1">
    <g class="cls-2">
      <path class="cls-1" d="M212.19,24.16c-.37,5.71-.33,11.42-.26,17.13.03,2.32.41,5.56-.25,7.78-.81,2.71-2.01,18.97.95,16.29v6.99c-1.29-.44-1.74.47-1.78,1.45-.06,1.43.11,2.86,1.76,2.36-.07.86-.02,1.76.03,2.62-1.39.17-.21,2.63-1.01,3.68-1.61,2.12-4.98-.11-6.92.8l-.11-78.37c-2.71-.75-4.92.03-7.09-.14-4.74-.35-9.47.04-14.21.04h-7.16c-6.87,0-13.75-.28-20.62,0-4.8.2-9.84-.88-15.09.31-1.83.42-2.24,4.73-1.93,6.43.95,5.24-.63,9.57-.74,14.4-.18,7.35-.06,14.25-.91,21.52-.73,6.21.68,12.21-.56,18.37-1.18,5.83.12,12.04-.53,17.77,5.69,1.03,10.37-.02,15.26.08l18.78.39c-3.57,2.48-8.69-.53-13.38,1.65l55.3.08c-.77,4.11,2.55,21.86-2.54,15.16-.48-1.67-1.24-3.27-1.54-4.99,2.01,1.46,1.57-5.47,1.45-5.99-.2-.83-1.16-.42-1.89-.42l-20.36.11c-4.76.03-9.48-.15-14.24.06-4.18.19-8.41-.56-12.61-.02-2.81.36-5.77-1.13-8.93.87.15,9.28-.5,18.44.6,27.27-.89-.1-2.02.11-2.42.97l-17.88.15v-.92c1.61-.04,3.65-2.09,6.31-.67-.8-3.11-.78-5.21-1.82-7.39.53-1.18.91-2.47.93-3.77.64.12,1.41.09,1.77-.25.79-.77.85-1.89.79-2.95-.27-4.41-2.3-7.59-6.19-8.16-.4-.67-1.27-.83-1.81-1.43,11.46-5.69-15.6-3.72-16.99-3.74l-10.53-.17c-.23-.17-.5-.55-.85-.63-.56-.13-1.01.42-1.37.71h-22.86s-.05,28.21-.05,28.21l-5.18.24c-.67-5.23.55-7.04-1.14-7.04,0-1.24.36-2.39.24-3.68,1.59-6.9.05-14.19.78-21.32l62.49-.34-19.06-1.17c-1.68-1.03-1.99-5.59-1.5-7.49,1.2-4.67.65-8.96.93-13.42l1.02-16.14c.34-5.43.49-10.56.79-16.07.49-8.93,1.62-17.55.54-26.58-7.12-.42-13.79-.06-20.34,0-5.43.04-10.89-.62-16.94-.02l-.11,78.51-7.78-.24-.1-78.49c.11-.82.32-1.79.91-2.06.72-.33,1.6-.54,2.55-.55l19.66-.1c.97,0,1.53-1.11,1.1-1.59l33.84-.11,47.34-.12,32.3.48c1.29,4.94.02,9.33.84,13.86.45,2.48-1.09,3.75-1.44,5.64-.93,5.02-.42,10.17-.05,14.97l.95-15.62c.95,1.43.98,3.31.88,4.82Z"/>
      <path class="cls-1" d="M73.4,86c.06-.57-.52-1.02-1.03-1.03-24.15-.54-48.45,1.08-72.37-.8l20.28-.3,51.04.02c.78,0,1.53-.5,2.1-.88l7.78.24c4,.13,8.73,1.49,13.19.14,1.41-.43,1.49-4.14,1.25-5.66-.65-4.1.55-8.36.7-12.51l.94-26.71c.19-5.27-.49-10.25.56-15.45,1.25-6.14-.15-12.38.4-18.3,6.55-.05,13.22-.42,20.34,0,1.07,9.03-.06,17.65-.54,26.58-.3,5.51-.44,10.64-.79,16.07l-1.02,16.14c-.28,4.47.27,8.76-.93,13.42-.49,1.91-.18,6.46,1.5,7.49l19.06,1.17-62.49.34Z"/>
      <path class="cls-1" d="M176.16,4.78c.22,4.27-.3,8.53-.87,13.11-.86,6.79.76,13.54-.55,20.17-1.09,5.5.09,10.94-.58,16.51-.66,5.46-.58,10.65-.85,16.17-.22,4.58-1.34,8.85-.54,13.05-.78-.1-2.18.26-2.96.25l-18.78-.39c1.09-3.4,1.06-7.25.84-11.24-.16-2.96,1.39-33.47,1.73-38.35l.83-11.63c.44-6.15.09-11.96,1.11-17.66,6.87-.28,13.75.01,20.62,0Z"/>
      <path class="cls-1" d="M155.54,4.77c-1.02,5.7-.67,11.51-1.11,17.66l-.83,11.63c-.35,4.88-1.9,35.39-1.73,38.35.22,3.99.25,7.84-.84,11.24-4.88-.1-9.57.95-15.26-.08.65-5.73-.64-11.94.53-17.77,1.24-6.15-.16-12.15.56-18.37.85-7.27.73-14.17.91-21.52.12-4.83,1.69-9.16.74-14.4-.31-1.71.1-6.02,1.93-6.43,5.25-1.19,10.29-.12,15.09-.31Z"/>
      <path class="cls-1" d="M98.27,4.77c-.56,5.92.84,12.16-.4,18.3-1.06,5.2-.38,10.18-.56,15.45l-.94,26.71c-.15,4.15-1.35,8.42-.7,12.51.24,1.52.16,5.24-1.25,5.66-4.46,1.34-9.19-.02-13.19-.14l.11-78.51c6.05-.6,11.51.06,16.94.02Z"/>
      <path class="cls-1" d="M197.52,4.73c-1.4,7.45-.7,15.04-1.03,23.04-.19,4.8-1.4,9.44-.73,14.34.2,1.44-1.38,23.05-1.72,25.85-.67,5.48.39,10.81-.74,15.83-4.85.28-9.7.38-14.57.28,1.36-10.42.22-15.31,1.67-25.94.76-5.53-.72-11.16.48-16.55,1.17-5.24.19-10.32.68-15.62.36-3.92,1.22-7.58.81-11.66-.35-3.47.02-6.62.94-9.54,4.73,0,9.47-.4,14.21-.04Z"/>
      <path class="cls-1" d="M204.72,83.25c-3.62,1.7-7.6.33-11.41.55,1.13-5.02.06-10.34.74-15.83.34-2.8,1.92-24.41,1.72-25.85-.68-4.9.53-9.55.73-14.34.32-8-.38-15.59,1.03-23.04,2.17.16,4.38-.61,7.09.14l.11,78.37Z"/>
      <path class="cls-1" d="M183.32,4.78c-.91,2.92-1.29,6.07-.94,9.54.41,4.08-.45,7.74-.81,11.66-.49,5.3.48,10.38-.68,15.62-1.2,5.39.28,11.02-.48,16.55-1.45,10.63-.32,15.51-1.67,25.94-2.01-.04-3.99-.02-5.98-.28-.79-4.2.32-8.46.54-13.05.27-5.52.19-10.71.85-16.17.67-5.57-.51-11.01.58-16.51,1.32-6.63-.31-13.38.55-20.17.58-4.59,1.1-8.85.87-13.11h7.16Z"/>
      <path class="cls-1" d="M73.43,83.02c-.57.38-1.32.88-2.1.88l.15-25.74c.55.1.65-.29.69-.98,1.12-17.86-1.23-35.53,1.16-52.65l.1,78.49Z"/>
      <path class="cls-1" d="M212.7,55.48c-1.53,1.43-1.53,4.83,0,6.26l-.07,3.62c-2.95,2.68-1.75-13.58-.95-16.29,1.77,1.52,1.02,4.25,1.02,6.41Z"/>
      <path class="cls-1" d="M212.62,72.35c0,1.27.09,2.53,0,3.8-1.65.5-1.82-.93-1.76-2.36.04-.98.49-1.88,1.77-1.45Z"/>
      <path class="cls-1" d="M212.7,61.73c-1.53-1.43-1.53-4.83,0-6.26v6.26Z"/>
      <g>
        <path class="cls-1" d="M270.8,84.29c-19.01,1.6-38.24.21-58.01.69l-.12,13.47c-.01,1.22.81,2.04,1.11,2.65.06,1.74-.37,3.58-.62,5.33-1.41-.37-2.96-.25-4.11.71.05-1.68.02-3.37-.02-5.06,0-.36.24-.81.14-1.14,5.09,6.7,1.77-11.04,2.54-15.16l-55.3-.08c4.69-2.18,9.81.83,13.38-1.65.78.01,2.17-.36,2.96-.25,2,.27,3.98.25,5.98.28,4.87.09,9.72,0,14.57-.28,3.81-.22,7.8,1.15,11.41-.55,1.93-.91,5.31,1.33,6.92-.8.79-1.04-.39-3.51,1.01-3.68.08,1.5-.07,3.07.61,5.07l57.54.45Z"/>
        <path class="cls-1" d="M159.98,89.7l-.02,27.44,17.97-.23c2.83.92,5.73,1.13,8.68,1.03,7.2-.25,14.52-.71,21.58-.83l4.39-.07.17,10.82c.01.68.18,1.38.74.99l.16,9.68,1.19,45.67c.25,9.42-.36,18.95,1.2,27.7-.63,1.42-.3,3.98-.64,5.37-1.33,1.85-.89,4-.97,6.26-.37,9.66-.44,19.3-.2,29.78,2.24.72,4.44.62,6.51.61l23.19-.13,1.83.13h2.68v.89l-38.44.22-47.37-.22v-.89l46.42-.35-.11-17.6c-.05-7.72.25-15.44-.02-23.16-.2-5.71.77-11.57-.06-17.76-2.59-1.51-5.73-.93-9.19-.84l-.82-8.35c-1.62,3.23.2,6.56.3,10.08l.48,16.93c-.06-2.04-.02,25.71-2.09,21.34l-101.02-.13c-1.49,0-2.48.29-3.24-.78-.44-.62-.75-1.58-.9-2.51.28-5.71.2-11.42.13-17.12-.06-5.33.59-10.7.07-16.03-.3-3.02.23-6.05-.98-9.62l-17.9-.16c-.38-8.34-1.21-16.8.12-25.08,3.35.43,14.84,2.4,18.39,1.45.74-6.57.52-12.94.4-19.21l-.14-7.15c-.04-1.97,1.69-1.93,2.33-2.82.48.25.87,2.47,1.94,2.48l49.72.25c-.58,1.8-2.43,2.21-4.62,4.12,2.56,3.06,24.37-1.59,29.07,1.11,1.29.57.51,3.32.56,4.41-2.99.29-6.16-.36-9.5.44-1.41.34-1.21,2.44-1.24,3.28-3.19,1.4-6.85.51-10.68.83l-8.78.72c.02-1.45.88-2.93.45-4.74-3.97-1.08-7.64-.32-11.19-.35l-16.03-.15-.31-3.51c-1.96.79-1.72,2.3-1.42,3.8s-.52,4.4,1.57,5.16c2.28.82,4.97.44,7.11.31-.03,1.82-1.65,2.58-3.26,3.59l-21.86,13.69c-.32,9.16-.07,16.98.83,25.75l45.72-27.93,1.79,3.3-7.14,7.26-40.35,26.84c.41,4.85-.59,8.99-.67,13.38-.05,2.31,1.16,4.47-.22,7.24-.37.74.05,2.19.3,2.86.01.04,54.71,1.31,59.63-.81,12.5-3.91,21.54-15.73,33.26-21.71,1.33,3.24,3.38,7.21,7.68,8.76l1-47.3.68,3.34c3.33.42,6.58.33,10.11.21.59-6.6-.01-12.62,0-18.67l.03-9.83c.02-6.96.32-13.94-.09-21.43H74.12c-1.6-.96-.45-2.5-.6-3.68l5.18-.24,23.85.89,2.89.06,25.92.22,17.88-.15c8.18-.07,16.37.59,25.08-.25-7.56-1.34-15.12.1-22.66-.72-1.1-8.83-.46-17.99-.6-27.27,3.15-2,6.12-.51,8.93-.87ZM104.55,230.67v.89h89.83v-.89h-89.83Z"/>
        <path class="cls-1" d="M73.52,118.04c.15,1.18-1,2.72.6,3.67h134.81c.4,7.5.11,14.48.09,21.44-1.73.32-3.49-.95-5.48-.76l-4.88.46c.22-3.37-.4-7.46-.39-11.15-7.85-1.62-15.14.69-22.21.49l-20.39-.59c-2.12-.06-4.72-.97-6.42.55l-49.13.03c-2.59,0-4.2,1.36-5.28,2.87-.64.89-2.36.84-2.33,2.82l.14,7.15c-.78-.64-1.86-.98-3.23-.99l-15.25-.19c-2.04-1.79.21-12.73-1.65-12.38l-.13-20.45c1.69,0,.47,1.81,1.14,7.04Z"/>
        <path class="cls-1" d="M101.61,89.59c-.05.3.22.73.1,1-.97,2.16-.02,4.12.89,6.15-2.8-1.45-5.44-2.06-8.5-1.67s-5.56,2.66-5.28,6.37c.38,5.14,4.37,10.35,9.48,9.46.51-.09.87-.55.89-1.06l.89-.09c4.21,1.63,2.42,5.03,2.48,8.94l-23.85-.89.05-28.22h22.86Z"/>
        <path class="cls-1" d="M207.2,89.54c.07,2.14.06,4.29.44,6.4.3,1.72,1.06,3.32,1.54,4.99.1.34-.15.79-.14,1.14-.6-.17-1.3-.05-1.89-.26.12-1.04-.07-2.03-.27-3.34-.16-1-2.95-.55-3.18-1.63-.63-2.96-5.48-1.02-7.25.15-2.7,1.77-3.34,5.15-2.58,8.47,1.13,4.97,2.47,3.41,7.22,7.22,1.79,1.44,4.61-.91,5.36-2.76.45-.2,1.11.09,1.59-.04l.15,7.22c-7.06.12-14.38.58-21.58.83l.23-28.28,20.36-.11Z"/>
        <path class="cls-1" d="M133.15,94.85c-2.17-.32-3.54.16-5.42.73-3.39,1.03-5.2,3.48-4.94,7.49.25,3.72,1.72,6.17,4.94,7.71,1.77.85,1.76,4.18-.05,5.79-2.12,1.88-5.89-.67-8.86,1.14,4.13.56,8.37.43,12.54.33v.92l-25.92-.22c1.86-1.78,5.15.15,7.41-1.58,2.09-1.59,2.22-5.6,1.83-8.15-1.18-7.71.81-11.62-.33-19.34,1.38.02,28.44-1.95,16.99,3.74.54.6,1.41.76,1.81,1.43Z"/>
        <path class="cls-1" d="M114.35,89.68c1.14,7.72-.85,11.63.33,19.34.39,2.55.26,6.56-1.83,8.15-2.27,1.73-5.56-.2-7.41,1.58l-2.89-.06c-.06-3.91,1.74-7.31-2.48-8.94.75-1.17,4.12-2.13,3.35-4.09-.67-1.7-2.39-3.14-3.19-4.59,1.21.31,2.61-.11,2.42-1.35-.14-.96.3-2.18-.05-2.98-.91-2.04-1.86-3.99-.89-6.15.81-.1,1.65-.36,2.11-1.08l10.53.17Z"/>
        <path class="cls-1" d="M172.59,89.71c-.27,1.92.32,3.79,1.52,5.3-3.41.47-7.24,1.16-8.61,4.07-1.66,3.49-1.67,8.6,1.66,10.61,1.71,1.03,3.56,2.6,5.25,2.99.65-1.32,3.42-1.07,4.55-1.95.58,2.01.99,4.07.97,6.17l-17.97.23.02-27.44c4.21-.54,8.43.2,12.61.02Z"/>
        <path class="cls-1" d="M186.83,89.65l-.23,28.28c-2.95.1-5.85-.11-8.68-1.03.02-2.1-.39-4.16-.97-6.17,3.33-2.59,4.02-7.6,1.75-11.5-1.03-1.77-1.84-3.38-4.6-4.21-1.2-1.52-1.79-3.38-1.52-5.3,4.76-.21,9.48-.03,14.24-.06Z"/>
        <path class="cls-1" d="M136.78,106.22c-.02,1.3-.4,2.59-.93,3.77-2.62.88-5.39.82-8.12.8-3.22-1.54-4.69-3.99-4.94-7.71-.26-4.01,1.55-6.46,4.94-7.49-.34.94-.77,2.14-.37,2.88,1.63,3.03,5.86.55,8.02,3.42.86,1.14,1.43,2.76,1.4,4.34Z"/>
        <path class="cls-1" d="M133.15,94.85c3.89.58,5.92,3.76,6.19,8.16.07,1.06,0,2.18-.79,2.95-.35.35-1.13.38-1.77.25.02-1.58-.54-3.2-1.4-4.34-2.16-2.87-6.39-.39-8.02-3.42-.4-.74.03-1.94.37-2.88,1.88-.57,3.25-1.05,5.42-.73Z"/>
        <path class="cls-1" d="M135.85,109.99c1.04,2.18,1.02,4.28,1.82,7.39-2.67-1.42-4.7.64-6.31.67-4.16.09-8.41.22-12.54-.33,2.97-1.8,6.74.75,8.86-1.14,1.81-1.61,1.82-4.94.05-5.79,2.74.02,5.51.08,8.12-.8Z"/>
        <path class="cls-1" d="M151.66,117.84c7.54.82,15.1-.62,22.66.72-8.71.84-16.9.18-25.08.25.4-.87,1.53-1.07,2.42-.97Z"/>
        <path class="cls-1" d="M73.4,86c-.73,7.13.81,14.42-.78,21.32-.18-2-.53-4.17-.5-6.17l.25-15.28v-.89c.51.01,1.09.46,1.03,1.03Z"/>
        <path class="cls-1" d="M207.63,95.94c-.37-2.11-.37-4.27-.44-6.4.72,0,1.69-.41,1.89.42.12.52.56,7.45-1.45,5.99Z"/>
        <path class="cls-1" d="M103.82,89.5c-.46.72-1.3.99-2.11,1.08.12-.27-.15-.7-.1-1,.35-.29.81-.84,1.37-.71.34.08.61.46.85.63Z"/>
        <path class="cls-1" d="M213.16,106.42c-.17,1.18.06,2.41.19,3.58-1.07,2.05-.82,4.72-.78,7.03l-4.39.07-.15-7.22,1.02-2.75c1.15-.96,2.69-1.07,4.11-.71Z"/>
        <path class="cls-1" d="M213.77,111.09l-.28,17.75c-.56.39-.73-.32-.74-.99l-.17-10.82c-.04-2.31-.29-4.98.78-7.03.04.36.43.73.42,1.09Z"/>
        <path class="cls-1" d="M203.69,96.84c-1.76.03-3.67.17-5.39,1.47-1.27.96-1.02,4.85.62,4.24,3.18-1.2,5.46-1.73,8.23-.74.59.21,1.29.09,1.89.26.04,1.69.07,3.37.02,5.06l-1.02,2.75c-.48.13-1.13-.16-1.59.04-1.85.82-3.78,1.49-5.36,2.76-4.75-3.82-6.09-2.25-7.22-7.22-.75-3.32-.11-6.7,2.58-8.47,1.77-1.16,6.62-3.11,7.25-.15Z"/>
        <path class="cls-1" d="M198.29,164.53c-.03,1.17-.08,2.41-.1,3.58l-1,47.3c-4.3-1.55-6.35-5.52-7.68-8.76-11.72,5.98-20.76,17.8-33.26,21.71-4.92,2.13-59.62.85-59.63.81-.25-.67-.67-2.12-.3-2.86,1.38-2.77.17-4.94.22-7.24.09-4.39,1.08-8.53.67-13.38l40.35-26.84,7.14-7.26c1.79-1.82,5.11-2.6,7.71-3.81,3.46-1.6,5.42-4.01,8.27-6.2,7.95-6.11,15.45-12.19,22.26-19.64,1.26-1.38,3.04-2.25,3.07-4.06,3.72-.28,7.44-.28,11.51-.2l.02,25.91c0,.59.4,1.04.76.95Z"/>
        <path class="cls-1" d="M92.41,230.79c.14.93.46,1.89.9,2.51.76,1.07,1.75.78,3.24.78l101.02.13c2.56,3,7.66,2.26,11.39,1.76l.11,17.6-46.42.35h-76.87l-11.8-.15.21-23.97c6.12-.1,12.21-.2,18.22.99Z"/>
        <path class="cls-1" d="M170.82,151.18c-.48.7-3.07.63-4.52,1.26-8.77,3.82-15.67,11.12-23.39,15.83l-45.72,27.93c-.89-8.78-1.15-16.59-.83-25.75l21.86-13.69c1.61-1.01,3.23-1.77,3.26-3.59l9-.55c3.57-.22,7.23.34,10.82.05l8.78-.72c3.83-.31,7.49.58,10.68-.83l10.05.04Z"/>
        <path class="cls-1" d="M92.64,145.02c.12,6.27.34,12.65-.4,19.21-3.55.94-15.04-1.03-18.39-1.45-.9-2.6-.75-5.45-.72-8.2l.09-7.86c.01-.98.68-1.97.93-2.88l15.25.19c1.37.02,2.45.35,3.23.99Z"/>
        <path class="cls-1" d="M176.05,132.2c-.04,1.37-.12,2.98,1.01,4.11,1.04,1.04,2.9,1.59,4.48,1.55-.73,4.08-5.48,5.57-8.37,8.59-.74.77-.34,3.5-1.53,3.91l-.14-2.93c-.05-1.09.73-3.85-.56-4.41-4.7-2.7-26.51,1.95-29.07-1.11,2.18-1.91,4.04-2.32,4.62-4.12,2.85-.61,5.29-2.29,7.22-4.45.26-.2.9-.11,1.27-.28.53-.25.85-.8.68-1.45l20.39.59Z"/>
        <path class="cls-1" d="M92.6,197.64c.53,5.33-.13,10.7-.07,16.03l-18.41-.07c-.68-5.33.28-10.7.04-15.97h18.43Z"/>
        <path class="cls-1" d="M92.54,213.67c.07,5.7.16,11.41-.13,17.12-6.01-1.19-12.11-1.1-18.22-.99.03-3.27-.41-6.63-.46-9.9-.03-2.05.66-4.27.4-6.29l18.41.07Z"/>
        <path class="cls-1" d="M149.24,132.16c1.49,0,3.74-.27,4.47,1.18-1.93,2.16-4.37,3.84-7.22,4.45l-49.72-.25c-1.07,0-1.46-2.23-1.94-2.48,1.08-1.51,2.69-2.87,5.28-2.87l49.13-.03Z"/>
        <path class="cls-1" d="M208.94,212.81c.27,7.72-.03,15.44.02,23.16-3.73.5-8.83,1.24-11.39-1.76,2.07,4.37,2.03-23.38,2.09-21.34,3.1.91,6.17.7,9.29-.06Z"/>
        <path class="cls-1" d="M186,137.87c-.03,1.8-1.81,2.68-3.07,4.06-6.81,7.45-14.31,13.53-22.26,19.64-2.85,2.19-4.81,4.59-8.27,6.2-2.6,1.2-5.91,1.98-7.71,3.81l-1.79-3.3c7.72-4.72,14.62-12.02,23.39-15.83,1.45-.63,4.05-.56,4.52-1.26.16-.24.55-.73.82-.82,1.19-.41.79-3.13,1.53-3.91,2.89-3.03,7.64-4.51,8.37-8.59,1.48-.03,2.99.12,4.46.01Z"/>
        <path class="cls-1" d="M208.98,152.98c-.02,6.05.59,12.07,0,18.67-3.53.12-6.78.21-10.11-.21l-.68-3.34c.02-1.17.07-2.4.1-3.58l.29-12.67c3.45.72,6.88,1.38,10.41,1.12Z"/>
        <path class="cls-1" d="M208.94,212.81c-3.12.75-6.18.97-9.29.06l-.48-16.93c-.1-3.51-1.92-6.85-.3-10.08l.82,8.35c3.46-.1,6.6-.67,9.19.84.83,6.2-.14,12.05.06,17.76Z"/>
        <path class="cls-1" d="M92.6,197.64h-18.43s-.44-9.78-.44-9.78l17.9.16c1.21,3.57.68,6.6.98,9.62Z"/>
        <path class="cls-1" d="M209.01,143.15l-.03,9.83c-3.53.26-6.96-.41-10.41-1.12.07-3.03-.12-5.97.08-9l4.88-.46c1.99-.19,3.75,1.08,5.48.76Z"/>
        <path class="cls-1" d="M114.53,147.43l16.03.15-.08,5.05-9,.55c-2.14.13-4.83.52-7.11-.31-2.09-.75-1.28-3.72-1.57-5.16l1.73-.28Z"/>
        <rect class="cls-1" x="104.55" y="230.67" width="89.83" height=".89"/>
        <path class="cls-1" d="M141.3,152.68c-3.59.29-7.24-.27-10.82-.05l.08-5.05c3.55.03,7.22-.73,11.19.35.42,1.81-.43,3.29-.45,4.74Z"/>
        <path class="cls-1" d="M171.5,147.42l.14,2.93c-.27.09-.66.58-.82.82l-10.05-.04c.03-.84-.17-2.94,1.24-3.28,3.33-.8,6.51-.14,9.5-.44Z"/>
        <path class="cls-1" d="M114.53,147.43l-1.73.28c-.31-1.5-.54-3,1.42-3.8l.31,3.51Z"/>
        <path class="cls-1" d="M214.44,223.52c.09-2.25-.36-4.4.97-6.26-.38,2.07.98,4.93-.97,6.26Z"/>
        <path class="cls-1" d="M198.65,142.86c-.2,3.03-.01,5.97-.08,9l-.29,12.67c-.36.09-.76-.36-.76-.95l-.02-25.91c-4.06-.08-7.79-.07-11.51.2-1.47.11-2.98-.05-4.46-.01-1.58.03-3.44-.51-4.48-1.55-1.13-1.13-1.05-2.73-1.01-4.11,7.07.2,14.37-2.11,22.21-.49,0,3.68.61,7.78.39,11.15Z"/>
        <path class="cls-1" d="M74.15,143.84c-.25.91-.92,1.9-.93,2.88-1.5,2.03-.71-14.5-.71-15.27,1.85-.34-.39,10.59,1.65,12.38Z"/>
        <path class="cls-1" d="M155.66,131.6c.17.65-.15,1.2-.68,1.45-.37.18-1.02.08-1.27.28-.73-1.45-2.98-1.19-4.47-1.18,1.7-1.52,4.3-.62,6.42-.55Z"/>
        <path class="cls-1" d="M94.22,96.11c-.74.24-1.4.68-1.77,1.19-.65.88-.35,1.48.4,2.41.69.86,1.28-.31,1.9-.33,1.47-.04,4.64.18,5.48,1.69s2.52,2.88,3.19,4.59c.78,1.96-2.59,2.92-3.35,4.09l-.89.09c-.33.32-.63.67-.89,1.06-5.11.89-9.09-4.31-9.48-9.46-.28-3.71,2.22-5.98,5.28-6.37l.12,1.04Z"/>
        <path class="cls-1" d="M102.6,96.74c.36.8-.09,2.02.05,2.98.19,1.24-1.21,1.66-2.42,1.35-.84-1.52-4.02-1.73-5.48-1.69-.6-.99-.84-2.14-.53-3.27l-.12-1.04c3.07-.39,5.7.22,8.5,1.67Z"/>
        <path class="cls-1" d="M98.29,110.9c.26-.38.56-.73.89-1.06-.03.5-.38.97-.89,1.06Z"/>
        <path class="cls-1" d="M203.69,96.84c.23,1.09,3.02.63,3.18,1.63.2,1.31.4,2.3.27,3.34-2.76-.99-5.04-.46-8.23.74-1.63.61-1.89-3.28-.62-4.24,1.73-1.31,3.64-1.44,5.39-1.47Z"/>
        <path class="cls-1" d="M201.08,112.68c1.59-1.27,3.52-1.94,5.36-2.76-.75,1.85-3.57,4.2-5.36,2.76Z"/>
        <path class="cls-1" d="M174.11,95.02c2.76.83,3.57,2.45,4.6,4.21-2.75-2.1-6.23-4.1-9.22-1.16-.67.65-1.58,1.6-1.2,2.5s1.6,1.58,2.89,1.09c4.4-1.69,7.72,2.17,7.53-2.42,2.27,3.9,1.57,8.92-1.75,11.5-1.12.87-3.89.63-4.55,1.95-1.7-.39-3.54-1.96-5.25-2.99-3.33-2.01-3.32-7.12-1.66-10.61,1.38-2.91,5.2-3.6,8.61-4.07Z"/>
        <path class="cls-1" d="M94.75,99.38c-.63.02-1.21,1.19-1.9.33-.75-.93-1.05-1.53-.4-2.41.37-.51,1.04-.95,1.77-1.19-.31,1.12-.07,2.28.53,3.27Z"/>
        <path class="cls-1" d="M178.71,99.23c.19,4.59-3.13.73-7.53,2.42-1.29.49-2.52-.22-2.89-1.09s.53-1.84,1.2-2.5c2.99-2.94,6.47-.94,9.22,1.16Z"/>
      </g>
    </g>
  </g>
</svg>