<?xml version="1.0" encoding="UTF-8"?>
<svg id="Layer_2" data-name="Layer 2" xmlns="http://www.w3.org/2000/svg" viewBox="0 0 55.52 51.18">
  <defs>
    <style>
      .cls-1 {
        fill: #00aeef;
        opacity: .8;
      }
    </style>
  </defs>
  <g id="Layer_1-2" data-name="Layer 1">
    <g>
      <path class="cls-1" d="M52.82,31.85c-.17-.4-.14-1.06-.06-1.51.26-1.45.51-2.96,1.13-4.39s1.08-2.81.75-4.34c-.45-2.06-2.44-2.94-4.38-2.71.05-.32.3-.52.61-.66-.59-.61-1.28-.92-2.05-1.04-.1.38-.01.58.02.8.06.36.05.73,0,1.09s-.07.7-.06,1.05c-.25.18-.22.5-.16.77.02.12-.11.28-.08.4.05.17.17.32.24.48-.34.08-.7-.05-.77-.41.04-.42.07-.84.05-1.27.31-.26.24-.65.2-1-.08-.8-.02-1.72-.42-2.56-.23-.48-1.02-.33-1.49-.27-.33.04-.11.36-.13.48-.18,1.2,1.31,2.87,1.16,4.55-.09-.02-.19.02-.27,0,0-.58-.17-1.06-.51-1.49-.2-.25-.17-.76-.53-1.04-1.24-.96-3.02-.94-4.09.36.81.4,1.34.96,2.03,1.21.49.18.97.29,1.4.58-.28,0-.91-.13-1.1.25-.14.27.16.81.2,1.11.06.55.38,1.15.2,1.67l-.84,2.46c-.44,1.28.52,2.77.04,4.17.56.2.81.04,1.09.12l1.66.47c.59,1.63,1.07.47,2.72,1.93l2.64-6.66c.3-.77.65-1.47.62-2.22-.02-.55.27-1.41-.01-1.93.01-.13-.08-.52.21-.31,1.12,1.71.22,3.83-.44,6.26-.48-.65-2.34,4.8-2.39,5.02-.03.14-.3.51-.02.56,2.14.36,3.61,1.82,3.88,3.95.18,1.43-.31,2.75-.95,4.02-1.84,3.63-.08,6.56-4.57,7.15-1.31,2.23-5.45,1.22-6.31-.2-.35-.58-.84-1.16-1.39-1.5-.29-1.55-.22-3.37-1.31-4.96-1.35,2.15-.88,5.03-2.33,6.36-.24.02-.21-.16-.03-.28.49-.52.44-1.14.45-1.7.04-2.02,1.27-3.88,1.46-5.92.12-1.29-.17-2.99-.42-4.25s-2.54-1.5-3.56-1.42c.15-.26.46-.32.77-.59-.55-.56-1.24-.75-1.92-.92-.18.35-.02.57-.08.75s-.17.36-.14.57c.03.22.14.38.37.4v.23c-.17.21-.26.49-.45.68-.28.27-.19.63-.21,1l-.03.44c-.13.09-.3.22-.48.24,0-.48,0-.96-.02-1.44.27-.06.22-.34.21-.55-.01-.92,0-1.94-.32-2.9-.22-.65-1.04-.62-1.52-.54-.21,0-.44-.22-.88.08,1.04,1.48,1.44,3.04,1.83,4.78.03.14.42.31.43.47s-.34.13-.45.11c-.12-.16-.31-.22-.5-.23.48-.68-.03-1.25-.43-1.75.59.73-.69-2.67-3.6-1.23-.72.36-1.28,1.08-1.63,2.19-.26.82.48,1.85.83,2.68.44-.39.31-.81.37-1.18.01-.07,0-.17-.01-.24.19-.08.2-.31.2-.49,0-.08.01-.16,0-.24.23-.08.37-.26.46-.48.04-.08.16-.13.21-.21.25-.12.71-.04.93-.24.68.59,1.8.45,2.43,1.17-.06.32-.2.61-.43.68-.41.13-.89,0-1.24.05-.02-.47-.02-1.08-.58-1.08-2.34,0-1.01,4.4-.55,6,.86,3-.77,3.19,1.13,3.69.05.29.31.69.42,1.06s.62.09.8.18c.34.17.73.57,1.21.56.53,0,.76-.63.92-1,.13-.3.33-.58.53-.84.22-.34,1.07.01,1.34-.25,1.09-1.3,1.22-3.12,1.91-4.59.33-.7.58-1.13.55-1.82-.04-.84.24-1.9-.73-2.46-.57-.34-1.33-.13-1.91-.18-.09-.07-.17-.15-.24-.24.73.06,1.61-.34,2.41.08.58.3,1.26,1.4,1.35,2.07.22,1.52-.57,2.82-.93,4.18-.31,1.17-.47,2.27-.95,3.27-.84-.33-1.61,2.04-1.33,2.15l.65.24c-.86.02-1.19.72-1.95,1.16-1.55.91-4.14.38-5.3-1-.5-.59-.85-1.28-1.49-1.64-.15-1.67-.36-3.56-1.33-5.21-1.75,2.75-.66,6.71-3.55,7.06,1.33-1.6,1.16.12,1.59-2.55.24-1.45.5-2.99,1.12-4.42.68-1.58,1.24-3.23.61-4.94-.41-1.14-1.51-1.99-2.65-1.91l-.62.04c-.4-1-1.96.55-2.07-.01-.18-.45.63-.52,1.01-.81-.19-.2-.76-.66-1.1-.48-.46.25-.26,1.07.08,1.29-.03.49-.68.76-.26,1.16.45-.22.66,0,.34.29-.3.08-.44.06-.48.18-.5,1.69,2.11-.84,3.62.53,1.86,1.69.81,4.16.18,6.43-.33-.62-2.53,4.87-2.44,5.24.36-.04.61-.16.79.04-1.81.55-2.11,2.09-2.58,1.02.87-.56,1.22-1.44,1.62-2.45l2.22-5.67c.25-.63.45-1.11.44-1.69,0-.67.24-1.4-.12-2.13-.93-1.87-3.04.04-4.95-.5-.48-.14-.93-.36-1.42-.47l-1.45-5.53c.48,0,1-.31,1.43-.47.35-.13,1.25.24,1.57-.19.74-2.06,1.54-4.06,2-6.09.15-.69.14-1.75-.09-2.42l.31-.04.29.72c.08.19,0,.47.25.56.23,1.96-.69,3.32-.8,4.98-.51-.13-1.99,2.93-.92,3.76.37.29.86.02,1.24-.1-.04.15.06.5.22.64l1.38,1.21c.79.69,2.03.64,2.76,1.42.24-.37.41-.57.54-.97-3.59-1.08-1.5-1.97-3.6-2.48l-.51-1.94c-.08,1.26-.25,1.96-.8,2.13.12-.41.27-1.16,0-1.51l1.04-4.42c.42-1.81,1.16-3.54.32-5.31-1.32-2.8-4.9-1.38-5.2-1.49,0-.37.52-.47.59-.73.09-.35-.54-.49-.75-.45-.31.06-.24.48-.29.79s.18.29.44.39c0,.36-.46.56-.57.88-.06-.1-.25-.15-.35-.18-.02-1.05-.16-2.18-.61-3.22-.17-.4-.77-.43-1.11-.25s-.16.72-.01,1.12c-.96-.1.91,2.34.72,3.09-.22-.21-.68-.4-.77-.74-.4-1.45-2.04-1.71-3.31-1.19-.79.32-1.35.75-1.91,1.46-.06-.12-.46-.12-.32-.41,1.05-2.09,3.27-1.39,3.84-2.66-1.14-2,2.14.04-.35-4.74-1.17,2.18-.05,3.33-1.73,4.96-.28.12-.27-.25-.21-.35,1.07-.44.4-1.21.46-1.64.34-1.14.57-3.2,1.02-4.38.58-1.51.97-2.73.68-4.28-.5-2.65-2.61-2.98-4.76-2.83.18-.48.09-1.03.63-1.52.46.68,1.09.78,1.78,1.04l1.56.58c1.46-1.88,2.95-1.17,3.79-2.34.12-.16-.36-.59-.28-.77.39-.99,1.54-.83,2.31-.98.94-.18,1.23,1.06,1.9,1.2,1.22.26,1.79.9,2.72,1.45,1.12.65,2.53.68,3.39,2.01,1.55-2.65,3.05-1.52,4.11-2.91.12-.16-.37-.59-.29-.78.41-.95,1.52-.85,2.32-.96.94-.13,1.2.95,1.92,1.22,4,1.47.26.8,4.77,2.23,1.54-2.33,3.01-1.37,3.98-2.67.12-.16-.36-.59-.29-.77.4-.99,1.54-.81,2.31-.98.94-.2,1.25,1.11,1.89,1.2,1.25.18,1.8,1.06,2.72,1.43,1.79.73,3.52,1.32,3.99,3.45.36,1.62,0,3.21-.7,4.74-1,2.16-.55,4.41-1.68,6.22.85,2.15,4.47.83,4.98,5.4.15,1.36-.44,2.61-1.02,3.87-1.02,2.23-.85,3.79-1.65,5.53ZM44.71,5.24c-.22-.21-.67-.4-.77-.74-.39-1.41-2.07-1.78-3.31-1.19-.64.3-1.54.51-1.65,1.47-.04.36.41.67.6.88.09.1.17.2.27.29.01.08,0,.16.01.24.07.27-.07.59.15.98.26-.3.08-.66.13-.97.14-.17.31-.35.49-.47.12-.08.37-.29.27-.46.12.04.3-.04.41.01.52.25,1.03.07,1.46.52-.25-.03-.48.11-.71.14-.28.03-.5.24-.76.3-1.62.36,0,4.7.27,5.72.27,1.45.42,2.86.06,4.44-.1.45.13,1.46.71,1.51,1,.09,2.07-.59,2.77-1.01.01-.2-.27-.56-.4-.43-.04-.46.22-.86.52-.99.5-.21.99-.18,1.4-.19.46-.01.86.13,1.48.23.74-2.27,1.69-4.41,2.13-6.65.12-.63.06-1.59-.12-2.19l.31-.04.29.72c.08.19,0,.47.24.56.11,2.31-.34,2.61-.8,4.98-.47-.45-1.79,3.38-1.52,3.56.12.45,1.28.41,1.62.15.6-.47.33-1.26.42-1.81.21-1.41.33-2.95.91-4.37.67-1.63,1.02-3.26.34-4.96-.45-1.12-1.46-1.8-2.62-1.73-.1-.99-1.8.11-2.68.05.04-.32.48-.44.6-.75.15-.41-.43-.43-.73-.4-.32.04-.26.38-.29.78-.02.25.09.35.41.37-.04.38-.48.56-.57.91-.08-.1-.21-.16-.33-.18-.18-1.05-.08-2.24-.64-3.27-.26-.49-.98-.23-1.35-.26-.21-.02-.74-.15-.84.17.78,1.34,1.57,2.66,1.82,4.08ZM17.93,6.4c-.26-.21-.74-.58-.84-.94-.4-1.4-2.06-1.79-3.31-1.19-.57.27-1.4.44-1.59,1.29-.1.44.42.85.61,1.16.04.06.11.11.16.16.03.19.03.44.27.52.37-.61.67-1.11,1.24-1.18-.16.67.28-.38,1.46.5-.25-.07-.49.21-.71.2-.43-.03-.62.1-.89.36-1.23,1.19,0,4.19.41,5.61.33,1.14.19,2.33.32,3.61.04.42.89.43,1.15.54.08.22.08.44.22.59.24.23.55.07.73.17,1.35.75,1.89,1.75,2.46,1.62.23-.05.79-.23.9-.58.91-3.07,2.19-5.97,2.87-9.01.14-.62.05-1.6-.12-2.19l.31-.04.29.72c.08.19,0,.47.24.56.26,2.24-.76,3.6-.8,4.98-.55-.48-2.06,4.4-2.19,5.11,1.11-.16,2.07-1,2.03-1.96l-.03-.23c.2-.02.4-.07.59-.27.13-.13.05-.34-.09-.49l1.06-4.45c.41-1.74,1.14-3.41.38-5.12-.49-1.12-1.46-1.83-2.61-1.74-.1-.99-1.8.11-2.68.05.05-.32.48-.44.6-.75.15-.41-.43-.43-.73-.4-.32.04-.26.38-.29.78-.02.25.09.35.41.37-.05.38-.46.62-.62.96h-.14c-.06-.1-.12-.18-.19-.27-.12-.99-.08-2.08-.52-3.09-.26-.6-1.02-.4-1.44-.4-.21,0-.74-.16-.82.17.84,1.38,1.78,2.78,1.88,4.28ZM32.01,6.2c-.23-.17-.7-.42-.77-.74-.19-.78-.82-1.14-1.33-1.34-1.07-.42-1.52.06-2.19.34-.73.31-1.16.53-1.54,1.14-.59.93-.03,1.68-.05,2.57-.03,1.14-.1,2.03.16,3.07.29,1.2.67,2.36,1.23,3.6.32.71-.06,1.59.14,2.37.05.18.63.33.7.17.29-.84.24-1.95-.14-2.63.21-2.28-1.53-5.2-.76-7.4.16-.46.78-.68.77-1.15.11.03.3-.06.4,0,.51.29,1.02.07,1.46.5-.25-.06-.49.18-.72.18-.4,0-.65.06-.92.35-1.26,1.36.04,4.13.44,5.66.71,2.76-.47,4.67,1.23,5.73.66.41,4.62-.86,3.61-1.61-.13-.3.38-.68.4-.95.42-.18,1.31-.11,1.61-.58.65-1.96,1.48-3.77,1.81-5.68.11-.62.08-1.6-.12-2.19l.31-.04.29.72c.08.19,0,.47.24.56.14,1.41-.26,2.85-.54,4.23-.14-.14-.34,0-.44.18-.05.11.1.29.22.38v.39c-.16-.13-.35-.01-.46.17-.07.12.21.28.25.4-.06.47-.52,1.12-.05,1.67,1.28-.85.68-2.78,1.77-5.29.66-1.52.83-3.21.14-4.74-.48-1.06-1.49-1.65-2.55-1.58-.1-.99-1.81.11-2.68.05.06-.32.47-.44.6-.75.16-.41-.44-.43-.73-.4-.32.04-.24.4-.3.79-.04.27.11.34.43.36-.07.36-.4.64-.49.99-.09-.13-.29-.2-.42-.27-.03-1.05-.15-2.22-.64-3.26-.24-.5-1-.21-1.35-.25-.21-.02-.74-.15-.82.17.8,1.32,1.54,2.66,1.81,4.08ZM14.03,15.8c.47-.78.19-1.53.03-2.24l-.86-3.8c-.75.58.24,5.2.83,6.05ZM40.14,16.52c-.17-1.25-.17-2.57-1-3.6-.49,1.45-.61,2.82-.83,4.3,2.22.54,1.82,1.88,2.85,1.66.21-.04.62-.25.52-.6-.13-.45-.61-.85-.56-1.29.31-2.45-.01-4.9-.93-7.2-.28,1.12-.52,2.12-.38,3,.04.28,1.1,3.91.33,3.73ZM27.12,17.43c.88-.76-1.27-5.62-1.6-6.17-.64,1.57-1.16,3.42-1.07,4.93,1.15-.08,2.52-.04,2.67,1.24ZM36.03,20.05h-.44c-.45-1.39-2.33-1.78-3.57-1.04.58.57,1.09.96,1.63,1.32.18,1.13,1.08.63,1.49,1.24-.19-.11-.55-.11-.76-.07-.2.04-.32.26-.04.27-.02.07,0,.17.02.24l.07.52-.08,3.32c-.18.14-.22.46-.23.67-.82-.28-1.13,4.57-1.17,5.28-.04.61.58,1.09,1.09,1.14,1,.11,1.43.66,1.95,1.38.33.46,1.33.22,1.82-.03s.8-.89,1.02-1.6c.69-2.19,2.7-6.24,2.8-7.55.05-.65.45-1.7.15-2.36h.26c.4.61.68,1.21.5,2.11-.53,2.64-1.45,5.04-2.13,7.68,2.48-2.64,1.37-3.68,2.65-6.23.74-1.47,1.08-3.15.54-4.74-.38-1.14-1.46-1.82-2.34-2.06-1.2-.33-2.49-.11-3.33.8-.2.21.39.61.51.74-.19.27-.49.26-.68.44-.33-.44-.28-.98-.35-1.5-.11-.91,0-1.91-.39-2.85-.24-.58-1.01-.39-1.44-.43-.17-.02-.39-.39-.65-.07-.4.51.82,1.38,1.08,3.38ZM26.95,22.01v.33c-.17-.06-.43.19-.55.27h-.25l-.14-.34c.24-.77-.51-1.28-.78-1.87-.68-1.49-2.74-1.63-4.03-.53.46.75,1.03,1.09,1.67,1.37.51.22.96.53,1.46.64-.47,0-1.23-.04-1.22.57,0,.19-.03.37.14.51.15.11.33.22.51.09v.19c-.29.38-.19.88-.19,1.34-1.2.46-.11,3.62-.07,5.1l.09,3.59c.03.98,1.79,1.75,2.72,1.35s1.71-.73,2.7-.92c.54-.1.33-.97.47-1.31.52-1.36,2.33-6.77,2.28-7.71-.04-.71.23-1.63-.28-2.23-.01-.13.1-.21.22-.22.21.37.43.78.52,1.23.09.49-.23,1.16.26,1.48-.08,1.12-.38,2.2-.52,3.3-.24-.07-.44.12-.54.43l-.64,2.03c-.06.19-.02.37.02.5.06.19.31.19.5.2h.43c.16.18.41.29.57.2.31-.18.08-.55.1-.74.18-1.57.24-3.2.8-4.81s.92-3.47-.01-5.04c-1.15-1.93-3.43-1.89-5.34-1.16.05-.56.56-.55,1.18-.93-.42-.37-1.01-.35-1.35-.27-.28.32-.27,1.1.18,1.2-.03.35-.3.65-.37,1-.05.25.02.51,0,.76v.23s-.3,0-.3,0l-.09-.54c-.02-.1.09-.21.05-.32s-.13-.17-.25-.16c0-.16-.07-.34-.05-.51.15-1,.05-2.22-.61-3.11-.32-.43-1.1-.14-1.44,0-.11-.02-.27-.16-.38-.14-.22.03-.23.16-.24.29-.02.22.26.25.36.4,1.01,1.54,1.66,4.66,2.39,4.27ZM39.21,18.9c-.34-.47-.81-.5-1.06-.38-.22.11-.29.82-.08.98.37-.03.74-.35,1.13-.6ZM23.04,32.83c-.12-1.93.15-3.47-.74-4.86-.64,1.26-.35,2.44-.15,3.66-.01.6-.07,1.51.89,1.2ZM45.69,36.4c-.31-.31-.64-.78-.76-1.21-.25-.91-.9-1.25-1.67-1.51-1.15-.38-1.66.28-2.39.72-.88.54-1.55,1.05-1.56,2.48,0,1.26.08,2.66.46,3.85.52-.41-.08-.87.27-1.24l1.37,5.77c.72-2.5-1.37-6.09-.28-8.62.81-.57,1.73-.52,2.63-.2-.53.04-1.64-.01-1.94.58-.88,1.74.12,4.13.5,5.85.45,1.52-.24,3.13-.15,4.74.07,1.31,1.8,1.73,2.78,1.92,1.73.35,2.69-.52,3.27-2.02l2.33-6.03c.22-.56.38-.99.42-1.48.09-.95.33-2.01-.39-2.73-.18-.29.17-.4.36-.25,1.72,2.65.66,3.36-.27,7.04-.6-.25-1.88,3.46-2.2,4.45,3.02-.59,2.49-1.65,2.68-2.56.3-1.44.48-2.97,1.11-4.42.69-1.58,1.23-3.24.61-4.93-.42-1.16-1.48-1.97-2.64-1.92l-.65.03c-.66-.63-1.48.18-2.02-.01.14-.4.45-.56,1.02-.79-.23-.19-.62-.58-1.06-.51-.48.08-.43,1.13.04,1.3-.12.35-.41.63-.45,1.01-.2-.16-.35-.37-.5-.57.05-.96.07-2.01-.32-2.99-.26-.64-1.07-.58-1.54-.34-.13-.09-.29-.22-.4-.21-.21,0-.32.15-.29.35-.14-.85,1.99,3.93,1.63,4.45ZM43.13,32.31c.02-.39-.78-.46-.91-.3-.29.44-.59.99-1.1,1.19.8.12,1.96-.07,2.01-.89ZM18.8,36.55c.57-.23.27-3.05-.33-3.51-.34-.26-.81-.25-1.3-.03-.1-.08-.19-.13-.25-.16-.15-.09-.36-.02-.43.11-.12.22.14.32.25.51.87,1.45,1.06,3.08,1.77,4.73.7-.33.28-.95.29-1.65ZM38.88,35.55l1.22-1.62c-.52-.85-2.26.98-2.01,1.24.14.14.62.6.79.38ZM27.17,41.05c.22-.67-.43-.82-.5-.2l.64,3.25c.43-1.01-.11-1.9-.14-3.05ZM34.42,48.39c0-.15-.12-.27-.27-.27s-.27.12-.27.27.12.27.27.27.27-.12.27-.27ZM33.61,49.67c.32-.11.39-.29.31-.43-.07-.13-.22-.18-.36-.12-.16.06-.07.26-.19.44-.26.24-.07.29.25.12Z"/>
      <path class="cls-1" d="M18.34,38.37c.16.33.26.65.31,1.15.11-.17.35-.51.54-.43.32.62.31,1.32.82,1.84.7-.54-.34-1.88.8-1.83-.45.36.11.72.13,1.17l.17,2.96.58-.85c-.12,1.9-2.09,4.38-2.85,6.25l-1.91-10.73c.49.11.94.33,1.42.47Z"/>
      <path class="cls-1" d="M18.8,26.78c.19,1.3-1.53,4.02-1.9,5.12-.42.16-.94.46-1.43.47-.55-2.1-1.88-4.07-2.58-6.13h.16c.37.01,2.28.98,3.18.25.36-.3.32-.98.35-1.39.21,0,.28.53.58.58.73-.52-.59-2.21.72-2.15-.65.43.85,2.12.3,4.07l.62-.82Z"/>
      <path class="cls-1" d="M23.41,41c0,.58-.2,1.06-.44,1.69l-2.22,5.67c-.4,1.01-.75,1.89-1.62,2.45-.3-.68-.17-1.49-.3-2.18.76-1.87,2.73-4.35,2.85-6.25,0-.16.03-.34.07-.5.43.11.38-.45.61-.72.26-.31.77-.12,1.05-.15Z"/>
      <path class="cls-1" d="M14.21,21.05c.1.34.55.53.77.74.26.24.19.77.7.9.22-.59.05-1.14-.05-1.63.11.02.24-.04.35,0,.1.03.29.09.35.18.09.15.15.3.33.2.11-.06.27-.39.48-.33.44.13.18.59,0,.79s-.59.16-.78.62c1.19.12,3.42-1.6,4.33.65l-.31.04c-1.44-1.54-3.67-.09-3.67-.07l-.08.85c-.38-.6-.64-1.04-1.24-.94-.22.04-.47-.13-.7-.11-1.12-.84-2.76-.7-3.81.21-.2-.02-.26-.44-.42-.48.89-1.15,2.29-1.74,3.74-1.62Z"/>
      <path class="cls-1" d="M14.21,21.05c-1.45-.12-2.86.46-3.74,1.62-.31-.06-.39-.52-.59-.65.12-1.02,1.1-1,1.02-2.16,1.27-.52,2.91-.26,3.31,1.19Z"/>
      <path class="cls-1" d="M52.38,28.22l-.9,3.3c.59-.36.69-1.04,1.28-1.17-.08.45-.11,1.11.06,1.51-.48,1.05-1.73,1.32-2.84,1.38.05-.22,1.91-5.67,2.39-5.02ZM51.42,31.97c0-.07-.05-.12-.12-.12s-.12.05-.12.12.05.12.12.12.12-.05.12-.12Z"/>
      <path class="cls-1" d="M14.69,22.93c-.64,1.31-1.39.03-2.16.85-.61.64.52,1.59.52,2.47h-.16c-.36-1.08-1.7-1.98-2.01-3.1,1.05-.92,2.69-1.05,3.81-.21Z"/>
      <path class="cls-1" d="M23.36,44.51l-1.1,3.99c.71-.47.59-1.33,1.3-1.33-.44,2.66-.27.95-1.59,2.55l-.26.07c-.18-.2-.43-.08-.79-.04-.09-.37,2.11-5.86,2.44-5.24Z"/>
      <path class="cls-1" d="M10.9,19.86c.08,1.15-.9,1.13-1.02,2.16-.3-.2-.72-.34-.89-.7.56-.71,1.12-1.14,1.91-1.46Z"/>
      <path class="cls-1" d="M50.5,26.29c-.03,1.24-.62,2.4-1.44,3.44-.36.45-.3,1.58-1.03,1.66-.47.05-.95-.63-1.38-.24l-1.66-.47c-.14-2.76.52-2.86.02-6.05,1.05.49,2.19.68,3.42.36.23-.4.12-.84.39-1.11.18.06.35.18.59.19.1-.41.17-.69.41-.87.79-.06.01,2.73.69,3.07Z"/>
      <path class="cls-1" d="M23.88,24.66c1.47,3.79-.23,5.89,1.61,8.42.47-.37.68-.73.93-1.06.43-.05.93.41,1.41.25s.44-.8.56-1.11c.56-1.46,1.64-3.17,1.47-4.38.16-.08.11-.34.21-.44.21-.2.25-.44.25-.73v-.72s1.46-.22,1.46-.22c.06.95-1.75,6.36-2.28,7.71-.13.34.07,1.21-.47,1.31-.99.19-1.76.52-2.7.92s-2.69-.37-2.72-1.35l-.09-3.59c-.04-1.48-1.13-4.64.07-5.1.1,0,.19.07.29.07Z"/>
      <path class="cls-1" d="M39.86,26.79c-.06.68-.54,1.21-.68,1.87-.21-.14-.34.12-.43.24-.13.18,0,.41-.06.57-.19.54-.71.96-.95,1.46-.37-.02-.71-.56-1.19-.48-.65.11-.74.92-.92,1.38-.09.22-.15.43-.35.57-.17.12-.53.31-.7.01-.36-.61-.48-1.31-.66-1.99.32-1.35.3-2.64.18-3.9,0-.21.05-.53.23-.67.91.3,1.94.72,2.93.21.4-.2.56-.86.56-1.22.22,0,.45.04.72-.05.07-.45.11-.79.19-1.13.64-.1.71,2.78.42,3.33.39.08.49-.13.68-.21Z"/>
      <path class="cls-1" d="M41.62,25.15c-.09,1.31-2.11,5.36-2.8,7.55-.22.7-.51,1.34-1.02,1.6s-1.48.49-1.82.03c-.52-.72-.95-1.28-1.95-1.38-.51-.05-1.13-.53-1.09-1.14.04-.71.35-5.56,1.17-5.28.12,1.26.14,2.55-.18,3.9.18.68.3,1.37.66,1.99.17.3.54.11.7-.01.19-.14.26-.35.35-.57.49-.23.94.35,1.41.39.64.05.59-.92.7-1.29.24-.5.76-.93.95-1.46.43-.04.42-.48.49-.81.13-.66.62-1.19.68-1.87.01-.14.07-.29.07-.44.22-.01.18-.34.2-.5l.07-.49c.47-.11.94-.21,1.42-.21Z"/>
      <path class="cls-1" d="M42.03,22.78c-.31-.48-.37-1.18-1.23-1.24-2.36-.17-2.37.88-3.03-.01.18-.18.48-.17.68-.44-.12-.13-.71-.53-.51-.74.84-.91,2.13-1.12,3.33-.8.89.24,1.96.92,2.34,2.06.53,1.6.2,3.27-.54,4.74-1.28,2.55-.17,3.59-2.65,6.23.68-2.65,1.6-5.04,2.13-7.68.18-.89-.1-1.5-.5-2.12Z"/>
      <path class="cls-1" d="M20.76,31.58c-.4.16-.54.57-.89.91-.02-1.14.5-2.04.57-3.06.11-1.66,1.03-3.02.8-4.98.04-.12.29-.25.21-.38-.12-.19-.3-.31-.45-.18l-.29-.72c-.91-2.25-3.13-.53-4.33-.65.19-.46.6-.41.78-.62s.44-.67,0-.79c-.21-.06-.38.27-.48.33-.18.1-.24-.05-.33-.2.11-.31.58-.52.57-.88.3.11,3.88-1.31,5.2,1.49.84,1.78.11,3.5-.32,5.31l-1.04,4.42Z"/>
      <path class="cls-1" d="M52.76,30.35c-.59.13-.69.81-1.28,1.17l.9-3.3c.66-2.43,1.56-4.55.44-6.26-.27-.42-.6-.74-.93-1.11.25-.05.56-.32.84-.24.24.06.12.68.37.82.41.23.58-.26.61-.5.06-.48-.43-.41-.81-.64s-.41-.83-.73-.86c-.5-.04-.93-.17-1.25.05.51.45.54.91.47,1.36-.98-.02-1.89.57-2.87.46-.04-.12.1-.28.08-.4.42.04.94-.1.87-.7-.28-.1-.51-.05-.71-.07,0-.35.01-.7.06-1.05l.19.03c.25.73.79-.17,1.23-.22,1.94-.23,3.93.65,4.38,2.71.33,1.54-.15,2.96-.75,4.34s-.87,2.95-1.13,4.39Z"/>
      <path class="cls-1" d="M52.62,24.2c.03.75-.32,1.45-.62,2.22l-2.64,6.66c-1.66-1.45-2.14-.29-2.72-1.93.43-.39.91.29,1.38.24.74-.08.68-1.21,1.03-1.66.82-1.04,1.41-2.21,1.44-3.44l.18-.2c.14-.15.26-.29.26-.5,0-.25.05-.49.08-.74.5-.39.93-.85,1.61-.65Z"/>
      <path class="cls-1" d="M35.14,21.57c.37.22.77.34,1.2.41.12.06.25.29.44.27v.21c.06.96,1.12-.45,1.07,2.37,0,.36-.16,1.02-.56,1.22-.99.51-2.02.09-2.93-.21l.08-3.32c.16.12.38-.02.44-.17.07-.15,0-.32-.12-.35-.13-.03-.27.01-.39,0,0-.07-.04-.17-.02-.24.02-.09.08-.17.04-.27.21-.04.57-.04.76.07Z"/>
      <path class="cls-1" d="M22.03,35.93c.33,2.5.91.69,1.82,2.37.58,0,.74-.37.71-.81-.04-.63-1-.46-1.92-1.61,1.14-.07,2.24.78,2.65,1.91.62,1.71.07,3.36-.61,4.94-.62,1.43-.88,2.97-1.12,4.42-.71,0-.59.86-1.3,1.33l1.1-3.99c.62-2.27,1.67-4.75-.18-6.43-1.51-1.37-4.12,1.16-3.62-.53.04-.12.18-.09.48-.18.31-.29.11-.51-.34-.29-.42-.4.23-.67.26-1.16.11.56,1.67-.99,2.07.01Z"/>
      <path class="cls-1" d="M32.41,30.86c-.35-.06-.6.23-.67.55h-.43c.24-1.07.52-2.1.66-3.17s.44-2.19.52-3.3c.02-.26.35-.52.27-.88-.07-.32-.01-.74-.52-.61-.08-.45-.3-.86-.52-1.23-.23-.4-.57-.65-.94-.93.1-.25.35-.53.63-.48.35.06.32.52.49.83.14.25.57.09.63-.12.06-.22.13-.51.07-.78-.04-.21-.65-.03-.81-.16-.64-.55-1.02-.9-2.14-.62.48.3.57.83.63,1.37-1.42.07-2.32,1.11-2.79.5v-.23c.25.02.48-.07.65-.2.2-.14.42-.48.16-.72-.22-.16-.58.19-.81.15.07-.34.33-.64.37-1,1.91-.73,4.19-.77,5.34,1.16.93,1.57.58,3.41.01,5.04s-.62,3.24-.8,4.81Z"/>
      <path class="cls-1" d="M47.33,21.61c-.09.16.06.24.2.18.17.34.22.69.39,1.19.06-.13.32-.52.49-.34.35.38.26.89.41,1.26-.27.27-.16.71-.39,1.11-1.23.32-2.37.13-3.42-.36-.04-.26-.06-.55-.31-.7.18-.52-.14-1.12-.2-1.67l2.06-.1.55-.56c.07-.02.16.02.23-.01Z"/>
      <path class="cls-1" d="M27.12,17.43c-.15-1.28-1.52-1.32-2.67-1.24-.09-1.51.43-3.36,1.07-4.93.33.55,2.49,5.41,1.6,6.17Z"/>
      <path class="cls-1" d="M26.41,22.62c.06.24.29.47.31.94,0,.63.6.49.53-.29.61.08.54.96.51,1.41-.02.25.16.88-.23,1-2.72.87-3.27-1.04-3.65-1.02-.1,0-.19-.06-.29-.07,0-.46-.1-.96.19-1.34.99-.27,2.12.41,2.37-.63h.25Z"/>
      <path class="cls-1" d="M40.14,16.52c.06.43.65.49.98.48-.06.44.43.84.56,1.29.1.34-.31.55-.52.6-1.03.22-.63-1.13-2.85-1.66.22-1.48.34-2.85.83-4.3.82,1.03.83,2.35,1,3.6Z"/>
      <path class="cls-1" d="M31.49,22.44c.52.61.24,1.53.28,2.23l-1.47.22c0-.54.21-1.15.03-1.78-.12-.4-.74-.24-1.08-.15s-.97.28-.65.78c.16.26-.02.73-.03,1.08-.34-.07-.56-.16-.82-.14.03-.45.09-1.33-.51-1.41.07.78-.52.92-.53.29-.02-.48-.25-.7-.31-.94.11-.09.37-.33.53-.27.74.63,3.1-1.61,4.55.1Z"/>
      <path class="cls-1" d="M41.77,22.79c.3.66-.1,1.71-.15,2.36-.48,0-.95.1-1.42.21.12-.93.65-2.38-.25-2.39-.04-.34-.64-.29-.94-.14-.2.1-.68.38-.26.61,0,.07.02.15,0,.22-.08.34-.12.68-.19,1.13-.27.09-.5.04-.72.05.05-2.82-1.01-1.42-1.06-2.37.23-.19.74.26.96.17,1.1-.94,3.47-1.08,4.03.15Z"/>
      <path class="cls-1" d="M48.01,21.36c.07.37.44.49.77.41l1.75-.43c.8-.19,1.69.22,2.08.92.29.52,0,1.38.01,1.93-.67-.19-1.1.27-1.61.65.09-.7.53-1.46.23-2.27-.1-.28-.77-.28-1.03-.26-.14-.05-.31-.1-.46.02-.12.1-.42.36-.02.41,0,.13.08.33.06.47-.24.18-.31.46-.41.87-.24-.01-.41-.14-.59-.19-.14-.36-.06-.88-.41-1.26-.16-.18-.43.2-.49.34-.16-.5-.21-.85-.39-1.19.02-.15-.03-.27-.2-.18-.06.03-.16,0-.23.01v-.33c.09.01.19-.03.28,0,.21.05.42.09.63.07Z"/>
      <path class="cls-1" d="M20.47,25.62c-.45,2.03-1.26,4.03-2,6.09-.32.43-1.22.05-1.57.19.37-1.1,2.09-3.82,1.9-5.12.15-.2.26-.45.22-.69-.03-.15.02-.33.01-.48h1.44Z"/>
      <path class="cls-1" d="M20.76,33.09c.55-.17.72-.87.8-2.13l.51,1.94c2.1.51,0,1.4,3.6,2.48-.13.4-.3.6-.54.97-.73-.78-1.98-.73-2.76-1.42l-1.38-1.21c-.16-.14-.26-.49-.22-.64Z"/>
      <path class="cls-1" d="M23.41,41c-.28.03-.79-.15-1.05.15-.23.27-.18.83-.61.72.2-.79.54-1.65.34-2.6-.2-.3-.95-.15-1.28-.17-1.13-.06-.1,1.29-.8,1.83-.51-.51-.49-1.22-.82-1.84-.2-.09-.43.26-.54.43-.05-.5-.14-.82-.31-1.15,1.91.55,4.02-1.37,4.95.5.36.72.11,1.46.12,2.13Z"/>
      <path class="cls-1" d="M20.39,23.2c.22.67.24,1.73.09,2.42h-1.44c-.05-.56.33-1.2.1-1.83-.17-.47-.91-.25-1.25-.27-1.31-.05,0,1.63-.72,2.15-.31-.05-.37-.58-.58-.58.02-.34,0-.77-.26-1.18-.11-.17-.46.07-.67.16-.15-.34-.23-.69-.26-1.04.6-.1.86.34,1.24.94l.08-.85s2.23-1.47,3.67.07Z"/>
      <path class="cls-1" d="M45,24.64c.5,3.19-.16,3.29-.02,6.05-.28-.08-.53.08-1.09-.12.48-1.4-.48-2.89-.04-4.17l.84-2.46c.25.15.26.44.31.7Z"/>
      <path class="cls-1" d="M46.59,19.81c-.89-.02-1.99-.21-2.59.53-.7-.26-1.22-.82-2.03-1.21,1.07-1.3,2.85-1.32,4.09-.36.36.28.33.79.53,1.04Z"/>
      <path class="cls-1" d="M25.24,20.41c.33.22-2.07.27-2.36.84-.64-.28-1.21-.62-1.67-1.37,1.29-1.1,3.35-.95,4.03.53Z"/>
      <path class="cls-1" d="M35.6,16.74c-.21.87,1.25,2.3,1.44,3.31.15.8.42,1.66-.26,2.21-.19.02-.32-.21-.44-.27.31-.66-.22-1.28-.3-1.94-.26-1.99-1.48-2.86-1.08-3.38.26-.33.48.05.65.07Z"/>
      <path class="cls-1" d="M35.59,20.06c-.54.44-1.29.17-1.94.27-.54-.36-1.05-.75-1.63-1.32,1.24-.75,3.13-.36,3.57,1.05Z"/>
      <path class="cls-1" d="M18.8,36.55c-.4-.67-.52-1.54-1.07-2.21-.35-.43-.71-.78-.56-1.32.49-.22.95-.23,1.3.03.6.46.91,3.28.33,3.51Z"/>
      <path class="cls-1" d="M23.04,32.83c-.96.3-.9-.6-.89-1.2-.2-1.22-.5-2.4.15-3.66.88,1.39.62,2.93.74,4.86Z"/>
      <path class="cls-1" d="M26.88,20.31c-.35-.53-2.2-2.78-2.05-3.11.34-.14,1.12-.43,1.44,0,.66.89.76,2.12.61,3.11Z"/>
      <path class="cls-1" d="M20.43,29.43c-.07,1.03-.59,1.92-.57,3.06.35-.33.5-.75.89-.91.27.35.12,1.1,0,1.51-.38.12-.87.39-1.24.1-1.07-.83.4-3.89.92-3.76Z"/>
      <path class="cls-1" d="M37.42,20.02c.06.52.02,1.06.35,1.5.66.9.67-.15,3.03.01.86.06.93.77,1.23,1.24h-.26c-.56-1.21-2.93-1.07-4.03-.14-.22.09-.73-.36-.96-.17v-.21c.67-.55.4-1.42.25-2.21.13-.02.26-.03.39-.03Z"/>
      <path class="cls-1" d="M47.83,19.13c.14.26-.06.74.24.97.02.42,0,.85-.05,1.27-.21.02-.43-.02-.63-.07.15-1.68-1.33-3.35-1.16-4.55.74.62,1.13,1.55,1.61,2.39Z"/>
      <path class="cls-1" d="M26.02,22.28l-1.68-.39c-.49-.11-.95-.42-1.46-.64.29-.57,2.69-.62,2.36-.84.27.59,1.02,1.09.78,1.87Z"/>
      <path class="cls-1" d="M22.64,35.89c.92,1.14,1.88.98,1.92,1.61.03.44-.13.81-.71.81-.92-1.68-1.49.13-1.82-2.37l.62-.04Z"/>
      <path class="cls-1" d="M24.83,17.2c-.15.33,1.7,2.58,2.05,3.11-.02.16.04.34.05.51,0,.18.03.38.2.48l.09.54c-.11,0-.25.05-.26.17-.73.4-1.38-2.72-2.39-4.27-.1-.16-.38-.18-.36-.4.01-.12.02-.26.24-.29.11-.01.27.12.38.14Z"/>
      <path class="cls-1" d="M46.59,19.81c.35.43.52.91.51,1.49-.53-.08-1.23-.07-1.7-.38-.43-.29-.91-.39-1.4-.58.6-.74,1.7-.55,2.59-.53Z"/>
      <path class="cls-1" d="M36.03,20.05c.09.66.61,1.28.3,1.94-.43-.08-.83-.19-1.2-.41-.41-.61-1.3-.11-1.49-1.24.65-.1,1.4.17,1.94-.27h.44Z"/>
      <path class="cls-1" d="M45.4,20.91c.47.31,1.17.31,1.7.38v.33s-.55.56-.55.56l-2.06.1c-.03-.3-.33-.84-.2-1.11.19-.38.82-.26,1.1-.25Z"/>
      <path class="cls-1" d="M24.34,21.89l1.68.39.14.34c-.25,1.04-1.38.37-2.37.63v-.19c.05-.18.16-.46-.09-.55-.18-.07-.4-.06-.58-.05-.01-.61.74-.57,1.22-.57Z"/>
      <path class="cls-1" d="M14.26,18.7c.59.69,1.19,1.46,1.38,2.36.1.49.27,1.04.05,1.63-.52-.13-.45-.66-.7-.9.18-.75-1.69-3.19-.72-3.09Z"/>
      <path class="cls-1" d="M17.17,33.02c-.15.54.21.89.56,1.32.55.68.67,1.55,1.07,2.21,0,.7.41,1.32-.29,1.65-.71-1.65-.9-3.28-1.77-4.73-.11-.19-.37-.29-.25-.51.07-.13.28-.2.43-.11.07.04.15.09.25.16Z"/>
      <path class="cls-1" d="M30.29,21.34c.16,0,.33-.02.49-.04.37.28.71.53.94.93-.12,0-.24.09-.22.22-1.45-1.71-3.81.53-4.55-.1v-.33c.02-.12.16-.17.27-.17h.29c.47.61,1.37-.44,2.79-.51Z"/>
      <path class="cls-1" d="M38.88,35.55c-.17.22-.65-.24-.79-.38-.24-.26,1.49-2.09,2.01-1.24l-1.22,1.62Z"/>
      <path class="cls-1" d="M51.41,20.84h.48c.33.38.66.7.93,1.12-.29-.21-.2.19-.21.31-.39-.7-1.28-1.12-2.08-.92l-1.75.43c-.07-.16-.19-.31-.24-.48.98.11,1.89-.48,2.87-.46Z"/>
      <path class="cls-1" d="M31.97,28.24c-.14,1.07-.42,2.1-.66,3.16-.18,0-.43,0-.5-.2-.04-.13-.08-.31-.02-.5l.64-2.03c.1-.32.29-.5.54-.43Z"/>
      <path class="cls-1" d="M27.87,19.85c-.45-.1-.46-.88-.18-1.2.34-.08.93-.1,1.35.27-.61.38-1.12.37-1.18.93Z"/>
      <path class="cls-1" d="M19.96,35.92c-.34-.22-.54-1.04-.08-1.29.34-.18.9.28,1.1.48-.38.29-1.19.36-1.01.81Z"/>
      <path class="cls-1" d="M39.21,18.9c-.39.26-.76.58-1.13.6-.21-.16-.14-.87.08-.98.24-.12.71-.09,1.06.38Z"/>
      <path class="cls-1" d="M27.51,21.61c.01-.25-.05-.51,0-.76.23.04.59-.31.81-.15.26.24.03.57-.16.72-.17.12-.4.21-.64.2Z"/>
      <path class="cls-1" d="M32.49,24.94c-.48-.33-.17-1-.26-1.48.51-.13.45.29.52.61.08.36-.25.62-.27.88Z"/>
      <path class="cls-1" d="M48.62,20.9c-.05-.27-.09-.59.16-.77.19.03.42-.02.71.07.07.59-.45.74-.87.7Z"/>
      <path class="cls-1" d="M32.41,30.86c-.02.19.21.56-.1.74-.16.09-.41-.02-.57-.19.08-.32.32-.61.67-.55Z"/>
      <path class="cls-1" d="M48.26,19.1c.04.36.11.74-.2,1-.3-.23-.09-.71-.24-.97l.44-.03Z"/>
      <path class="cls-1" d="M23.78,23.06c-.18.12-.36.02-.51-.09-.18-.13-.14-.32-.14-.51.18-.01.4-.02.58.05.25.09.14.37.08.55Z"/>
      <path class="cls-1" d="M34.43,22.53l-.07-.52c.12.01.26-.03.39,0,.11.03.19.2.12.35-.06.14-.29.29-.44.17Z"/>
      <path class="cls-1" d="M21.23,24.45c-.25-.09-.17-.37-.25-.56.15-.13.33-.01.45.18.08.13-.17.26-.21.38Z"/>
      <path class="cls-1" d="M27.12,21.3c-.17-.1-.19-.3-.2-.48.12-.01.21.05.25.16s-.07.23-.05.32Z"/>
      <path class="cls-1" d="M34.34,21.78c-.28-.01-.16-.24.04-.27.04.1-.02.18-.04.27Z"/>
      <path class="cls-1" d="M7.8,8.43c-.41.38-.07.77.12,1.23.45,1.11-.31,3.2.62,2.76.07.88-1.99,5.02-2.21,5.08-.41.11-.91-.46-1.34-.16s-.54.82-1.07,1.14c-.98-1.26-.69-2.73-.77-4.2l-.1-1.85c1.1-1.38,2.04-2.88,3.05-4.32.11.74.32,1.53.92,2.2.65-.32-.08-1.34.22-1.69.14-.16.35-.2.55-.2Z"/>
      <path class="cls-1" d="M10.45,10.31c-.19,1.79-2,5.86-2.63,8.35-.23.92-.96,1.37-1.73,1.66-1.99-.52-3.96-1.16-5.8-2.27l-.29-2.78c1.2-.86,2.21-1.8,3.05-2.85l.1,1.85c.08,1.46-.21,2.93.77,4.2.54-.32.65-.84,1.07-1.14s.93.27,1.34.16c.22-.06,2.29-4.2,2.21-5.08l-.02-.23c.1-.03.19-.12.2-.22.01-.08,0-.16,0-.24.21-.08.26-.3.25-.5v-.71c.49.02.99-.04,1.47-.2Z"/>
      <path class="cls-1" d="M10.69,16.47c-.57.31-.73.97-1.17,1.48.18-1.33.76-2.42.84-3.63.13-1.89,1.95-4.81-.21-6.87-1.38-1.32-2.39.19-3.57-.09.24-.84.76-1.57,1.06-2.39,2.15-.15,4.26.18,4.76,2.83.29,1.56-.1,2.77-.68,4.28-.45,1.19-.68,3.25-1.02,4.38Z"/>
      <path class="cls-1" d="M10.36,14.32c-.81-.18-1.93,4.34-2.06,5-.23,1.14-1.55,1.18-2.21,1,.77-.29,1.5-.74,1.73-1.66.63-2.49,2.44-6.56,2.63-8.35.08-.76.15-2.03-.56-2.56-1.14-.85-2.45-.12-3.6.12,0-.21.23-.34.28-.51,1.19.28,2.2-1.23,3.57.09,2.16,2.07.34,4.98.21,6.87Z"/>
      <path class="cls-1" d="M10.45,10.31c-.47.17-.97.22-1.48.2,0-.56.35-1.2.09-1.84-.19-.46-.91-.23-1.26-.24-.2,0-.42.04-.55.2-.3.35.43,1.37-.22,1.69-.6-.67-.82-1.46-.92-2.2.05-.07.19-.16.19-.24,1.14-.25,2.45-.98,3.6-.12.71.53.64,1.8.56,2.56Z"/>
      <path class="cls-1" d="M10.36,14.32c-.08,1.21-.66,2.3-.84,3.63.45-.51.6-1.17,1.17-1.48-.06.43.61,1.2-.46,1.64-.06.1-.07.46.21.35-.59.57-1.29.81-2.14.86.13-.67,1.25-5.19,2.06-5Z"/>
      <path class="cls-1" d="M8.97,10.51v.71c-.21.06-.23.3-.24.5,0,.08,0,.16,0,.24-.15-.07-.21.11-.2.22l.02.23c-.93.44-.17-1.65-.62-2.76-.19-.46-.53-.85-.12-1.23.35.01,1.08-.21,1.26.24.26.64-.1,1.29-.09,1.84Z"/>
      <path class="cls-1" d="M8.73,11.72c0-.2.04-.44.25-.5,0,.2-.05.42-.25.5Z"/>
      <path class="cls-1" d="M8.52,12.19c0-.11.05-.29.2-.22-.02.11-.11.19-.2.22Z"/>
      <path class="cls-1" d="M21.75,41.88c-.04.16-.06.34-.07.5l-.58.85-.17-2.96c-.03-.44-.58-.8-.13-1.17.33.02,1.08-.14,1.28.17.21.95-.14,1.82-.34,2.6Z"/>
      <path class="cls-1" d="M15.39,23.04c.03.36.11.7.26,1.04.21-.08.56-.33.67-.16.27.41.28.84.26,1.18-.03.41.01,1.1-.35,1.39-.89.73-2.81-.24-3.18-.25,0-.88-1.13-1.83-.52-2.47.78-.82,1.52.47,2.16-.85.23-.02.48.15.7.11Z"/>
      <path class="cls-1" d="M19.03,25.61c.01.15-.04.33-.01.48-.3.05-.25.45-.22.69l-.62.82c.55-1.96-.96-3.65-.3-4.07.34.01,1.08-.2,1.25.27.23.63-.15,1.27-.1,1.82Z"/>
      <circle class="cls-1" cx="51.3" cy="31.97" r=".12"/>
      <path class="cls-1" d="M51.02,24.86c-.03.24-.08.49-.08.74-.24,0-.19.35-.26.5l-.18.2c-.68-.33.1-3.12-.69-3.07.02-.14-.07-.35-.06-.47,0-.16.32-.42.48-.43.26-.02.93-.01,1.03.26.3.81-.14,1.57-.23,2.27Z"/>
      <path class="cls-1" d="M29.86,26.78c.17,1.21-.91,2.93-1.47,4.38l-1.21-.51c-.63-.27-.75.86-.76,1.37-.25.33-.46.69-.93,1.06-1.85-2.54-.14-4.63-1.61-8.42.38-.01.93,1.89,3.65,1.02.39-.12.21-.75.23-1,.26-.02.48.07.82.14.02-.35.2-.83.03-1.08,1.55.22.18,3.19,1.25,3.04Z"/>
      <path class="cls-1" d="M30.31,24.89v.72c-.29.11-.25.47-.24.73-.1.09-.06.36-.21.44-1.07.15.3-2.83-1.25-3.04-.31-.5.31-.68.65-.78s.96-.25,1.08.15c.18.63-.03,1.24-.03,1.78Z"/>
      <path class="cls-1" d="M28.39,31.16c-.12.31-.07.95-.56,1.11s-.98-.3-1.41-.25c.01-.51.13-1.64.76-1.37l1.21.51Z"/>
      <path class="cls-1" d="M30.07,26.35c0-.27-.05-.62.25-.73,0,.29-.04.53-.25.73Z"/>
      <path class="cls-1" d="M39.95,22.97c.9,0,.37,1.47.25,2.39l-.07.49c-.22.07-.19.31-.2.5,0,.14-.06.29-.07.44-.19.07-.29.29-.68.21.29-.55.21-3.43-.42-3.33.02-.07-.02-.15,0-.22.05-.57.76-.48,1.2-.47Z"/>
      <path class="cls-1" d="M37.75,30.93c-.11.37-.06,1.33-.7,1.29-.47-.03-.92-.62-1.41-.39.18-.46.27-1.27.92-1.38.47-.08.81.46,1.19.48Z"/>
      <path class="cls-1" d="M39.19,28.66c-.07.33-.06.76-.49.81.06-.16-.07-.39.06-.57.09-.11.22-.38.43-.24Z"/>
      <path class="cls-1" d="M39.93,26.35c0-.19-.02-.43.2-.5-.02.16.02.49-.2.5Z"/>
      <path class="cls-1" d="M51.89,20.85h-.48c.07-.46.04-.92-.47-1.37.32-.22.75-.1,1.25-.05.31.03.35.62.73.86s.87.16.81.64c-.03.24-.21.73-.61.5-.25-.14-.14-.76-.37-.82-.28-.07-.6.19-.84.24Z"/>
      <path class="cls-1" d="M50.68,26.1c.07-.16.02-.51.26-.5,0,.21-.12.35-.26.5Z"/>
      <path class="cls-1" d="M37.41,46.64c-.01.56.04,1.18-.45,1.7-.18.12-.21.3.03.28-.38.35-.83.7-1.4.72l-.65-.24c-.28-.1.49-2.48,1.33-2.15-.12.25-.15.7-.1.96.47-.57.65-1.19,1.24-1.28Z"/>
      <path class="cls-1" d="M34.61,38.63c-.34.33.02.68.11,1.08.21.95.07,1.9.22,2.93l.41-.26c-.81,2.73-.55,1.88-1.92,4.11-.39-.01-.69-.5-1.18-.48-.78.04-.85.86-.97,1.4l-.47.78c-.18-.09-.7.18-.8-.18s-.37-.77-.42-1.06c0,.05.25-4.39.24-5.47,1.35.07,2.52,1.25,3.65-.58,1.59.32-.14-2.79,1.13-2.28Z"/>
      <path class="cls-1" d="M37.41,46.64c-.59.08-.77.71-1.24,1.28-.04-.26-.02-.71.1-.96.48-1,.64-2.1.95-3.27.36-1.36,1.15-2.66.93-4.18-.1-.68-.77-1.77-1.35-2.07-.8-.42-1.68-.01-2.41-.08-.34-.03-.8.43-1.2.24l.03-.44c.27,0,.57-.03.81-.25.18-.16.47-.45.2-.74-.38.12-.77.3-.8-.01.19-.19.29-.47.45-.68.42.15.75-.28,1-.43,1.02-.08,3.31.2,3.56,1.42s.54,2.96.42,4.25c-.19,2.04-1.42,3.9-1.46,5.92Z"/>
      <path class="cls-1" d="M29.59,38.34c-1.1.18.22,2.16.23,3.14.01,1.07-.23,5.52-.24,5.47-1.9-.51-.27-.69-1.13-3.69-.46-1.6-1.79-6,.55-6,.56,0,.56.61.58,1.08Z"/>
      <path class="cls-1" d="M32,37.84c.06.09.16.15.24.23.84,1.26,1.12-.03,1.24,2.83-1.13,1.83-2.3.64-3.65.58-.01-.99-1.33-2.96-.23-3.14.35-.06.83.08,1.24-.05.22-.07.37-.36.43-.68h.24c.19.01.38.07.5.24ZM32.72,39.16c0-.07-.05-.12-.12-.12s-.12.05-.12.12.05.12.12.12.12-.05.12-.12Z"/>
      <path class="cls-1" d="M31.07,35.86c-.79.12-1.64,0-2.24.57-.22.2-.68.12-.93.24.04-.44.54-.62.72-1.13-1.43-.47-2.39,1.75-2.06,2.63.05.14.27.18.48.15-.05.37.08.79-.37,1.18-.35-.83-1.09-1.86-.83-2.68.35-1.11.91-1.83,1.63-2.19,2.91-1.44,4.19,1.96,3.6,1.23Z"/>
      <path class="cls-1" d="M37.27,40.24c.03.7-.22,1.12-.55,1.82-.69,1.47-.82,3.29-1.91,4.59-.27.27-1.12-.08-1.34.25l-.05-.42c1.37-2.23,1.11-1.38,1.92-4.11l.48-1.63c.38-.39.91-.55,1.45-.5Z"/>
      <path class="cls-1" d="M37.27,40.24c-.54-.05-1.07.12-1.45.5.15-.52.29-1.27.1-1.89-.14-.45-.99-.19-1.32-.24-1.27-.51.46,2.6-1.13,2.28-.12-2.87-.4-1.58-1.24-2.83h.48c.66.02,1.36-.09,1.92-.47.58.05,1.34-.16,1.91.18.97.57.69,1.63.73,2.46Z"/>
      <path class="cls-1" d="M31.07,32.41c-.04.4.13.77.36,1.19l1.24,2.26.02.54c.02.48.02.96.02,1.44v.24h-.48c-.08-.09-.17-.15-.24-.24.11.02.47.05.45-.11s-.4-.33-.43-.47c-.39-1.74-.78-3.29-1.83-4.78.44-.3.67-.08.88-.08Z"/>
      <path class="cls-1" d="M32.91,35.85h-.24s-1.24-2.25-1.24-2.25c-.23-.42-.41-.8-.36-1.19.48-.08,1.31-.1,1.52.54.32.96.3,1.98.32,2.9Z"/>
      <path class="cls-1" d="M33.43,46.49l.05.42c-.2.26-.4.54-.53.84-.59.02-1.07-.43-1.67-.34.12-.54.19-1.37.97-1.4.49-.02.79.47,1.18.48Z"/>
      <path class="cls-1" d="M31.07,35.86c.4.5.91,1.07.43,1.75h-.24c-.63-.73-1.75-.59-2.43-1.18.6-.57,1.45-.45,2.24-.57Z"/>
      <path class="cls-1" d="M27.9,36.67c-.05.08-.17.12-.21.21-.16-.02-.38-.03-.45.14-.05.1,0,.24,0,.34,0,.08,0,.16,0,.24-.24.03-.24.29-.2.49.01.07.02.17.01.24-.21.03-.42-.01-.48-.15-.33-.88.63-3.1,2.06-2.63-.17.51-.68.69-.72,1.13Z"/>
      <path class="cls-1" d="M32.95,47.75c-.16.37-.4.99-.92,1-.49,0-.87-.39-1.21-.56l.47-.78c.59-.09,1.08.36,1.67.34Z"/>
      <path class="cls-1" d="M34.89,35.05c-.25.16-.58.58-1,.43v-.23s.79-.76.79-.76c-.39-.23-.7-.21-1.02-.2.06-.18-.1-.4.08-.75.68.18,1.37.36,1.92.92-.31.27-.61.33-.77.59Z"/>
      <path class="cls-1" d="M27.17,41.05c.03,1.16.57,2.04.14,3.05l-.64-3.25c.07-.62.72-.47.5.2Z"/>
      <path class="cls-1" d="M33.22,37.16c.02-.37-.06-.72.21-1,.03.31.42.13.8.01.27.29-.02.57-.2.74-.24.22-.54.25-.81.25Z"/>
      <path class="cls-1" d="M33.89,35.26c-.24-.02-.35-.18-.37-.4-.03-.21.09-.38.14-.57.31,0,.62-.02,1.02.2l-.79.76Z"/>
      <path class="cls-1" d="M34.63,37.6c-.56.38-1.25.49-1.92.48v-.24c.18-.02.35-.15.48-.24.4.19.86-.27,1.2-.24.07.09.15.17.24.24Z"/>
      <circle class="cls-1" cx="34.15" cy="48.39" r=".27"/>
      <path class="cls-1" d="M33.61,49.67c-.32.18-.51.13-.25-.12.12-.18.03-.38.19-.44.14-.05.29,0,.36.12.08.15.02.33-.31.43Z"/>
      <path class="cls-1" d="M27.69,36.88c-.09.21-.23.4-.46.48,0-.1-.04-.23,0-.34.08-.17.3-.16.45-.14Z"/>
      <path class="cls-1" d="M32.7,36.4l-.02-.54h.24c0,.2.06.49-.21.54Z"/>
      <path class="cls-1" d="M27.02,38.08c-.03-.19-.04-.45.2-.49,0,.18-.02.4-.2.49Z"/>
      <path class="cls-1" d="M35.82,40.75l-.48,1.63-.41.26c-.14-1.03-.01-1.98-.22-2.93-.09-.4-.45-.75-.11-1.08.33.05,1.18-.21,1.32.24.19.61.05,1.36-.1,1.89Z"/>
      <circle class="cls-1" cx="32.6" cy="39.16" r=".12"/>
      <path class="cls-1" d="M30.77,21.3c-.16.02-.32.03-.49.04-.06-.55-.16-1.07-.63-1.37,1.12-.28,1.5.08,2.14.62.16.13.76-.04.81.16.06.27-.01.55-.07.78s-.49.37-.63.12c-.17-.31-.15-.77-.49-.83-.28-.05-.53.22-.63.48Z"/>
      <path class="cls-1" d="M47.52,21.8c-.14.06-.29-.02-.2-.18.17-.08.22.04.2.18Z"/>
      <path class="cls-1" d="M48.34,10.98c.1,1.16-1.35,3.35-1.71,4.29-.41,0-.9-.02-1.4.19-.3.12-.56.53-.52.99-.35.03-.6.32-1.05.53-1.75-2.26-.1-5.22-1.32-8.41.47,0,.44.6.78.91.69.64,2.01.8,2.85.37.39-.2.31-.98.34-1.31.25-.03.54.33.67.19.35-.38-.17-1.21.07-1.55.11-.16.35-.21.55-.21-.41.39-.1.79.11,1.26.48,1.07-.31,3.18.63,2.74Z"/>
      <path class="cls-1" d="M49.31,3.74c1.16-.07,2.17.6,2.62,1.73.68,1.7.33,3.32-.34,4.96-.58,1.42-.69,2.96-.91,4.37-.62.09-.6.85-1.13,1.26l.62-3.16c.46-2.37.91-2.67.8-4.98.06-.11.28-.26.2-.38-.12-.2-.3-.31-.45-.18l-.29-.72c-.37-.92-1.35-1.34-2.33-1.17-.4-.31-1.12-.7-.62-1.32.4-.5,1.28-.33,1.82-.4Z"/>
      <path class="cls-1" d="M42.09,6.43c.07.17.2.32.19.51-.33.53-.16,1.09.05,1.63,1.23,3.2-.43,6.15,1.32,8.41.45-.22.7-.51,1.05-.53.13-.13.41.23.4.43-.7.42-1.77,1.1-2.77,1.01-.58-.05-.81-1.07-.71-1.51.36-1.57.21-2.99-.06-4.44.07-.09.27-.26.24-.48-.25-1.71-.47-3.34-.5-4.97l.78-.06Z"/>
      <path class="cls-1" d="M50.24,8.86c-.44,2.24-1.39,4.38-2.13,6.65-.62-.11-1.02-.24-1.48-.23.36-.94,1.81-3.13,1.71-4.29l-.02-.23c.1-.03.19-.12.2-.22.01-.08,0-.16,0-.24.2-.08.26-.3.25-.5v-.72s1.46-.21,1.46-.21Z"/>
      <path class="cls-1" d="M49.31,3.74c-.55.07-1.42-.1-1.82.4-.5.62.22,1.01.62,1.32-.57.1-1.23.86-1.94.44-.17-.27.34-.52.65-.72-.28-.19-.57-.25-.76-.48.1-.35.53-.53.57-.91.88.07,2.57-1.04,2.68-.05Z"/>
      <path class="cls-1" d="M50.12,6.66c.18.6.24,1.57.12,2.19l-1.47.21c0-.56.35-1.2.09-1.84-.19-.45-.91-.24-1.26-.25-.2,0-.44.05-.55.21-.24.34.28,1.17-.07,1.55-.13.14-.42-.22-.67-.19.03-.29.02-.79-.26-1.17-.14-.19-.54.13-.67.15-.22-.39-.24-.75-.2-1.1.54.1.83.37,1.17,1.02.32-.39.06-.57.07-.73.03-.33,2.24-1.56,3.7-.05Z"/>
      <path class="cls-1" d="M43.94,4.51c.09.34.55.52.77.74.24.24.11.84.79.82.09-.59-.02-1.08-.11-1.54.11.01.23-.02.33,0,.12.02.25.08.33.18.19.23.48.3.76.48-.31.2-.82.46-.65.72.71.41,1.36-.34,1.94-.44.97-.17,1.96.25,2.33,1.17l-.31.04c-1.45-1.52-3.67-.29-3.7.05-.01.16.25.34-.07.73-.34-.65-.64-.91-1.17-1.02-.19-.04-.57-.09-.75-.17-.41-.19-1.24-.26-1.64-.47-.42-.45-.94-.27-1.46-.52.61-.78,1.68-.74,2.62-.76Z"/>
      <path class="cls-1" d="M41.13,16.99c-.34.01-.93-.05-.98-.48.77.18-.29-3.45-.33-3.73-.14-.88.1-1.88.38-3,.92,2.31,1.24,4.76.93,7.2Z"/>
      <path class="cls-1" d="M43.94,4.51c-.94.02-2.01-.02-2.62.76-.11-.06-.29.03-.41-.01-.11-.21-.02-.33.12-.63.11-.24-.26-.34-.41-.36l.02-.95c1.25-.59,2.92-.22,3.31,1.19Z"/>
      <path class="cls-1" d="M50.16,12.89l-.62,3.16c.53-.41.52-1.17,1.13-1.26-.08.54.19,1.34-.42,1.81-.34.26-1.5.3-1.62-.15-.27-.17,1.05-4.01,1.52-3.56Z"/>
      <path class="cls-1" d="M43.73.99c-.16.96,1.4,2.21,1.66,3.53.09.47.2.96.11,1.54-.68.02-.55-.58-.79-.82-.25-1.43-1.04-2.74-1.82-4.08.1-.32.63-.19.84-.17Z"/>
      <path class="cls-1" d="M41.31,6.23v.26c.04,1.63.26,3.26.5,4.97.03.23-.17.4-.24.48-.26-1.02-1.89-5.35-.27-5.72Z"/>
      <path class="cls-1" d="M45.72,4.52c-.11-.02-.22.01-.33,0-.26-1.32-1.82-2.57-1.66-3.53.37.03,1.09-.23,1.35.26.56,1.04.46,2.22.64,3.27Z"/>
      <path class="cls-1" d="M48.26,19.1l-.44.03c-.47-.84-.87-1.77-1.61-2.39.02-.13-.19-.44.13-.48.47-.05,1.26-.21,1.49.27.4.84.34,1.76.42,2.56Z"/>
      <path class="cls-1" d="M42.78,5.79c.4.21,1.23.29,1.64.47-.05.28,0,.59-.15.91-.79-.04-1.37-.27-1.98-.22,0-.2-.12-.35-.19-.51-.06-.14.02-.35-.02-.51.24-.02.46-.17.71-.14Z"/>
      <path class="cls-1" d="M40.63,3.31l-.02.95c-.51.33-1.13.74-1.04,1.4-.19-.21-.64-.51-.6-.88.11-.96,1.02-1.17,1.65-1.47Z"/>
      <path class="cls-1" d="M50.26,18.9c-.43.05-.98.94-1.23.22.21-.32.57-.44,1-.69-.36-.48-.8-.4-1.19-.43-.03-.21-.12-.42-.02-.8.76.12,1.46.42,2.05,1.04-.31.14-.56.34-.61.66Z"/>
      <path class="cls-1" d="M40.91,5.26c.09.18-.15.38-.27.46-.15-.12-.34-.26-.46-.1s-.22.24-.32.34c-.1-.09-.19-.19-.27-.29-.09-.66.53-1.07,1.04-1.4.15.02.52.12.41.36-.14.3-.23.42-.12.63Z"/>
      <path class="cls-1" d="M46.63,3.78c-.33-.02-.43-.12-.41-.37.02-.4-.03-.75.29-.78.3-.03.88,0,.73.4-.12.32-.56.43-.6.75Z"/>
      <path class="cls-1" d="M49.03,19.11l-.19-.03c.05-.36.06-.73,0-1.09.39.03.83-.06,1.19.43-.44.25-.79.37-1,.69Z"/>
      <path class="cls-1" d="M42.07,5.93c.05.15-.04.36.02.51l-.78.06v-.26c.25-.06.47-.28.75-.3Z"/>
      <path class="cls-1" d="M50.97,7.91c-.25-.09-.17-.37-.24-.56.15-.13.33-.02.45.18.07.12-.14.27-.2.38Z"/>
      <path class="cls-1" d="M39.87,6.19h.28c-.05.32.13.68-.13.98-.22-.39-.08-.7-.15-.98Z"/>
      <path class="cls-1" d="M40.64,5.72c-.18.12-.35.3-.49.47h-.28c-.02-.08,0-.16-.01-.24.1-.1.2-.19.32-.34s.31-.02.46.1Z"/>
      <path class="cls-1" d="M45.18,6.43c-.04.35-.02.71.2,1.1.13-.01.53-.33.67-.15.28.37.29.88.26,1.17-.03.33.05,1.11-.34,1.31-.84.42-2.17.26-2.85-.37-.33-.31-.31-.91-.78-.91-.21-.54-.38-1.1-.05-1.63.62-.05,1.19.18,1.98.22.15-.31.11-.63.15-.91.18.08.56.13.75.17Z"/>
      <path class="cls-1" d="M48.78,9.07v.72c-.21.06-.24.3-.24.5,0,.08,0,.16,0,.24-.15-.07-.21.11-.2.22l.02.23c-.94.44-.15-1.68-.63-2.74-.21-.47-.52-.87-.11-1.26.35.01,1.08-.2,1.26.25.26.64-.09,1.28-.09,1.84Z"/>
      <path class="cls-1" d="M48.53,10.29c0-.2.04-.44.25-.5,0,.2-.05.42-.25.5Z"/>
      <path class="cls-1" d="M48.32,10.75c0-.11.05-.29.2-.22-.02.11-.11.19-.2.22Z"/>
      <path class="cls-1" d="M39.95,22.97c-.44,0-1.15-.09-1.2.47-.41-.23.06-.51.26-.61.3-.15.9-.2.94.14Z"/>
      <path class="cls-1" d="M50.22,22.32c-.16,0-.47.27-.48.43-.4-.05-.11-.31.02-.41.15-.12.32-.07.46-.02Z"/>
      <path class="cls-1" d="M18.8,26.78c-.03-.23-.08-.64.22-.69.04.24-.07.49-.22.69Z"/>
      <path class="cls-1" d="M35.63,11.94c.1,1.22-1.49,3.46-1.52,4.13-.01.27-.53.65-.4.95-.35.38-.85.03-1.29-.28-.71.15-.8.87-1.42,1.29-1.84-2.3-.14-5.29-1.38-8.49.47,0,.44.59.78.91.68.63,2.01.8,2.85.37.4-.2.29-.99.34-1.31.25-.02.54.33.67.19.38-.39-.23-1.2.06-1.56.11-.14.35-.2.56-.19-.41.39-.1.79.11,1.26.48,1.07-.31,3.18.63,2.74Z"/>
      <path class="cls-1" d="M36.6,4.7c1.06-.06,2.07.52,2.55,1.58.69,1.52.53,3.21-.14,4.74-1.09,2.51-.49,4.43-1.77,5.29-.47-.54-.01-1.19.05-1.67.23-.08.19-.37.2-.57v-.39c.28-.02.2-.39.23-.57.29-1.38.68-2.82.54-4.23.09-.11.26-.27.2-.38-.11-.2-.3-.31-.45-.18l-.29-.72c-.36-.9-1.36-1.37-2.33-1.17-.4-.31-1.12-.7-.62-1.32.4-.5,1.28-.33,1.82-.4Z"/>
      <path class="cls-1" d="M29.36,6.9c.09.25.4.74.24,1.01-.33.55-.18,1.06.03,1.62,1.24,3.2-.46,6.19,1.38,8.49.62-.42.71-1.14,1.42-1.29.44.32.94.66,1.29.28,1.01.75-2.95,2.02-3.61,1.61-1.7-1.06-.52-2.97-1.23-5.73.12.07.22-.11.27-.27l-.71-5.38c.26-.29.52-.35.92-.35Z"/>
      <path class="cls-1" d="M27.72,4.47l.02.58c-.86,1.05-1.63,2.28-.84,3.59.14-1.03.17-2.12,1.02-2.42.1.01.2-.02.3,0,.02.47-.6.69-.77,1.15-.77,2.2.97,5.12.76,7.4-.73.34-1.18-4.66-1.6-5.24-.34.66.06,1.3-.33,1.73-.25-1.04-.19-1.93-.16-3.07.02-.89-.54-1.64.05-2.57.38-.61.81-.83,1.54-1.14Z"/>
      <path class="cls-1" d="M36.6,4.7c-.55.07-1.42-.1-1.82.4-.5.62.22,1.01.62,1.32-.49.1-1.04.53-1.49.74-.16.07-.52-.19-.49-.37.04-.25.25-.37.63-.59-.13-.24-.46-.24-.61-.46.09-.35.42-.63.49-.99.87.07,2.57-1.04,2.68-.05Z"/>
      <path class="cls-1" d="M37.41,7.62c.2.59.23,1.57.12,2.19l-1.47.21c0-.56.35-1.2.09-1.84-.19-.45-.91-.24-1.26-.25-.2,0-.44.05-.56.19-.29.36.32,1.17-.06,1.56-.13.14-.42-.21-.67-.19.04-.27,0-.8-.28-1.1-.24-.17-.67.21-.74,0-.14-.39-.19-.73-.14-.98.37-.03.65.14,1.03.53.25-.3.28-.57.43-.8,1.26-.26,2.6-.58,3.51.47Z"/>
      <path class="cls-1" d="M37.53,9.82c-.33,1.9-1.16,3.71-1.81,5.68-.3.47-1.2.4-1.61.58.04-.67,1.62-2.91,1.52-4.13l-.02-.23c.1-.03.19-.12.2-.22.01-.08,0-.16,0-.24.2-.08.26-.3.25-.5v-.72s1.46-.21,1.46-.21Z"/>
      <path class="cls-1" d="M31.24,5.46c.08.32.54.57.77.74.21.25.11.68.52.98.5-.47.25-1.16.14-1.71.1.03.24-.06.33-.02.14.07.33.15.42.27.16.22.48.22.61.46-.37.22-.59.34-.63.59-.03.19.34.45.49.37-.15.23-.18.5-.43.8-.38-.39-.66-.56-1.03-.53-.21.02-.43-.03-.64-.05-.37-.63-1.27-.21-1.72-.66s-.96-.21-1.46-.5c.62-.74,1.7-.7,2.62-.75Z"/>
      <path class="cls-1" d="M37.72,7.59l-.31.04c-.9-1.05-2.25-.73-3.51-.47.45-.21,1-.64,1.49-.74.97-.2,1.96.27,2.33,1.17Z"/>
      <path class="cls-1" d="M28.21,14.76c.38.68.43,1.79.14,2.63-.06.16-.65.01-.7-.17-.2-.78.17-1.66-.14-2.37-.55-1.25-.93-2.4-1.23-3.6.39-.43-.01-1.07.33-1.73.42.59.88,5.58,1.6,5.24Z"/>
      <path class="cls-1" d="M31.24,5.46c-.92.05-2,.01-2.62.75-.1-.06-.28.03-.4,0-.1-.02-.2,0-.3,0,.19-.2.56-.61.6-.88-.13-.28-.59-.21-.78-.29l-.02-.58c.67-.29,1.12-.76,2.19-.34.51.2,1.14.56,1.33,1.34Z"/>
      <path class="cls-1" d="M31.02,1.95c-.23.97,1.37,2.1,1.66,3.53.11.54.35,1.23-.14,1.71-.42-.3-.31-.73-.52-.98-.27-1.42-1.01-2.76-1.81-4.08.08-.32.61-.19.82-.17Z"/>
      <path class="cls-1" d="M37.42,20.02c-.13,0-.26.01-.39.03-.19-1.01-1.65-2.44-1.44-3.31.43.04,1.19-.15,1.44.43.39.93.27,1.94.39,2.85Z"/>
      <path class="cls-1" d="M33.01,5.46c-.09-.05-.23.05-.33.02-.28-1.43-1.89-2.56-1.66-3.53.35.04,1.12-.26,1.35.25.49,1.04.61,2.21.64,3.26Z"/>
      <path class="cls-1" d="M28.88,12.9c-.39-1.53-1.7-4.3-.44-5.66l.71,5.38c-.05.17-.15.35-.27.27Z"/>
      <path class="cls-1" d="M30.08,6.72c.46.45,1.35.03,1.72.66-.02.18,0,.4-.09.56-.23.44-1.53-.16-2.11-.03.17-.27-.15-.77-.24-1.01.23,0,.47-.23.72-.18Z"/>
      <path class="cls-1" d="M33.92,4.74c-.33-.03-.47-.1-.43-.36.06-.4-.02-.75.3-.79.29-.03.88,0,.73.4-.12.32-.54.44-.6.75Z"/>
      <path class="cls-1" d="M37.72,13.1c-.04.18.04.55-.22.57-.12-.09-.27-.27-.22-.38.09-.19.29-.32.44-.18Z"/>
      <path class="cls-1" d="M37.48,14.06c0,.2.03.49-.2.57-.04-.12-.32-.28-.25-.4.11-.19.3-.3.45-.17Z"/>
      <path class="cls-1" d="M38.26,8.87c-.25-.09-.17-.37-.24-.56.15-.13.34-.02.45.18.06.11-.11.27-.2.38Z"/>
      <path class="cls-1" d="M32.44,7.43c-.06.25,0,.59.14.98.07.21.5-.17.74,0,.28.3.32.83.28,1.1-.05.32.06,1.11-.34,1.31-.84.42-2.17.26-2.85-.37-.34-.31-.31-.92-.78-.91-.22-.56-.37-1.07-.03-1.62.58-.13,1.88.47,2.11.03.09-.16.07-.38.09-.56.21.02.43.07.64.05Z"/>
      <path class="cls-1" d="M36.07,10.03v.72c-.21.06-.24.3-.24.5,0,.08,0,.16,0,.24-.15-.07-.21.11-.2.22l.02.23c-.94.44-.15-1.68-.63-2.74-.21-.47-.52-.87-.11-1.26.35.01,1.08-.2,1.26.25.26.64-.09,1.28-.09,1.84Z"/>
      <path class="cls-1" d="M27.92,6.21c-.86.3-.88,1.39-1.02,2.42-.79-1.31-.02-2.53.84-3.59.19.08.65.01.78.29-.04.27-.41.68-.6.88Z"/>
      <path class="cls-1" d="M35.82,11.24c0-.2.04-.44.25-.5,0,.2-.05.42-.25.5Z"/>
      <path class="cls-1" d="M35.61,11.71c0-.11.05-.29.2-.22-.02.11-.11.19-.2.22Z"/>
      <path class="cls-1" d="M21.49,11.94c-.13,1.28-.72,2.48-1.43,3.64-.32.53-.29,1.2-.82,1.66-.38.02-.68-.5-1.06-.38-.51.15-.71.67-1.02.94-.18-.1-.5.06-.73-.17-.15-.14-.14-.36-.22-.59-.62-1.65.42-4.42-.72-7.5,1.24.99.64,1.77,3.69,1.38l.38-1.4c.13-.02.26.22.48.19.3-.04.23-.48.2-.74-.02-.19-.22-.37-.48-.4-.03-.16.07-.34.02-.49.33.06.64-.1.96-.14-.41.39-.1.79.11,1.26.48,1.07-.31,3.18.63,2.74Z"/>
      <path class="cls-1" d="M22.45,4.7c1.15-.09,2.12.61,2.61,1.74.75,1.71.03,3.38-.38,5.12l-1.06,4.45c-.35.09-.54.43-.5.77l.03.23c-1.08-.03.1-1.64.15-3.16.05-1.38,1.06-2.74.8-4.98.06-.11.28-.26.2-.38-.12-.2-.3-.31-.45-.18l-.29-.72c-.36-.89-1.4-1.4-2.37-1.17-.2-.21-.55-.26-.63-.46-.1-.25-.15-.8.12-.96.58-.34,1.21-.26,1.76-.3Z"/>
      <path class="cls-1" d="M23.39,9.82c-.68,3.04-1.97,5.94-2.87,9.01-.1.35-.67.53-.9.58-.57.13-1.11-.87-2.46-1.62.31-.26.52-.78,1.02-.94.38-.11.68.4,1.06.38.53-.46.5-1.13.82-1.66.71-1.16,1.3-2.36,1.43-3.64,0-.08-.03-.16-.02-.23.1-.03.19-.12.2-.22.01-.08,0-.16,0-.24.21-.08.25-.3.25-.5v-.72c.47-.13.96-.21,1.46-.21Z"/>
      <path class="cls-1" d="M15.22,6.91c.08.24.39.73.23.99-.34.55-.18,1.06.03,1.62,1.14,3.08.1,5.84.72,7.5-.26-.11-1.11-.12-1.15-.54-.13-1.28.02-2.47-.32-3.61.57.5-.52-5.15-.41-5.61.28-.27.47-.39.89-.36Z"/>
      <path class="cls-1" d="M23.26,7.62c.17.59.26,1.58.12,2.19-.5,0-.99.08-1.47.21,0-.55.34-1.18.09-1.83-.17-.42-.93-.29-1.27-.26s-.63.19-.96.14l-.22-.61c.06,0,.18,0,.23-.04.48-.39,2.42-1.02,3.48.2Z"/>
      <path class="cls-1" d="M17.09,5.46c-.93.03-1.97.04-2.62.76-.58.06-.88.57-1.24,1.18-.24-.08-.24-.33-.27-.52.51-.34,1.12-.7,1.24-1.42.03-.16-.36-.24-.43-.26l.02-.92c1.25-.6,2.92-.2,3.31,1.19Z"/>
      <path class="cls-1" d="M23.31,13.85c-.05,1.52-1.23,3.12-.15,3.16.03.96-.92,1.8-2.03,1.96.13-.71,1.64-5.59,2.19-5.11Z"/>
      <path class="cls-1" d="M16.87,1.95c-.18,1.08,1.2,1.81,1.67,3.52.04.15-.06.41.14.48.19.07.45,0,.33-.25h.14c0,.1.07.19.07.28.02.38-.36.58-.46.91-.3.14-.58-.04-.82-.22l-.02-.28c-.1-1.5-1.04-2.9-1.88-4.28.08-.34.61-.17.82-.17Z"/>
      <path class="cls-1" d="M14.03,15.8c-.6-.84-1.58-5.46-.83-6.05l.86,3.8c.16.72.44,1.46-.03,2.24Z"/>
      <path class="cls-1" d="M14.73,12.88c-.41-1.41-1.64-4.41-.41-5.61-.12.46.98,6.1.41,5.61Z"/>
      <path class="cls-1" d="M15.99,21.05c-.11-.03-.24.03-.35,0-.19-.9-.79-1.67-1.38-2.36-.14-.39-.33-.93.01-1.12s.93-.16,1.11.25c.44,1.04.59,2.17.61,3.22Z"/>
      <path class="cls-1" d="M18.84,5.44l-.29.03c-.47-1.71-1.86-2.44-1.67-3.52.43,0,1.18-.2,1.44.4.44,1.01.4,2.1.52,3.09Z"/>
      <path class="cls-1" d="M17.09,5.46c.1.36.58.73.84.94l.02.28c-.1.15-.19.31-.25.47-.55-.2-1.27-.08-1.76-.44-1.18-.87-1.62.18-1.46-.5.65-.72,1.69-.73,2.62-.76Z"/>
      <path class="cls-1" d="M22.45,4.7c-.56.04-1.18-.04-1.76.3-.27.16-.22.7-.12.96.08.2.43.25.63.46-.55.13-1.19.45-1.68.73-.07-.03-.17.02-.24,0-.13-.46.2-.76.76-1.04-.22-.3-.55-.12-.81-.13,0-.09-.06-.19-.07-.28.16-.34.56-.58.62-.96.88.07,2.57-1.04,2.68-.05Z"/>
      <path class="cls-1" d="M15.93,6.72c.49.36,1.21.24,1.76.44-.02.06,0,.14-.02.2-.02.2-.04.4-.13.56-.27.48-1.44-.15-2.09,0,.16-.26-.14-.75-.23-.99.22.01.47-.27.71-.2Z"/>
      <path class="cls-1" d="M23.58,7.59l-.31.04c-1.06-1.22-2.99-.59-3.48-.2-.06-.11-.14-.23-.26-.28.49-.28,1.13-.6,1.68-.73.97-.23,2.01.28,2.37,1.17Z"/>
      <path class="cls-1" d="M13.78,4.27l-.02.92c-.55.34-1.06.84-.96,1.52-.19-.31-.71-.72-.61-1.16.19-.85,1.02-1.02,1.59-1.29Z"/>
      <path class="cls-1" d="M13.76,5.19c.07.02.46.1.43.26-.11.72-.73,1.09-1.24,1.42-.05-.06-.12-.1-.16-.16-.1-.69.4-1.18.96-1.52Z"/>
      <path class="cls-1" d="M19.78,4.74c-.33-.02-.43-.12-.41-.37.02-.4-.03-.75.29-.78.29-.03.88,0,.73.4-.12.32-.55.43-.6.75Z"/>
      <path class="cls-1" d="M16.91,20.36c-.26-.09-.49-.08-.44-.39s-.02-.73.29-.79c.21-.04.84.1.75.45-.07.26-.6.36-.59.73Z"/>
      <path class="cls-1" d="M23.13,16.78c-.05-.34.15-.68.5-.77.14.15.22.36.09.49-.2.2-.39.25-.59.27Z"/>
      <path class="cls-1" d="M19.02,5.7c.12.25-.14.31-.33.25-.21-.07-.1-.33-.14-.48l.29-.03c.07.08.13.17.19.26Z"/>
      <path class="cls-1" d="M24.11,8.87c-.25-.09-.17-.37-.24-.56.15-.13.33-.02.45.18.07.12-.14.27-.2.38Z"/>
      <path class="cls-1" d="M18.29,7.41c-.04.46.06.89.28,1.39.23-.27.37-.46.64-.45l.26.23c-.03.31,0,.63.08.93l-.38,1.4c-3.05.39-2.45-.39-3.69-1.38-.21-.57-.37-1.07-.03-1.62.65-.14,1.83.49,2.09,0,.09-.16.11-.36.13-.56.21,0,.41.03.62.05Z"/>
      <path class="cls-1" d="M21.92,10.02v.72c-.21.06-.23.3-.24.5,0,.08,0,.16,0,.24-.15-.07-.18.11-.2.22-.01.07.03.15.02.23-.94.44-.15-1.68-.63-2.74-.21-.47-.52-.87-.11-1.26.33-.04,1.1-.16,1.27.26.26.65-.09,1.28-.09,1.83Z"/>
      <path class="cls-1" d="M19.55,9.51c-.09-.3-.11-.62-.08-.93l.29-.02c.26.03.45.21.48.4.03.26.1.7-.2.74-.21.03-.35-.22-.48-.19Z"/>
      <path class="cls-1" d="M19.56,7.46l.22.61c.05.15-.05.33-.02.49l-.29.02-.26-.23-.2-.85c.18,0,.37-.04.56-.04Z"/>
      <path class="cls-1" d="M21.68,11.24c.01-.19.03-.43.25-.5,0,.2-.04.42-.25.5Z"/>
      <path class="cls-1" d="M21.47,11.71c.02-.12.05-.29.2-.22-.02.11-.11.19-.2.22Z"/>
      <path class="cls-1" d="M18.77,6.9c.15.12.33.21.52.25.07.02.17-.03.24,0,.12.05.2.17.26.28-.05.04-.16.03-.23.04-.18,0-.37.05-.56.04-.24-.01-.48-.07-.72-.1-.21-.02-.41-.04-.62-.05.02-.06,0-.14.02-.2.07-.17.16-.32.25-.47.25.17.52.36.82.22Z"/>
      <path class="cls-1" d="M19.29,7.15c-.19-.04-.37-.13-.52-.25.1-.34.48-.53.46-.91.27,0,.59-.17.81.13-.56.28-.89.57-.76,1.04Z"/>
      <path class="cls-1" d="M19.01,7.5l.2.85c-.27-.01-.41.18-.64.45-.22-.51-.33-.93-.28-1.39.24.02.48.08.72.1Z"/>
      <path class="cls-1" d="M43.06,37.79c-.18.36.06.86-.06,1.21-.17.5-.2,1.53.51,1.53-.02.28-.02.57-.02.85-.37.66-.39,1.61,0,2.25l-.18,1.13c-.03.2-.37.3-.3.61.04.16.22.28.29.41.19.6.19,1.34.77,1.83l1.36-.9c.31-.2.77.3,1.15.21.53-.41.53-1.1.87-1.62.71-1.11,1.46-2.21,1.55-3.46.03-.38.24-.79.33-1.16.79-.08.25-.75,1.64-.69-.04.49-.21.92-.42,1.48l-2.33,6.03c-.58,1.5-1.55,2.37-3.27,2.02-.98-.2-2.71-.61-2.78-1.92-.09-1.61.61-3.22.15-4.74.42-.32.19-.8.11-1.31-1-6.22,1.11-4.7.65-3.78Z"/>
      <path class="cls-1" d="M51.14,45.96c-.75-.04-.59.82-1.3,1.34l.82-3.22c.93-3.68,2-4.39.27-7.04-.13-.19-.38-.31-.44-.55.46-.17.66.23,1.02.53.3.25.64-.26.64-.49,0-1.04-.64-.36-1.92-1.82,1.16-.05,2.21.76,2.64,1.92.62,1.69.08,3.35-.61,4.93-.63,1.44-.81,2.98-1.11,4.42Z"/>
      <path class="cls-1" d="M40.86,34.41l.45.34c-.55.78-1.42,1.48-1.01,2.74.23-.29.4-.56.54-.81l.29-.04c-1.09,2.53,1,6.12.28,8.62l-1.37-5.77c-.35.37.26.83-.27,1.24-.38-1.19-.47-2.59-.46-3.85,0-1.43.68-1.94,1.56-2.48Z"/>
      <path class="cls-1" d="M50.57,37.29c.72.72.47,1.78.39,2.73-1.38-.06-.85.61-1.64.69.22-.88.52-1.77.35-2.72-.51-.12-.92-.09-1.3-.08-1.38.05.41,1.88-1.21,1.81-.05-.58.06-1.2-.55-1.77-.4.3,0,.71-.4.87-.16-.65.03-1.1-.27-1.48,1.62.31,3.5-1.19,4.64-.05Z"/>
      <path class="cls-1" d="M44.93,35.2c.12.43.45.9.76,1.21.17.17.52.79.78.35.02-.42.06-1.24-.11-1.63l.25.03c.16.2.3.41.5.57.31.01.61-.34.97-.11-.17.75-1,.57-1.08,1.3,1.23-.15,2.06-.64,3.01-.51.14.02.34.12.47.09.06.24.32.36.44.55-.19-.15-.54-.04-.36.25-1.14-1.15-3.01.35-4.64.05-.17-.18-.52-.31-.72-.38l-1.47-.51c-.89-.31-1.82-.37-2.63.2.06-.14-.04-.35,0-.5.17-.24.34-.52.7-.51,1.07.01,2.03-.65,3.11-.44Z"/>
      <path class="cls-1" d="M43.75,36.44l1.47.51c-.03.18.03.82-.25.83-.73.02-1.36-.39-1.9.01.46-.92-1.65-2.45-.65,3.78.08.51.31.99-.11,1.31-.38-1.72-1.38-4.11-.5-5.85.3-.6,1.41-.54,1.94-.58Z"/>
      <path class="cls-1" d="M44.93,35.2c-1.08-.21-2.04.46-3.11.44l.41-.7c-.12-.26-.67-.11-.92-.18l-.45-.34c.73-.45,1.25-1.1,2.39-.72.78.26,1.43.6,1.67,1.51Z"/>
      <path class="cls-1" d="M50.65,44.08l-.82,3.22c.71-.51.55-1.37,1.3-1.34-.19.92.33,1.97-2.68,2.56.32-.99,1.59-4.7,2.2-4.45Z"/>
      <path class="cls-1" d="M49.57,34.73l.44,1.67c-.95-.12-1.78.36-3.01.51.07-.73.91-.55,1.08-1.3-.37-.24-.66.12-.97.11.04-.38.33-.66.45-1.01.54.19,1.36-.62,2.02.01Z"/>
      <path class="cls-1" d="M46.61,35.16l-.25-.03c-.96-2.28-1.68-2.3-1.61-3.31.46-.24,1.28-.29,1.54.34.4.98.37,2.04.32,2.99Z"/>
      <path class="cls-1" d="M50.23,34.7c1.28,1.46,1.92.78,1.92,1.82,0,.23-.34.74-.64.49-.36-.3-.56-.69-1.02-.53-.13.03-.34-.07-.47-.09l-.44-1.67.65-.03Z"/>
      <path class="cls-1" d="M44.75,31.82c-.06,1,.65,1.03,1.61,3.31.16.39.12,1.2.11,1.63-.26.44-.61-.18-.78-.35.36-.52-1.77-5.29-1.63-4.45-.03-.2.08-.34.29-.35.12,0,.27.12.4.21Z"/>
      <path class="cls-1" d="M43.13,32.31c-.05.82-1.21,1.01-2.01.89.51-.2.81-.76,1.1-1.19.13-.16.93-.09.91.3Z"/>
      <path class="cls-1" d="M47.56,34.72c-.47-.17-.53-1.22-.04-1.3.44-.07.82.32,1.06.51-.57.23-.88.39-1.02.79Z"/>
      <path class="cls-1" d="M48.99,41.87c-.09,1.24-.84,2.35-1.55,3.46-.33.52-.34,1.21-.87,1.62-.38.09-.84-.42-1.15-.21l-1.36.9c-.58-.49-.58-1.24-.77-1.83.32-.17.33-.85.01-1.02l.18-1.13c.38-.66.46-1.61,0-2.25,0-.28,0-.57.02-.85,1.59.02,3.35.84,3.64-.82,1.62.07-.16-1.76,1.21-1.81-.36.39-.14.77.08,1.24.4.86-.24,2.83.55,2.72Z"/>
      <path class="cls-1" d="M45.93,37.34c.3.37.11.83.27,1.48.4-.16,0-.58.4-.87.6.57.5,1.2.55,1.77-.29,1.66-2.04.84-3.64.82.04-.56,0-1.2-.51-1.53.12-.35-.13-.85.06-1.21.54-.4,1.17.01,1.9-.01.28,0,.22-.64.25-.83.2.07.56.2.72.38Z"/>
      <path class="cls-1" d="M49.32,40.71c-.09.37-.3.78-.33,1.16-.79.11-.15-1.86-.55-2.72-.22-.47-.44-.85-.08-1.24.39-.02.8-.04,1.3.08.17.95-.13,1.85-.35,2.72Z"/>
      <path class="cls-1" d="M43.49,43.64c-.39-.64-.37-1.59,0-2.25.45.64.38,1.59,0,2.25Z"/>
      <path class="cls-1" d="M43.52,40.54c-.71,0-.68-1.03-.51-1.53.5.33.55.97.51,1.53Z"/>
      <path class="cls-1" d="M43.29,45.79c-.07-.13-.25-.25-.29-.41-.07-.31.27-.41.3-.61.32.17.31.85-.01,1.02Z"/>
      <path class="cls-1" d="M41.82,35.64c-.35,0-.52.28-.7.51-.12.17-.19.36-.29.54-.14.26-.31.53-.54.81-.41-1.27.47-1.96,1.01-2.74.24.06.79-.09.92.18l-.41.7Z"/>
      <path class="cls-1" d="M41.12,36.65l-.29.04c.1-.18.16-.36.29-.54-.04.15.06.35,0,.5Z"/>
    </g>
  </g>
</svg>