<?xml version="1.0" encoding="UTF-8"?>
<svg id="Layer_2" data-name="Layer 2" xmlns="http://www.w3.org/2000/svg" viewBox="0 0 50.61 48.52">
  <defs>
    <style>
      .cls-1 {
        fill: #f89631;
      }
    </style>
  </defs>
  <g id="Layer_1-2" data-name="Layer 1">
    <g>
      <path class="cls-1" d="M0,6.34V.92h6.02v47.27H0V6.34Z"/>
      <path class="cls-1" d="M35.5,0c9.22,0,14.25,5.36,14.25,12.16,0,5.43-3.4,9.68-8.37,10.79v.33c5.49,1.31,9.22,5.36,9.22,12.16,0,7.32-5.1,13.08-14.97,13.08-8.96,0-15.63-4.77-16.35-13.93h5.75c.59,5.03,4.25,8.89,10.53,8.89s9.35-3.73,9.35-8.57c0-6.67-4.64-9.22-13.14-9.22h-1.5v-4.97h1.57c7.91-.07,12.16-2.48,12.16-7.98,0-4.51-3.01-7.65-8.7-7.65s-8.89,3.14-9.48,7.72h-5.82c.59-8.11,6.73-12.82,15.5-12.82Z"/>
    </g>
  </g>
</svg>