<?xml version="1.0" encoding="UTF-8"?>
<svg id="Layer_2" data-name="Layer 2" xmlns="http://www.w3.org/2000/svg" viewBox="0 0 26.94 42.53">
  <defs>
    <style>
      .cls-1 {
        fill: #0dff00;
      }

      .cls-2 {
        opacity: .36;
      }
    </style>
  </defs>
  <g id="Layer_1-2" data-name="Layer 1">
    <g class="cls-2">
      <path class="cls-1" d="M8.56,10.03c.75.61.93,1.47.98,2.4.03.56.58.81,1.19.9.7.1,1.64.09,1.85-.61s-.07-1.63.26-2.26c1.83.12,3.79.07,5.61.45,1.54.32,7.38,1.69,7.81,3.36.31,1.18-3.15,1.85-4.13,1.95-4.96.49-9.89.29-14.74-.84-1.19-.28-5.4-1.47-5.14-2.8.05-.28.26-.8.56-.93,2.27-.93,4.59-.89,4.74-1.43.1-.36.73-.41,1.01-.19Z"/>
      <path class="cls-1" d="M3.79,21.76l.47-.45.85,16.6c3.29,4.6,10.59,4.29,15.34,2.47l2.54-18.14c.09-.66.03-1.16.24-1.67h.3c-.13,2.13-.36,4.22-.65,6.45l-1.76,13.98c-5.61,2.23-12.65,2.51-16.67-2.59-.43-5.76-.44-11.04-.66-16.65Z"/>
      <path class="cls-1" d="M26.58,15.6c-.06.05-.12.11-.17.17-5.62,2.53-14.86,1.61-20.76-.23-1.39-.43-2.84-.84-3.57-1.9l-.31-.45c-.25-.88.2-1.31.79-1.72.11.01.39-.04.26.18-.3.12-.51.65-.56.93-.26,1.33,3.95,2.52,5.14,2.8,4.85,1.13,9.79,1.34,14.74.84.98-.1,4.44-.77,4.13-1.95-.44-1.67-6.28-3.04-7.81-3.36l.13-.27c1.9.26,10.19,1.49,7.99,4.96Z"/>
      <path class="cls-1" d="M25.6,17.26c.06.03.12.07.15.13-.43.5-1.51.86-2.07,1.03-.14.04-.54-.07-.48.2-6.2.97-12.6.68-18.48-1.59-.08-.17-.21-.32-.28-.5,5.79,1.6,15.51,2.9,21.15.73Z"/>
      <path class="cls-1" d="M4.45,16.53c.06.18.2.33.28.5-.11,0-.3-.13-.41-.08s-.18.29-.17.5l.11,3.86-.47.45-.2-5.29c.27.09.59-.01.86.06Z"/>
      <path class="cls-1" d="M18.58,10.64l-.13.27c-1.82-.37-3.77-.33-5.61-.45.02-.1,0-.31,0-.42,1.93-.25,3.86.35,5.73.6Z"/>
      <path class="cls-1" d="M7.56,10.22c-.16.54-2.47.5-4.74,1.43.13-.22-.15-.16-.26-.18,1.41-.97,3.28-1.37,5-1.25Z"/>
      <path class="cls-1" d="M1.76,13.19l.31.45c-.16,0-.33.09-.35.21-.31,1.53,2.56,2.19,2.73,2.67-.27-.07-.6.03-.86-.06-.83-.28-1.61-.87-2.14-1.68-.37-.57-.18-1.3.32-1.6Z"/>
      <path class="cls-1" d="M23.69,18.69c.4.65-.13,1.38-.16,1.89h-.3c.25-.62.11-1.35-.02-1.96.15-.02.33.09.48.07Z"/>
      <path class="cls-1" d="M25.75,17.39c-.03-.06-.09-.09-.15-.13.52-.2.8-1.02.81-1.49.05-.06.11-.12.17-.17.04.34.19.73.05,1.12-.15.42-.64.39-.88.67Z"/>
      <path class="cls-1" d="M23.68,18.41c.03.08-.04.2,0,.28-.16.01-.33-.1-.48-.07-.06-.27.34-.16.48-.2Z"/>
      <path class="cls-1" d="M4.72,17.03c5.87,2.26,12.28,2.56,18.48,1.59.13.61.27,1.35.02,1.96-.21.52-.15,1.01-.24,1.67l-2.54,18.14c-4.75,1.82-12.05,2.12-15.34-2.47l-.85-16.6-.11-3.86c0-.21.05-.45.17-.5s.31.09.41.08ZM10.74,22.05c-.24.2-.52.6-.76.75-.58.36-1.07,1.67-1.36,2.31-2.33,5.16.79,11.86,5.21,11.68,4.73-.19,6.94-6.51,5.22-11.61-.47-1.4-1.46-2.92-2.81-3.44-.7-.87-2.04-.96-3.13-.87-.95.08-1.71.61-2.38,1.18Z"/>
      <path class="cls-1" d="M26.4,15.77c0,.47-.28,1.29-.81,1.49-5.64,2.17-15.36.87-21.15-.73-.17-.48-3.04-1.15-2.73-2.67.03-.13.19-.21.35-.21.73,1.05,2.18,1.47,3.57,1.9,5.9,1.84,15.15,2.75,20.76.23Z"/>
      <path class="cls-1" d="M13.12,21.31c1.99-.31,2.44.81,3.13.42,1.35.53,2.34,2.05,2.81,3.44-.23-.12-.18-.59-.85-.47.55.9.74,1.92.24,2.85-.46.26-.91.59-1.24,1-.97.31-1.97,1.05-3.12.87-1.51-.24-2.93-.24-4.32.28-.17.06-.41.04-.48.26h-.24l-.47-.02c-.02-.05,0-.14,0-.2v-2.9c.18-.32.17-.82.23-1.15l.96-1.95c.16-.32.58-.73.22-.94.24-.15.52-.54.76-.75.1.64.92-.51,2.38-.74Z"/>
      <path class="cls-1" d="M19.06,25.17c1.72,5.1-.49,11.41-5.22,11.61-4.42.18-7.54-6.52-5.21-11.68.25-.05.21.42.18.58-.06.33-.06.83-.22,1.15-.44.84-.43,2.07,0,2.9,0,.06-.03.15,0,.2l.27.48c-.12.11-.24.23-.26.39-.01.14.01.44.23.36.34,1.32,1.04,2.67,2.1,3.59,1.96,1.72,4.17,1.42,6.09-.34,1.47-1.35,2.19-4.82,2.06-6.59,0-.1.1-.5-.02-.46-.13.04-.44.09-.59.18.5-.93.3-1.95-.24-2.85.68-.11.62.35.85.47Z"/>
      <path class="cls-1" d="M16.24,21.73c-.69.38-1.14-.73-3.13-.42v-.44c1.09-.09,2.43,0,3.13.87Z"/>
      <path class="cls-1" d="M8.81,25.68c.03-.16.07-.63-.18-.58.29-.63.77-1.95,1.36-2.31.36.21-.06.61-.22.94l-.96,1.95Z"/>
      <path class="cls-1" d="M13.12,20.86v.44c-1.46.23-2.28,1.38-2.38.74.68-.57,1.43-1.11,2.38-1.18Z"/>
      <path class="cls-1" d="M19.06,27.83c.13,1.76-.59,5.24-2.06,6.59-1.93,1.76-4.13,2.06-6.09.34-1.06-.92-1.76-2.27-2.1-3.59-.06-.24.05-.51.03-.75l-.27-.48.47.02c.05.19.16.38.36.41s.39-.11.57-.16c.24-.06.65.08.76-.2,2.05-.48,4.22,1.57,6.96-1.29.34-.36.9-.73,1.36-.87Z"/>
      <path class="cls-1" d="M17.21,28.55c.14-.04.57-.1.49.15-2.74,2.86-4.91.81-6.96,1.29-.23.05-.7-.16-.76.2-.18.05-.37.18-.57.16s-.31-.22-.36-.41h.24c.2,0,.44-.03.48-.26,1.39-.51,2.81-.52,4.32-.28,1.15.18,2.16-.56,3.12-.87Z"/>
      <path class="cls-1" d="M19.06,27.83c-.46.14-1.02.52-1.36.87.08-.25-.35-.2-.49-.15.33-.41.78-.74,1.24-1,.16-.09.46-.14.59-.18.12-.04.01.36.02.46Z"/>
      <path class="cls-1" d="M8.57,29.73c-.42-.83-.43-2.06,0-2.9v2.9Z"/>
      <path class="cls-1" d="M9.76,29.69c-.04.23-.28.26-.48.26.07-.22.31-.2.48-.26Z"/>
      <path class="cls-1" d="M8.81,31.17c-.21.09-.24-.22-.23-.36.01-.16.13-.28.26-.39.02.24-.09.51-.03.75Z"/>
      <path class="cls-1" d="M10.74,29.99c-.11.29-.52.14-.76.2.07-.37.53-.15.76-.2Z"/>
      <g>
        <path class="cls-1" d="M12.85,10.04c0,.11.02.32,0,.42-.32.63-.05,1.58-.26,2.26h-.43c.13-2.35-.03-4.66-.34-7.16-.95.82-1.67,1.14-2.66,1.49.36,1.96.62,3.65.67,5.38h-.29c-.05-.93-.23-1.79-.98-2.4,1.16.56-.06-3.5-.36-3.98C5.94,5.3-.09,5.48,0,2.44.03,1.4.72-.18,2.06.02c1.93.28,9.4,2.18,9.99,3.57.64,1.51.24,4.81.8,6.45ZM8.25,5.33c.48-.99,1.2-1.38,1.77-2.37-2.72-.88-5.23-1.73-7.95-2.09-.88-.12-1.14,1.01-1.17,1.59-.04.79.47,1.29,1.3,1.55,2,.62,3.98,1.08,6.05,1.33ZM9.34,6.45c.78-.74,1.6-.96,2.2-1.6.31-.33.05-.88-.13-1.1-1.07-1.31-1.07.8-2.69,1.72.01.48.09.91.61.99Z"/>
        <path class="cls-1" d="M12.16,12.71h.43c-.21.71-1.16.72-1.85.62-.61-.09-1.16-.34-1.19-.9h.29c.7.47,1.6.8,2.33.28Z"/>
        <path class="cls-1" d="M8.25,5.33c-2.07-.24-4.05-.71-6.05-1.33-.83-.26-1.34-.76-1.3-1.55.03-.58.29-1.71,1.17-1.59,2.71.37,5.23,1.21,7.95,2.09-.57.99-1.3,1.38-1.77,2.37Z"/>
        <path class="cls-1" d="M12.16,12.71c-.73.51-1.63.19-2.33-.28-.05-1.73-.31-3.42-.67-5.38.99-.35,1.7-.67,2.66-1.49.31,2.5.47,4.82.34,7.16Z"/>
        <path class="cls-1" d="M9.34,6.45c-.52-.08-.6-.51-.61-.99,1.62-.91,1.62-3.03,2.69-1.72.18.22.44.77.13,1.1-.6.64-1.43.86-2.2,1.6Z"/>
      </g>
    </g>
  </g>
</svg>