<?xml version="1.0" encoding="UTF-8"?>
<svg id="Layer_2" data-name="Layer 2" xmlns="http://www.w3.org/2000/svg" viewBox="0 0 187.22 395.48">
  <defs>
    <style>
      .cls-1 {
        fill: #6cbe45;
        opacity: .8;
      }
    </style>
  </defs>
  <g id="Layer_1-2" data-name="Layer 1">
    <path class="cls-1" d="M185.88,0c-.13.47.5.66.5.09.52.1.84.43.84,1.35v159.31s-118.58,3.3-118.58,3.3c-.64-10.92,1.05-22.01,2.58-32.88l22.86-.08,45.37-.12.95-28.54c5.51-2.66,3.36-6.15,5.42-8.21.41-.41,1.02-.63,1.33-1.03-.22.29.2-3.83,1.36-5.95l2.91-5.32c.9-1.64,2.45-2.29,4.02-2.63.29-.89,1.34-2.08,1.63-2.96l2.22-6.82c-1.86-5.44,1.46-5.6-.37-9.78-.04-.1-1.35-8.88-.16-9.4-2.07-2.29-1.74-5.22-1.03-8.02,1.56-6.22-.45-5.59-.61-10.92-.02-.59-.95-1.15-.73-1.84.14-.43.62-.98,1.22-1.63-1.94-1.82-1.7-4.49-2.21-6.66-.85-3.58-1.69-6.66-.97-10.32.26-1.3-.48-2.95-.55-4.32-.17-3.33,3.77-1.7,3.72-3.54v-.48s.66-.03.66-.03c4.32-.16,8.65-.48,13.17-.83l11.87-.92c.51-.04.99.28,1.29-.17.1-.15.14-.42.02-.64h1.26Z"/>
    <path class="cls-1" d="M168.48.51c1.96,1.63-12.47.64-10.21,2.07l-.68.03c-1.23-.61-3.02-.77-4.12.09l-1.16.02c-1.37.02-3.03-.59-4.09.42h-.72c-1.53.04-3.26-.57-4.53.44h-.72c-1.08.03-2.3-.26-3.55,0-3.52.76-6.44-.13-5.82,1.17-.67-.02-1.35,0-2.02.03-1.01-.63-2.71-.7-3.65.09l-1.15.03c-.53.01-4.51-.49-3.68.73-.34-.02-.85.09-1.16.01-1.56-.92-3.41-.14-5.29.07-1.64.18-3.26-.42-4.48.46-.83-.02-2.04.18-2.88.05-1.15-.19-1.83-.06-2.8.4s-2.34.16-3.34.37c-.33-.63-1.58-.59-1.92.02l-7.27.59c-2.32.19-4.43.36-6.56.35-.46,0-1.26-.21-1.45.33l-1.29.1-23.94,1.76c-.46.03-1.24-.2-1.46.34-.71-.08-1.71.12-2.45.08l-13.27.9L6.99,14.66l-.13,45.6.09,5.37v2.13c-.96.66,0,1.64-.01,2.3-.06,3.06.18,6.17-.14,9.4-.42,4.11-.33,8.11-.17,12.04l.34,8.35c-.49.69-1.73,1.14-1.89,2.16-.2,1.27,1.16,1.79,1.97,2.26l-.3,9.29-.11,48.82-.06,3.32-6.57.29L1.08,8.39,168.48.51Z"/>
    <path class="cls-1" d="M20.96,136.97l2,10.43c1.16,6.08,1.47,12.01.65,17.94l-17.04.36.06-3.32c.31.27.78-.08.78-.53l.21-18.76c.03-2.55,3.41-2.71,5.1-3.34,1.79-.66,2.72-1.49,4.74-1.54,1.17-.03,2.25-1.75,3.5-1.24Z"/>
    <path class="cls-1" d="M184.62.01c.12.22.08.5-.02.64-.3.45-.78.13-1.29.17l-11.87.92c-4.53.35-8.85.67-13.17.83-2.26-1.43,12.17-.44,10.21-2.07.8-.04,1.68-.16,2.48-.08.47.05.89.78,1.59.54.41-.14,1.41.03,1.21-.82l10.86-.14Z"/>
    <path class="cls-1" d="M153.47,2.69c1.21.8,2.74.25,4.13.39.05,1.84-3.89.21-3.72,3.54.07,1.37.81,3.02.55,4.32-.72,3.66.12,6.74.97,10.32.51,2.17.27,4.84,2.21,6.66-.6.65-1.08,1.2-1.22,1.63-.22.7.71,1.26.73,1.84.16,5.34,2.18,4.7.61,10.92-.71,2.8-1.04,5.73,1.03,8.02-1.2.53.11,9.31.16,9.4,1.83,4.17-1.49,4.34.37,9.78l-2.22,6.82c-.29.88-1.33,2.06-1.63,2.96-1.57.34-3.13.99-4.02,2.63l-2.91,5.32c-1.16,2.12-1.58,6.24-1.36,5.95-.3.4-.92.62-1.33,1.03-2.06,2.07.1,5.55-5.42,8.21l.07-7.58.32-31.87v-1.31c-.01-1.84.29-3.37-.11-5.58l-41.41,2.15c-.23-2.51,2.25-5.95,3.58-8.02.46-1.94,1.08-3.57,3-4.09-.49-.51,2.21-5.16,1.73-4.82.29-.2,1.44.01,1.61-.31,1.05-2.02,3.99-4.02,7.43-10.37.83-1.54,1.3-3.29,2.5-4.64,1.55-1.74,1.42-3.75,2.37-5.69l1.99-4.06c.63-1.29,2.01-2.42,2.55-3.88,1.65-4.44.81-4.43,5.24-6.6.82-.4,2.04.23,2.18-.83l3-.15c-1.09.06,9.2-.7,5.81-1.19h.72c-1.03.42,5.8.89,4.53-.44h.72c.16.56,5.06.76,4.09-.44l1.16-.02Z"/>
    <path class="cls-1" d="M157.59,2.6v.48c-1.38-.14-2.9.42-4.12-.39,1.1-.86,2.89-.7,4.12-.09Z"/>
    <path class="cls-1" d="M105.77,6.61c.25.32.64.44,1.03.52-.26.99-1.58.9-2.35,1.57-1.89,1.63-3.23,3.92-4.17,6.18-2.09.59-2.47,2.72-3.6,3.99-.91,1.02-1.34,1.92-2.12,3.16l-2.33,3.69-3.33,3.63c1.32-1.44-7.48,11.32-6.02,9.82l-4.03,4.14c1.4-1.43-5.75,9.99-7.28,11.67-1.37,1.51-2.31,3-2.37,5.01l-15.58,1.12-1.5,34.55-10.37.4c-11.76.46-23.41,1.28-34.79,3.8l-.34-8.35c1.43.67,1.59-3.86,2.96-4.56,4.01-2.05,7.82-4.21,11.72-6.59.97-.59,2.23-.59,2.07-2.41,2.93-.53,4.59-2.87,6.6-4.7.9-.82,2.12-1.26,2.86-2.32,2.46-3.53,3.18-1.46,5-4.6,1.33-2.3,3.17-4.15,5.35-5.6l7.22-9.11,4.32-6.02c1-1.39,2-2.26,2.87-3.81.81-1.44,2.19-2.78,3.17-4.14,1.41-1.94,2.28-4,3.84-5.79,1.29-1.48,3.01-3.18,3.69-4.93.6-1.55,1.7-1.77,2.43-2.94l2.05-3.28c1.58-2.54,2.96-5.27,5.59-7.09.33-4.96,5.52-3.53,5.59-5.24l1.29-.1c.24.34.71.64,1.13.49.3-.11.55-.53.32-.82,2.12,0,4.24-.17,6.56-.35l7.27-.59c.3.23.68.55,1.13.48.31-.05.54-.38.78-.5,1-.21,2.38.08,3.34-.37Z"/>
    <path class="cls-1" d="M83.94,8.37c-.07,1.71-5.26.28-5.59,5.24-2.63,1.82-4,4.55-5.59,7.09l-2.05,3.28c-.73,1.17-1.83,1.39-2.43,2.94-.68,1.76-2.4,3.45-3.69,4.93-1.56,1.79-2.43,3.85-3.84,5.79-.99,1.36-2.37,2.7-3.17,4.14-.87,1.55-1.87,2.42-2.87,3.81l-4.32,6.02-7.22,9.11c-2.19,1.45-4.02,3.3-5.35,5.6-1.82,3.14-2.54,1.08-5,4.6-.74,1.06-1.97,1.49-2.86,2.32-2,1.84-3.66,4.17-6.6,4.7.16,1.82-1.1,1.82-2.07,2.41-3.9,2.38-7.71,4.54-11.72,6.59-1.37.7-1.53,5.23-2.96,4.56-.16-3.93-.24-7.93.17-12.04.33-3.23.08-6.34.14-9.4.71.43.7-2.75,0-2.3v-2.13c1.8.22.69-3.23,3.85-3.69,2.52-.37.29-4.93,4.3-5.32,1.28-1.78,3.29-2.56,5.47-2.79.95-.1.74-1.37,1.28-1.7,1.21-.74,3.16-.94,3.83-2.33.2-.42-.53-1.87.05-2.03,1.78-.49,1.91-1.86,2.91-2.94,1.43-1.55,3.18-2.99,4.77-4.35.96-.82.91-1.8,1.43-2.61l4.47-6.95c.89-1.39,3.2-1.2,3.49-3.66.21-1.71,2.16-3.04,4.05-2.94-.33-2.25.82-3.25,1.72-4.63l3.25-4.98c.99-1.51,1.25-3.11,3.54-3.25.34-.02,1.02-.57.74-.91.74.04,1.74-.16,2.45-.08.32.04.64.85,1.15.5.26-.18.55-.51.31-.84l23.94-1.76Z"/>
    <path class="cls-1" d="M127.21,4.87c1.09.65,2.64.74,3.65-.09.67-.02,1.35-.05,2.02-.03.19,0,.38.16.57.18-.14,1.06-1.36.43-2.18.83-4.43,2.16-3.59,2.15-5.24,6.6-.54,1.46-1.92,2.58-2.55,3.88l-1.99,4.06c-.95,1.94-.82,3.94-2.37,5.69-1.19,1.34-1.66,3.1-2.5,4.64-3.44,6.35-6.37,8.35-7.43,10.37-.17.32-1.32.11-1.61.31.49-.34-2.21,4.31-1.73,4.82-1.91.53-2.53,2.15-3,4.09-1.33,2.07-3.81,5.51-3.58,8.02-9.98.52-20.1,1.03-30.09,1.75.06-2.01.99-3.49,2.37-5.01,1.53-1.69,8.68-13.11,7.28-11.67l4.03-4.14c-1.47,1.51,7.34-11.25,6.02-9.82l3.33-3.63,2.33-3.69c.78-1.24,1.21-2.14,2.12-3.16,1.13-1.27,1.51-3.39,3.6-3.99.94-2.25,2.28-4.55,4.17-6.18.77-.67,2.09-.58,2.35-1.57.46,0,.9,0,1.36-.18.24-.1.7-.34.41-.73.85.14,2.05-.07,2.88-.05-1.37,1,11.12-.07,9.77-.53.32.08.82-.03,1.16-.01.57.04,4.47.53,3.68-.73l1.15-.03Z"/>
    <path class="cls-1" d="M56.1,10.54c.28.34-.4.89-.74.91-2.29.15-2.55,1.74-3.54,3.25l-3.25,4.98c-.9,1.38-2.05,2.39-1.72,4.63-1.9-.1-3.85,1.23-4.05,2.94-.3,2.45-2.6,2.27-3.49,3.66l-4.47,6.95c-.52.8-.47,1.78-1.43,2.61-1.59,1.36-3.34,2.8-4.77,4.35-1,1.09-1.14,2.46-2.91,2.94-.59.16.15,1.61-.05,2.03-.66,1.39-2.62,1.59-3.83,2.33-.54.33-.33,1.6-1.28,1.7-2.19.23-4.19,1.01-5.47,2.79-4.01.39-1.79,4.96-4.3,5.32-3.16.46-2.05,3.91-3.84,3.69l-.09-5.37.13-45.6,35.84-3.22,13.27-.9Z"/>
    <path class="cls-1" d="M10.56,106.25c5.68,2.57,18.78,3.33,25.41,3.26l15.61-.17-.89,19.68c-2.92.07-5.61,1.58-8.65,2.18-1.62.32-2.91,1.84-4.49,1.98-1.67.15-2.62.68-4.08,1.26s-8.09,1.08-10.8,4.2c-.4-2.62-6.84-27.87-10.86-29.83,5.23,10.48,7.06,17.32,9.14,28.16-1.26-.51-2.34,1.21-3.5,1.24-2.02.06-2.95.89-4.74,1.54-1.69.62-5.07.79-5.1,3.34l-.21,18.76c0,.45-.47.8-.78.53l.11-48.82.3-9.29c1.7.99,2.51,2.89,4.55,4.28.33-1.01-.98-1.4-1.03-2.31Z"/>
    <path class="cls-1" d="M121.22,5.64c1.35.46-11.14,1.53-9.77.53,1.22-.89,2.83-.28,4.48-.46,1.88-.21,3.73-.99,5.29-.07Z"/>
    <path class="cls-1" d="M142.25,3.59c3.39.49-6.9,1.25-5.81,1.19l-3,.15c-.19-.02-.38-.18-.57-.18-.62-1.3,2.3-.4,5.82-1.17,1.25-.27,2.46.02,3.55,0Z"/>
    <path class="cls-1" d="M147.5,3.15c1.28,1.32-5.56.85-4.53.42,1.26-1.01,3-.4,4.53-.42Z"/>
    <path class="cls-1" d="M152.31,2.71c.97,1.19-3.93.99-4.09.42,1.05-1.01,2.72-.4,4.09-.42Z"/>
    <path class="cls-1" d="M126.06,4.89c.79,1.26-3.11.77-3.68.73-.83-1.22,3.15-.72,3.68-.73Z"/>
    <path class="cls-1" d="M130.86,4.78c-1.01.83-2.55.74-3.65.09.94-.79,2.64-.72,3.65-.09Z"/>
    <path class="cls-1" d="M108.57,6.22c.29.39-.17.63-.41.73-.46.19-.9.18-1.36.18-.38-.08-.78-.2-1.03-.52.97-.46,1.65-.58,2.8-.4Z"/>
    <path class="cls-1" d="M6.94,70.06c.01-.66-.95-1.64,0-2.3.7-.45.71,2.73,0,2.3Z"/>
    <path class="cls-1" d="M102.44,6.98c-.24.12-.47.45-.78.5-.46.07-.83-.25-1.13-.48.34-.6,1.59-.65,1.92-.02Z"/>
    <path class="cls-1" d="M60.01,10.12c.24.32-.05.66-.31.84-.51.35-.83-.46-1.15-.5.21-.54.99-.31,1.46-.34Z"/>
    <path class="cls-1" d="M86.69,7.94c.23.29-.02.72-.32.82-.42.15-.9-.16-1.13-.49.19-.54.99-.33,1.45-.33Z"/>
    <path class="cls-1" d="M50.7,129.01c-.03.62,0,1.34.2,2.07,2.24.35,4.34-.05,6.42-.02l12.75.15c-1.74,10.89-2.47,21.88-3.15,32.88l-41.89,1.22c-.08-4.1.43-8.31-.23-12.65l-2.13-14.03c2.71-3.12,9.33-3.62,10.8-4.2s2.41-1.11,4.08-1.26c1.58-.14,2.87-1.66,4.49-1.98,3.04-.6,5.73-2.11,8.65-2.18Z"/>
    <path class="cls-1" d="M157.52,385.53c-2.11,1.28-3.97,1.51-5.95,2.3l-27.09,7.34c-1.54.32-2.97.49-4.61.05l.08-231.49,22.63-.11.14,39,1.58,128.86,13.22,54.06Z"/>
    <path class="cls-1" d="M140.79,61.67v1.31c1.34-2.18-8.17,7.6-6.44,5.41l-3.43,4.33s-7.05,7.62-7.33,8.83c-.41,1.74-2.01,2.41-2.93,3.69-1.84,2.57-5.89,9.3-6.53,10.06-2.56,3.09-4.31,6.56-6.35,9.94-.95,1.57-2.18,2.72-2.8,4.58-.36,1.07-1.95,1.96-1.98,3.17-.04,1.66-1.44,2.18-2.03,3.3-1.79,3.36-3.08,6.88-5.28,10.09-1.02,1.49-1.55,3.05-1.61,4.71l-22.86.08c1.19-8.54,3.19-16.84,6.18-24.93.94-.78,1.34-2.43,2.48-3.26,1.06-.77,2.86-1.8,4.15-1.78l11.83.19c1.08.02,1.48-3.06.61-3.7l-13.69.22-6.55-1.26c-6.19-1.19-12.44-1-18.58-1.01-.46-2.65-.09-5.26-.07-8.12l.15-20.53,10.96-.17c2.62-.04,16.6-1.5,18.79-1.22s4.4-.19,6.57-.35l10.95-.78c3.38-.24,6.31-.87,9.68-1.31l6-.78,11.6-.5c2.9-.13,5.75.01,8.49-.22Z"/>
    <path class="cls-1" d="M140.8,62.98l-.32,31.87-.07,7.58-.95,28.54-45.37.12c.06-1.66.59-3.22,1.61-4.71,2.21-3.21,3.49-6.73,5.28-10.09.59-1.11,1.99-1.64,2.03-3.3.03-1.21,1.61-2.1,1.98-3.17.63-1.85,1.85-3,2.8-4.58,2.04-3.38,3.79-6.86,6.35-9.94.63-.76,4.69-7.49,6.53-10.06.92-1.28,2.52-1.96,2.93-3.69.28-1.21,7.29-8.78,7.33-8.83l3.43-4.33c-1.74,2.19,7.77-7.59,6.44-5.41Z"/>
    <path class="cls-1" d="M76.12,106.21c1.1.67-.07,1.49-.39,2.44-2.52,7.42-4.44,14.97-5.66,22.57l-12.75-.15v-22.18c6.3-.73,12.59-1.38,18.8-2.67Z"/>
    <path class="cls-1" d="M140.79,61.67c-2.74.24-5.59.1-8.49.22l-11.6.5-6,.78c-3.36.44-6.29,1.07-9.68,1.31l-10.95.78c-2.17.15-4.32.63-6.57.35s-16.16,1.18-18.79,1.22l-10.96.17-.15,20.53c-.02,2.86-.39,5.46.07,8.12h-5.54s1.5-34.55,1.5-34.55l15.58-1.12c9.99-.72,20.1-1.23,30.09-1.75l41.41-2.15c.4,2.21.1,3.74.1,5.58Z"/>
    <path class="cls-1" d="M57.33,108.88v22.18c-2.09-.02-4.19.38-6.43.02-.2-.73-.23-1.45-.2-2.07l.89-19.68c1.66-.02,4.04-.27,5.75-.46Z"/>
    <path class="cls-1" d="M76.96,105.78c-.08.22.14.64.44.45-2.99,8.09-4.98,16.4-6.18,24.93-1.52,10.87-3.21,21.96-2.58,32.88-.1-1.64-.26,9.07-.28,9.09-.95.52-1.48-1.48-6.39-.7-.89-1.07-1.28-3.52-2.95-3.89-4.29-.95-4.42,3.03-6.83,4.5-.73-3.52-2.96-5.37-6.29-5.2s-5.13,2.2-6.43,5.42c-2.28-2.03-4.53-7.79-8.72-5.18-2.87,1.78-5.06,4.28-6.94,7.01-.19.27-.85.17-.83-.06.02-.28.62-9.76.61-9.69.82-5.93.51-11.86-.65-17.94l-2-10.43c-2.08-10.84-3.9-17.68-9.14-28.16,4.02,1.95,10.46,27.21,10.86,29.83l2.13,14.03c.66,4.34.14,8.55.23,12.65.04,1.72-.68,3.36-.14,5.51,3.02-1.89,5.81-6.04,9.85-4.33,1.84.78,2.88,2.21,4.34,4.03,1.65-2.63,4.02-4.01,6.7-4.17,2.87-.17,5.37,1.06,7.07,3.67,1.55-2.11,3.32-3.29,5.55-3,1.82.24,3.52,1.59,4.26,3.71,1.32.38,2.8.19,4.42.4.33-2.56-.29-4.79-.15-7.03.68-11,1.4-21.99,3.15-32.88,1.22-7.6,3.14-15.15,5.66-22.57.32-.95,1.49-1.76.39-2.44.27-.06.5-.48.84-.42Z"/>
    <path class="cls-1" d="M52.11,95.64h5.54c6.14.01,12.38-.18,18.58,1.01l6.55,1.26,13.69-.22c.87.64.47,3.72-.61,3.7l-11.83-.19c-1.29-.02-3.09,1.01-4.15,1.78-1.14.83-1.54,2.48-2.48,3.26-.3.19-.51-.24-.44-.45.11-.31.42-.57.32-.99-4.14.2-8.08.7-12.13,1.58-1.43.31-2.77.15-3.99.34-.08-.55-.77-1.24-1.7-1.14-16.02,1.69-31.88,1.5-47.68-.09-.96-.1-1.91-.52-2.99-.74.74.24,1.14,1.22,1.77,1.51.05.91,1.36,1.3,1.03,2.31-2.05-1.4-2.86-3.3-4.55-4.28-.81-.47-2.17-.99-1.97-2.26.16-1.01,1.41-1.47,1.89-2.16,11.38-2.53,23.03-3.35,34.79-3.8l10.37-.4ZM7.03,102.37c.36.91,1.39.66,2.11.92,8.82,3.12,33.05,1.55,42.57,1.27l5.64-.17c3.79-.11,21.73-1.76,24.03-3.68.42-.35,1.79-.18,1.61-1.39-5.51-1.54-11.48-2.43-17.38-2.06l5.77,1.05c.43.08.95-.05,1.31.19.22.14.38.46.33.84h-4.27c.29-.38-.08-.73-.34-.84.24.1-10.85-.83-12.85-.73-1.15.06-1.82-.38-2.62-.63.66-.84-12.13-.35-12.64-.29-1.79.19-3.46.26-5.33.34-6.23.27-12.26,1.72-17.07,1.88-4.09.13-7.91,1.56-11.8,2.85.11.71.6.48.93.46ZM95.02,99l-.98-.2c-3.38.37-6.51,0-10,.96-1.23.87,16.88.47,10.99-.75Z"/>
    <path class="cls-1" d="M66.92,164.09c-.14,2.24.48,4.47.15,7.03-1.62-.2-3.1-.02-4.42-.4-.74-2.12-2.44-3.47-4.26-3.71-2.23-.29-4,.89-5.55,3-1.7-2.61-4.2-3.84-7.07-3.67-2.68.16-5.05,1.54-6.7,4.17-1.46-1.82-2.5-3.24-4.34-4.03-4.04-1.72-6.83,2.44-9.85,4.33-.54-2.15.18-3.79.14-5.51l41.89-1.22Z"/>
    <path class="cls-1" d="M11.78,105.48c2.25,1.58,5.29,1.63,8.24,1.88l12.33,1.01c8.89.73,20.32-.38,28.81-1.66,1.22-.18,2.55-.02,3.99-.34,4.06-.88,7.99-1.39,12.13-1.58.11.41-.21.68-.32.99-.34-.06-.57.37-.84.42-6.2,1.29-12.49,1.94-18.78,2.67-1.71.2-4.09.45-5.75.46l-15.61.17c-6.63.07-19.73-.69-25.41-3.26-.63-.29-1.04-1.27-1.77-1.51,1.08.22,2.03.64,2.99.74Z"/>
    <path class="cls-1" d="M52,99.21l-.3,5.34c-9.52.28-33.74,1.85-42.57-1.27,11.89-3.15,30.4-3.89,42.87-4.07Z"/>
    <path class="cls-1" d="M52.93,97.13c.81.26,1.47.7,2.62.63,2-.11,13.08.83,12.85.73.26.11.63.46.34.82l-11.31-.3c-1.63-.04-3.45-.52-4.93.19-.16,0-.33,0-.49,0-12.46.19-30.98.92-42.87,4.07-.72-.26-1.75,0-2.11-.92l22.68-3.94c2.7-.47,5.24-.42,7.92-.52l10.9-.41c1.49-.06,3.05-.8,4.4-.37Z"/>
    <path class="cls-1" d="M68.74,99.31h4.27c2.81.02,5.7.41,8.36,1.39-2.3,1.92-20.24,3.57-24.03,3.68.03-1.65-.05-3.31.06-4.96l.03-.4,11.31.3Z"/>
    <path class="cls-1" d="M61.16,106.72c-8.49,1.28-19.91,2.39-28.81,1.66l-12.33-1.01c-2.95-.24-6-.29-8.24-1.88,15.8,1.6,31.67,1.78,47.68.09.93-.1,1.61.59,1.7,1.14Z"/>
    <path class="cls-1" d="M52.93,97.13c-1.35-.43-2.92.31-4.4.37l-10.9.41c-2.69.1-5.22.05-7.92.52l-22.68,3.94c-.33.02-.82.25-.93-.46,3.89-1.3,7.71-2.72,11.8-2.85,4.81-.16,10.84-1.61,17.07-1.88,1.87-.08,3.53-.15,5.33-.34.51-.05,13.29-.55,12.64.29Z"/>
    <path class="cls-1" d="M57.4,99.42c-.11,1.65-.03,3.31-.06,4.96l-5.64.17.3-5.34c.16,0,.33-.01.49,0l4.91.21Z"/>
    <path class="cls-1" d="M81.37,100.7c-2.66-.98-5.54-1.37-8.36-1.37.05-.38-.11-.69-.33-.84-.36-.24-.89-.12-1.31-.19l-5.77-1.05c5.9-.37,11.87.53,17.38,2.06.18,1.21-1.18,1.04-1.61,1.39Z"/>
    <path class="cls-1" d="M95.02,99c5.9,1.22-12.22,1.63-10.99.75,3.5-.95,6.63-.59,10-.96l.98.2Z"/>
    <path class="cls-1" d="M57.43,99.02l-.03.4-4.91-.21c1.48-.71,3.3-.23,4.93-.19Z"/>
  </g>
</svg>